<svg id="Layer_1" data-name="Layer 1" xmlns="http://www.w3.org/2000/svg" viewBox="0 0 360 360"><defs><style>.cls-1{opacity:0.34;}.cls-2{fill:#bfaa93;}.cls-3{fill:#023478;}.cls-4{fill:#967a3d;}</style></defs><title>Cookie</title><g class="cls-1"><path class="cls-2" d="M170.85,278a78.39,78.39,0,1,0-78.39-78.39A78.38,78.38,0,0,0,170.85,278"/></g><path class="cls-3" d="M222.49,227.18c-1.07,0-2.09-.09-3.06-.17a22,22,0,0,0-3.58-.13,2.77,2.77,0,0,1-2.08-.68,2.81,2.81,0,0,1-1-2l-2.77-57.54a2.8,2.8,0,0,1,2.79-2.93h9.5a2.79,2.79,0,0,1,2.79,2.66L227.9,224a2.8,2.8,0,0,1-2.11,2.85A13.53,13.53,0,0,1,222.49,227.18Zm-4.21-5.88c.56,0,1.1.08,1.64.13.78.07,1.54.13,2.26.15l-2.51-52.22h-3.89Z"/><path class="cls-4" d="M222.48,227.18c-1.06,0-2.09-.09-3.06-.17a21.86,21.86,0,0,0-3.57-.13,2.77,2.77,0,0,1-2.08-.68,2.83,2.83,0,0,1-1-2l-2.77-57.54a2.8,2.8,0,0,1,2.79-2.93h9.49a2.43,2.43,0,0,1,1.24.29l50.74,25a2.78,2.78,0,0,1,1.47,1.79,2.82,2.82,0,0,1-.38,2.29c-.72,1.06-1.38,2.1-2,3.17-.74,1.31-1.42,2.72-2.13,4.22-1.6,3.34-3.25,6.8-6,9.56-3.79,3.88-8.7,6.75-13,9.29-4,2.36-8.53,3.55-12.89,4.7l-2,.52a67.1,67.1,0,0,1-11.83,2.27A14.16,14.16,0,0,1,222.48,227.18Zm-4.2-5.88c.56,0,1.1.08,1.63.13.79.07,1.55.13,2.27.15l-2.51-52.22h-3.89Zm7.08-50.13,2.4,49.8a68.11,68.11,0,0,0,8.15-1.77l2-.54c4.18-1.1,8.12-2.14,11.5-4.12,4.22-2.47,8.58-5,11.86-8.38,2.09-2.1,3.47-5,4.93-8,.72-1.51,1.47-3.09,2.33-4.58.16-.28.32-.56.49-.83Zm-25,36.74a61.18,61.18,0,0,1-15.92-1.67c-5.49-1.46-10.49-4.36-14.5-6.69-.85-.49-1.72-1-2.6-1.45-3.75-2.09-7.63-4.23-10.79-7.4-3-3-5-6.67-6.9-10.23-.59-1.09-1.17-2.18-1.78-3.23a59.11,59.11,0,0,1-5.83-14.68,60.54,60.54,0,0,1-1.87-15.62,59.52,59.52,0,0,1,2.21-15.53c.36-1.36.66-2.73,1-4.18.81-3.72,1.64-7.58,3.64-11.07,2.35-4,5.59-7.19,8.73-10.26l1.79-1.77c.7-.7,1.39-1.41,2.08-2.12,3-3.06,6-6.22,9.9-8.47a61.92,61.92,0,0,1,14.94-6c3.92-1,7.92-.89,11.79-.74,2.81.11,5.72.11,8.53,0,3.79-.18,7.71-.37,11.55.64,4.35,1.18,8.06,3.41,11.65,5.56.88.53,1.76,1.06,2.64,1.57A61.57,61.57,0,0,1,243.37,104a60.89,60.89,0,0,1,9.82,12.5c2.65,4.58,5.35,9.22,6.78,14.5s1.4,11,1.4,16q0,1.38,0,2.76c.05,4.41.11,9-1.07,13.3-1,3.89-3.18,7.16-5.25,10.32l-.38.58a2.8,2.8,0,0,1-3.57,1l-47.31-23,2.59,53a2.79,2.79,0,0,1-2.54,2.92C202.74,207.85,201.56,207.91,200.37,207.91ZM192,92.33a24,24,0,0,0-6.13.66,56.39,56.39,0,0,0-13.58,5.4c-3.2,1.85-5.86,4.6-8.68,7.51-.71.74-1.42,1.47-2.14,2.19l-1.84,1.81c-3,2.94-5.83,5.72-7.79,9.07-1.56,2.71-2.27,6-3,9.45-.31,1.45-.63,3-1,4.43a53.39,53.39,0,0,0-2,14.09,55.62,55.62,0,0,0,6.95,27.49c.64,1.11,1.26,2.24,1.87,3.38,1.81,3.35,3.51,6.52,5.93,8.93,2.6,2.61,6,4.48,9.54,6.46.91.5,1.81,1,2.69,1.51,3.93,2.28,8.37,4.85,13.15,6.13a56.1,56.1,0,0,0,14.78,1.47L198,147.42a2.8,2.8,0,0,1,4-2.65l49.34,24a26.1,26.1,0,0,0,3.57-7.22c1-3.59.92-7.57.87-11.78,0-.94,0-1.89,0-2.83,0-4.9,0-10-1.21-14.53s-3.74-8.88-6.16-13a55.58,55.58,0,0,0-9-11.44,56.22,56.22,0,0,0-11.61-8.5c-.91-.51-1.81-1.06-2.72-1.61-3.41-2-6.63-4-10.22-5-3-.79-6.31-.63-9.83-.46-2.92.14-6.08.15-9,0C194.65,92.39,193.31,92.33,192,92.33Zm49.57,108.34-.47-5.58.24,2.79-.26-2.79a6.59,6.59,0,0,0,3.73-1.68l4.09,3.83A12.26,12.26,0,0,1,241.58,200.67Zm-55.4-16.56c-4.15,0-8.2-2.74-8.67-3.06l3.21-4.59-1.6,2.29,1.59-2.3c.82.57,3.6,2.16,5.64,2.06l.27,5.59Zm-26.86-19.62c-.65-5.38,5.69-9.49,6.41-9.94l3,4.74c-1.69,1.07-4,3.31-3.82,4.52Zm83-14.32-.56-2.74-.63-2.73a3.94,3.94,0,0,0,2.62-3.16l5.45,1.28A9.48,9.48,0,0,1,242.27,150.17Zm-15.78-4.89c-3-.72-7-4.43-8.14-5.54l3.88-4c1.83,1.76,4.58,3.9,5.59,4.14Zm-42.43-2.42h-.26l.27-5.59h0c.88,0,3.42-1.85,5.15-3.76l4.15,3.76C192.18,138.59,188,142.86,184.06,142.86Zm-21.66-9.15L157,132.24c1.27-4.68,7.95-6.45,9.28-6.76l1.27,5.45C165.17,131.49,162.63,132.87,162.4,133.71Zm62.31-16.23c-.36-.65-2.74-1.16-4.35-1.13l-.15-5.59c1.18,0,7.16,0,9.39,4Zm-38.26-4.56-4.74-3c2.79-4.48,9.25-4.07,10-4l-.47,5.57.23-2.78-.22,2.79C190.06,111.44,187.24,111.67,186.45,112.92Z"/></svg>