<svg id="Layer_1" data-name="Layer 1" xmlns="http://www.w3.org/2000/svg" viewBox="0 0 360 360"><defs><style>.cls-1{fill:#967a3d;}.cls-2{fill:#fff;}</style></defs><title>Family Owned Cookie</title><path class="cls-1" d="M75.51,154c-.58,0-2.09-.22-2.09-.22s1.42.56,2,.81,3.22,1.62,4.94,2.51l.72-2.91c-1.84,0-4.77-.17-5.54-.19m11.42,6.47-.85,3.43-16.43-8.67,1.14-4.63,18.5.33-.86,3.48L84,154.21l-1,4.21Z"/><polygon class="cls-1" points="94.11 139.19 78.27 130.59 79.97 127.47 93.08 134.57 96.08 129.04 98.81 130.52 94.11 139.19"/><path class="cls-1" d="M115.49,110.36l-2.91,3s-9-6.06-9.93-6.86c.83.84,7.17,9.72,7.17,9.72l-2.86,3-15.43-10,2.55-2.65s10.4,7.08,11.22,7.87c-.82-.79-8.32-10.88-8.32-10.88l2.56-2.66S110,108,110.78,108.77c-.82-.78-8.31-10.89-8.31-10.89l2.4-2.5Z"/><path class="cls-1" d="M126.28,87.21c-.38-.44-1.29-1.67-1.29-1.67s.58,1.42.77,2,1.07,3.45,1.61,5.3L130,91.34c-1.24-1.35-3.16-3.56-3.68-4.13m3.22,12.72-3.07,1.76-5.09-17.87,4.13-2.37L138,95l-3.1,1.79-3-3.34-3.76,2.15Z"/><path class="cls-1" d="M153.32,82.71,155.08,89l-3.42,1-1.76-6.2-7.84-9.82,3.55-1s4.88,6.49,5.07,7c-.13-.54.95-8.72.95-8.72l3.46-1Z"/><path class="cls-1" d="M177.37,86.13c-3.81.07-5.47-1.1-5.94-3.36a14.31,14.31,0,0,1-.15-2l3.47-.06a9.16,9.16,0,0,0,.16,1.44c.32.91,1,1.16,2.38,1.14,1.57,0,2.15-.65,2.12-2a2.81,2.81,0,0,0-1.93-2.53c-.8-.39-1.76-.88-2.58-1.26-2.38-1.14-3.72-2.41-3.77-5,0-2.79,1.91-4.64,5.65-4.71,3.54-.07,5.16,1.45,5.63,3.64a11.92,11.92,0,0,1,.23,1.88l-3.49.06A6.17,6.17,0,0,0,179,72c-.22-.82-.79-1.31-2.17-1.28s-2.15.56-2.13,1.63.55,1.82,2.45,2.7c.71.32,1.81.89,2.63,1.31a5.1,5.1,0,0,1,3.2,4.91c.06,3-1.68,4.84-5.6,4.91"/><polygon class="cls-1" points="222.86 96.52 227.69 86.18 220.35 95.35 217.26 93.92 219.69 82.46 214.89 92.82 211.89 91.43 219.49 75.06 223.79 77.06 221 90.03 229.18 79.57 233.36 81.51 225.76 97.87 222.86 96.52"/><path class="cls-1" d="M249.76,100c.29-.5,1.16-1.76,1.16-1.76s-1.16,1-1.63,1.38-2.92,2.12-4.5,3.23l2.25,2c.88-1.62,2.35-4.16,2.72-4.83m-11,7.17-2.66-2.33L251.36,94.2l3.58,3.14-8.78,16.29-2.69-2.37,2.18-3.9-3.25-2.85Z"/><path class="cls-1" d="M266.76,124.91a16.73,16.73,0,0,0,3.51-2.91,1.89,1.89,0,0,0-.19-2.17l-1.32-2-10,6.65,1.36,2a1.84,1.84,0,0,0,1.86,1,25.91,25.91,0,0,0,4.77-2.67M258,128.64l-3.6-5.4,15-10,3.41,5.11c1.26,1.89,1.5,3.36.95,4.71s-2.55,3-5.12,4.67c-3.15,2.1-5.22,3.29-6.74,3.29s-2.68-.53-3.91-2.38"/><polygon class="cls-1" points="266.57 144.86 283.62 138.99 286.9 148.51 283.85 149.56 281.72 143.36 277.73 144.73 279.76 150.63 276.78 151.66 274.75 145.76 270.72 147.15 272.87 153.41 269.87 154.44 266.57 144.86"/><polygon class="cls-1" points="287.72 188.61 283.53 188.24 283 194.27 279.83 193.99 280.37 187.96 272.96 187.3 273.27 183.77 291.24 185.37 290.35 195.33 287.14 195.05 287.72 188.61"/><path class="cls-1" d="M280.29,218.37a1.37,1.37,0,0,0,1.31-1l.95-2.66-4.39-1.56s-1,2.72-1,2.78a1.35,1.35,0,0,0,.19,1.37,4.69,4.69,0,0,0,1.37.75,6.6,6.6,0,0,0,1.56.36m-5.16,1.49a2.67,2.67,0,0,1-.85-2h-8.7l1.27-3.54,7.72.17.85-2.4-6.9-2.46,1.15-3.25,17,6.06L284.32,219a4,4,0,0,1-2.91,2.9,7.38,7.38,0,0,1-3.55-.52,7.64,7.64,0,0,1-2.73-1.53"/><path class="cls-1" d="M258.41,237.8c.37.82,2.43,2.47,3.81,3.43a16.88,16.88,0,0,0,4.31,2.31,2.17,2.17,0,0,0,2.31-1A2.06,2.06,0,0,0,269,240a17.27,17.27,0,0,0-3.67-3.25c-1.36-.94-3.63-2.25-4.56-2.34a2.08,2.08,0,0,0-2.08,1.07,2.14,2.14,0,0,0-.26,2.36m7.31,9.24a18.9,18.9,0,0,1-5.44-2.82,16.84,16.84,0,0,1-4.72-4.42c-1.06-1.54-1.11-3.62.64-6.13,1.38-2,3.23-3.25,5.49-2.76a18.51,18.51,0,0,1,5.75,2.9,15.81,15.81,0,0,1,4.53,4.25c.92,1.58,1.12,3.63-.63,6.15s-3.65,3.23-5.62,2.83"/><polygon class="cls-1" points="234.52 256.26 241.65 265.18 236.68 254.53 239.34 252.4 248.53 259.65 241.37 250.76 243.96 248.69 255.24 262.76 251.55 265.73 241.16 257.47 246.91 269.45 243.31 272.33 232.03 258.26 234.52 256.26"/><path class="cls-1" d="M199.52,271.73c3.72-.83,5.57,0,6.48,2.1a12,12,0,0,1,.56,2l-3.39.76a7.94,7.94,0,0,0-.45-1.39c-.48-.82-1.2-.94-2.56-.64-1.52.34-2,1.07-1.67,2.4a2.83,2.83,0,0,0,2.4,2.09l2.79.72c2.55.64,4.12,1.62,4.69,4.19s-1,4.92-4.6,5.74c-3.45.76-5.34-.39-6.23-2.45a13,13,0,0,1-.61-1.79l3.4-.76a7.56,7.56,0,0,0,.43,1.28c.38.75,1,1.11,2.39.81s2-1,1.76-2-.91-1.68-2.95-2.15c-.76-.18-2-.52-2.84-.76a5.11,5.11,0,0,1-4.11-4.17c-.66-3,.68-5.08,4.51-5.93"/><path class="cls-1" d="M169.45,276.81c1-2.08,2.66-3.09,5.67-2.94,2.65.13,4.26,1.14,5,2.77s1,4.32.87,6.83a15.44,15.44,0,0,1-1.33,6.28c-1,1.79-2.75,2.68-5.58,2.54-3.27-.16-5-1.72-5.4-4a12.86,12.86,0,0,1-.2-3.18l3.51.17a8,8,0,0,0,.3,2.63,2,2,0,0,0,2,1.26,2.27,2.27,0,0,0,2.21-1.1,20.52,20.52,0,0,0,.47-9.86,2.18,2.18,0,0,0-2.1-1.26,2,2,0,0,0-2.15,1.14,7.66,7.66,0,0,0-.55,2.45l-3.49-.17a11.26,11.26,0,0,1,.72-3.56"/><path class="cls-1" d="M144.61,282.61a1.37,1.37,0,0,0,1.1,1.27l2.68.85s1.34-4.27,1.4-4.44l-2.82-.88a1.31,1.31,0,0,0-1.35.24,4.22,4.22,0,0,0-.7,1.39,7,7,0,0,0-.31,1.57m-1.68-5.09a2.66,2.66,0,0,1,2-.92l-.34-8.69,3.59,1.13.12,7.71,2.42.76,2.19-7,3.3,1-5.4,17.2-6.66-2.1a3.93,3.93,0,0,1-3-2.79,7.34,7.34,0,0,1,.38-3.56,7.43,7.43,0,0,1,1.42-2.79"/><path class="cls-1" d="M121.12,269.73c-.21.54-.88,1.91-.88,1.91s1-1.17,1.41-1.6,2.56-2.53,4-3.87l-2.52-1.61c-.62,1.72-1.7,4.45-2,5.17m9.8-8.71,3,1.91L120.4,275.67l-4-2.56,6.27-17.39,3,1.93-1.58,4.18,3.64,2.34Z"/><polygon class="cls-1" points="99.02 253.97 109.73 243.74 112.17 246.3 101.46 256.53 104.16 259.36 101.83 261.58 93.98 253.36 96.31 251.13 99.02 253.97"/><path class="cls-1" d="M91.4,222.3c2.28-.28,4,.61,5.5,3.25,1.29,2.31,1.29,4.21.32,5.73s-3.13,3.13-5.33,4.36a15.35,15.35,0,0,1-6,2.19c-2.05.08-3.72-.91-5.1-3.38-1.6-2.85-1.17-5.11.52-6.68a12.81,12.81,0,0,1,2.59-1.86L85.6,229a7.75,7.75,0,0,0-2.07,1.65,2,2,0,0,0,0,2.36,2.27,2.27,0,0,0,2.1,1.3,14.74,14.74,0,0,0,4.48-1.83,14.76,14.76,0,0,0,4.12-3,2.19,2.19,0,0,0,0-2.44,2,2,0,0,0-2.11-1.22,7.48,7.48,0,0,0-2.37.83l-1.7-3a11.23,11.23,0,0,1,3.39-1.28"/><polygon class="cls-1" points="87.12 200.45 79.89 202.24 80.97 206.59 88.2 204.81 89.04 208.23 71.52 212.55 70.68 209.14 77.9 207.35 76.83 202.99 69.6 204.77 68.76 201.36 86.28 197.03 87.12 200.45"/><path class="cls-2" d="M188.87,186.81l1.71,35.65c-1.89.48-3.88-.16-5.88,0L183,186.81Z"/><path class="cls-1" d="M189,223.61c-.62,0-1.23-.05-1.83-.1a12.49,12.49,0,0,0-2.35-.08l-1,.08L182,185.84h7.82l1.8,37.37-.77.19A7.38,7.38,0,0,1,189,223.61Zm-3.34-2.14c.57,0,1.13.06,1.68.1a13.54,13.54,0,0,0,2.27.08l-1.63-33.87H184Z"/><path class="cls-1" d="M189,224.14c-.64,0-1.27-.06-1.89-.11a13.31,13.31,0,0,0-2.25-.08,1.49,1.49,0,0,1-1.11-.37,1.45,1.45,0,0,1-.51-1.05l-1.71-35.65a1.46,1.46,0,0,1,.41-1.1,1.51,1.51,0,0,1,1.08-.46h5.87a1.63,1.63,0,0,1,.67.15L221,201a1.5,1.5,0,0,1,.58,2.17c-.46.68-.87,1.33-1.25,2-.46.82-.88,1.69-1.33,2.62a20.56,20.56,0,0,1-3.66,5.87,37.91,37.91,0,0,1-8,5.71,31,31,0,0,1-7.94,2.89l-1.21.33a41.77,41.77,0,0,1-7.31,1.39A7.93,7.93,0,0,1,189,224.14ZM186.13,221c.41,0,.81.06,1.21.09.59,0,1.15.1,1.69.1l-1.59-32.85h-2.89Zm4.35-31.69L192,220.81a42.29,42.29,0,0,0,5.34-1.15l1.24-.33a28.4,28.4,0,0,0,7.2-2.57,35.1,35.1,0,0,0,7.4-5.24,18.26,18.26,0,0,0,3.1-5.05c.45-.94.91-1.91,1.43-2.83l.44-.73Zm-15.23,22.92a37.76,37.76,0,0,1-9.79-1,36.91,36.91,0,0,1-8.93-4.12c-.53-.31-1.07-.61-1.62-.91a28.7,28.7,0,0,1-6.63-4.54,26,26,0,0,1-4.23-6.28c-.37-.68-.73-1.35-1.11-2a36.47,36.47,0,0,1-3.59-9,37.4,37.4,0,0,1-1.15-9.61,36.63,36.63,0,0,1,1.36-9.56c.23-.86.42-1.74.61-2.61a22.75,22.75,0,0,1,2.23-6.79,30.86,30.86,0,0,1,5.36-6.31l1.12-1.09c.43-.43.85-.87,1.28-1.32a28.58,28.58,0,0,1,6.09-5.2,38.22,38.22,0,0,1,9.2-3.68,24.16,24.16,0,0,1,7.23-.44c1.75.07,3.55.06,5.31,0a22.84,22.84,0,0,1,7.08.39,28.41,28.41,0,0,1,7.15,3.41l1.65,1a36.09,36.09,0,0,1,13.91,13.47,38.55,38.55,0,0,1,4.18,8.93,38.62,38.62,0,0,1,.86,9.84c0,.56,0,1.13,0,1.7a29.94,29.94,0,0,1-.65,8.18,22.17,22.17,0,0,1-3.22,6.32l-.24.37a1.49,1.49,0,0,1-1.9.52l-29.68-14.44,1.62,33.23a1.49,1.49,0,0,1-1.35,1.55C176.71,212.16,176,212.19,175.25,212.19Zm-5.18-71.61a14.84,14.84,0,0,0-3.86.41,35.12,35.12,0,0,0-8.47,3.37,26.09,26.09,0,0,0-5.43,4.7L151,150.41l-1.14,1.12A28,28,0,0,0,145,157.2a20.56,20.56,0,0,0-1.9,5.92c-.19.9-.39,1.83-.63,2.74a33.07,33.07,0,0,0-1.27,8.8,33.64,33.64,0,0,0,1.06,8.84,33,33,0,0,0,3.28,8.31c.4.68.78,1.39,1.16,2.09a23.24,23.24,0,0,0,3.71,5.59,26.27,26.27,0,0,0,6,4l1.66.93a34.35,34.35,0,0,0,8.21,3.82,34,34,0,0,0,9.47.92L174,174.94a1.51,1.51,0,0,1,.67-1.32,1.49,1.49,0,0,1,1.47-.09l30.77,15a17.25,17.25,0,0,0,2.36-4.72,27.05,27.05,0,0,0,.54-7.37c0-.58,0-1.16,0-1.74a35.78,35.78,0,0,0-.76-9.07A35.21,35.21,0,0,0,192.37,145c-.56-.32-1.12-.66-1.68-1a26.09,26.09,0,0,0-6.39-3.09,20.41,20.41,0,0,0-6.16-.29c-1.8.08-3.72.09-5.57,0C171.72,140.61,170.88,140.58,170.07,140.58Zm30.7,67.13-.25-3,.13,1.49-.14-1.49a4.42,4.42,0,0,0,2.47-1.11l2.17,2A7.32,7.32,0,0,1,200.77,207.71Zm-34.31-10.26a10.44,10.44,0,0,1-5.23-1.86l1.71-2.45-.86,1.23.85-1.23a7.26,7.26,0,0,0,3.65,1.32l.15,3Zm-16.4-11.95c-.38-3.18,3.42-5.66,3.86-5.93l1.58,2.53c-1.11.7-2.58,2.14-2.47,3Zm51.11-9.08-.63-2.92a2.66,2.66,0,0,0,1.8-2.14l2.91.69A5.63,5.63,0,0,1,201.17,176.42Zm-9.67-3c-1.82-.44-4.43-2.89-4.94-3.37l2.07-2.16a13.2,13.2,0,0,0,3.58,2.63Zm-26.35-1.51H165l.14-3h0c.67,0,2.32-1.26,3.36-2.41l2.22,2C170,169.3,167.49,171.88,165.15,171.88Zm-13.66-5.49-2.88-.78c.75-2.77,4.77-3.83,5.57-4l.67,2.91-.34-1.46.35,1.46C153.41,164.84,151.68,165.7,151.49,166.39Zm39.06-10.11c-.3-.54-1.91-.83-2.91-.82l-.08-3c.71,0,4.28,0,5.59,2.34Zm-24.13-2.83-2.53-1.59c1.66-2.65,5.53-2.41,6-2.37l-.24,3C168.81,152.41,167,152.57,166.42,153.45Z"/></svg>