<svg id="Layer_1" data-name="Layer 1" xmlns="http://www.w3.org/2000/svg" viewBox="0 0 360 360"><defs><style>.cls-1{fill:#231f20;}</style></defs><title>Family Owned Smiley</title><path class="cls-1" d="M201.41,196.23a2.43,2.43,0,0,0-2.43,2.44c0,7.78-8.51,14.11-19,14.11s-19-6.33-19-14.11a2.44,2.44,0,1,0-4.87,0c0,10.46,10.7,19,23.85,19s23.85-8.52,23.85-19a2.44,2.44,0,0,0-2.44-2.44"/><path class="cls-1" d="M157.93,181.45a2.43,2.43,0,0,0,2.44-2.43,3.1,3.1,0,1,1,6.2,0,2.44,2.44,0,0,0,4.87,0,8,8,0,0,0-15.94,0,2.43,2.43,0,0,0,2.43,2.43"/><path class="cls-1" d="M191,181.45a2.43,2.43,0,0,0,2.43-2.43,3.11,3.11,0,1,1,6.21,0,2.44,2.44,0,0,0,4.87,0,8,8,0,0,0-15.94,0,2.43,2.43,0,0,0,2.43,2.43"/><path class="cls-1" d="M180,148.54a41.37,41.37,0,1,1-41.37,41.37A41.42,41.42,0,0,1,180,148.54m0,87.6a46.24,46.24,0,1,0-46.23-46.23A46.28,46.28,0,0,0,180,236.14"/><polygon class="cls-1" points="71.57 177.06 76.13 177.52 76.79 170.93 80.24 171.27 79.59 177.86 87.67 178.66 87.29 182.51 67.69 180.56 68.77 169.69 72.27 170.03 71.57 177.06"/><path class="cls-1" d="M80.73,148.23c-.62-.11-2.25-.52-2.25-.52s1.48.81,2,1.15,3.28,2.19,5,3.39l1.18-3.05c-2-.29-5.16-.83-6-1m11.5,8.56-1.38,3.62L74.2,148.78l1.87-4.87,20,2.87-1.4,3.65-4.83-.77-1.7,4.42Z"/><polygon class="cls-1" points="110.84 124.93 101.13 117.09 108.94 127.29 106.61 130.19 95.08 124.61 104.82 132.41 102.55 135.23 87.18 122.87 90.43 118.83 103.46 125.2 94.51 113.77 97.66 109.84 113.03 122.2 110.84 124.93"/><rect class="cls-1" x="117.97" y="93.82" width="3.92" height="19.72" transform="translate(-38.01 89.93) rotate(-35.87)"/><polygon class="cls-1" points="139.9 103.07 132.35 84.85 135.94 83.36 142.2 98.44 148.57 95.79 149.87 98.93 139.9 103.07"/><path class="cls-1" d="M167.26,87.83l1,7-3.85.56-1-7L156.3,76.67l4-.58s4.37,7.73,4.5,8.31c-.06-.59,2.28-9.3,2.28-9.3l3.87-.57Z"/><path class="cls-1" d="M214,95.89c.75-.63,1.88-3.29,2.48-5a18.2,18.2,0,0,0,1.16-5.22,2.35,2.35,0,0,0-1.79-2.12,2.24,2.24,0,0,0-2.7.59A18.9,18.9,0,0,0,210.77,89c-.6,1.72-1.3,4.49-1.12,5.5a2.24,2.24,0,0,0,1.74,1.86,2.33,2.33,0,0,0,2.56-.42m7.57-10.43A20.59,20.59,0,0,1,220.15,92a18.32,18.32,0,0,1-3.25,6.27c-1.31,1.57-3.48,2.24-6.65,1.14-2.48-.86-4.38-2.44-4.53-5a20.21,20.21,0,0,1,1.35-6.91,17.38,17.38,0,0,1,3.15-6c1.39-1.43,3.48-2.25,6.65-1.15s4.48,2.89,4.65,5.08"/><path class="cls-1" d="M241.64,117.29,238,114.5s5.47-10.53,6.23-11.64c-.81,1-9.68,9-9.68,9L231,109.11l8.94-18,3.19,2.45s-6.42,12.17-7.17,13.16c.75-1,10.8-10.39,10.8-10.39l3.2,2.46S243.53,111,242.77,112c.76-1,10.82-10.37,10.82-10.37l3,2.31Z"/><polygon class="cls-1" points="258.01 136.71 264.71 126.28 255.28 132.69 253.23 129.68 269.53 118.61 271.79 121.93 264.96 132.29 274.45 125.85 276.48 128.83 260.18 139.91 258.01 136.71"/><polygon class="cls-1" points="266.43 152.96 285.17 146.86 288.57 157.32 285.23 158.41 283.01 151.6 278.62 153.03 280.73 159.51 277.46 160.57 275.35 154.09 270.92 155.53 273.15 162.42 269.86 163.49 266.43 152.96"/><path class="cls-1" d="M282.92,185.84c1.42-.06,4.26-.31,4.94-.72a2,2,0,0,0,1.06-2.12l-.1-2.6-13.11.5.1,2.68a2,2,0,0,0,1.14,2c.81.34,4.46.29,6,.24m-10.31-1.54-.27-7.09,19.71-.76.25,6.72c.1,2.48-.52,4-1.79,4.93-1.43,1.05-4.07,1.31-7.45,1.43-4.14.16-6.75.09-8.17-.78s-2.19-2-2.28-4.45"/><path class="cls-1" d="M263.7,225.91c1.76-3.78,3.71-4.84,6.15-4.22a14.61,14.61,0,0,1,2.09.83L270.33,226a9.56,9.56,0,0,0-1.5-.54c-1-.13-1.62.42-2.26,1.79-.73,1.55-.4,2.42.95,3a3.1,3.1,0,0,0,3.42-.68c.77-.6,1.7-1.31,2.48-1.93,2.27-1.79,4.15-2.49,6.76-1.28,2.77,1.29,3.64,4.11,1.91,7.81-1.63,3.51-3.9,4.37-6.28,3.78a14.46,14.46,0,0,1-1.95-.67l1.61-3.46a8,8,0,0,0,1.39.49c.9.17,1.66-.16,2.3-1.53s.48-2.38-.58-2.87-2.06-.33-3.83,1.11c-.66.54-1.75,1.35-2.55,2a5.61,5.61,0,0,1-6.37.78c-3-1.39-3.94-4-2.13-7.86"/><rect class="cls-1" x="257.95" y="241.09" width="3.92" height="19.72" transform="translate(-98.52 296.28) rotate(-51.2)"/><polygon class="cls-1" points="234.02 262.07 244.8 268.23 237.9 259.13 240.8 256.93 252.72 272.65 249.52 275.08 238.8 268.79 245.74 277.95 242.85 280.14 230.94 264.41 234.02 262.07"/><path class="cls-1" d="M207.81,278.79c.07-2.51,1.32-4.26,4.41-5.41,2.72-1,4.77-.7,6.26.59s2.87,3.91,3.84,6.49a16.9,16.9,0,0,1,1.38,6.87c-.25,2.24-1.59,3.88-4.5,5-3.35,1.25-5.72.42-7.14-1.67a13.9,13.9,0,0,1-1.59-3.11l3.6-1.35a8.42,8.42,0,0,0,1.44,2.51,2.19,2.19,0,0,0,2.56.39,2.51,2.51,0,0,0,1.75-2.06,16.19,16.19,0,0,0-1.25-5.15,15.86,15.86,0,0,0-2.56-4.94,2.38,2.38,0,0,0-2.65-.36,2.17,2.17,0,0,0-1.66,2.08,8.06,8.06,0,0,0,.5,2.69l-3.58,1.34a12.47,12.47,0,0,1-.81-3.88"/><polygon class="cls-1" points="192.6 278.69 194.16 298.34 183.19 299.21 182.91 295.71 190.06 295.13 189.69 290.54 182.89 291.08 182.62 287.64 189.41 287.1 189.05 282.46 181.83 283.03 181.55 279.57 192.6 278.69"/><path class="cls-1" d="M148,273.72,142.58,288l3.39.8-1.05,2.78c-3-.8-4.16-.22-4.67.31l-2.74-1,7-18.5Z"/><path class="cls-1" d="M116.6,273.8a1.89,1.89,0,0,0,.73,2.63,1.78,1.78,0,0,0,2.36,0,18.16,18.16,0,0,0,2.3-3.23,1.76,1.76,0,0,0-.82-2.21,2.54,2.54,0,0,0-2.57-.26c-.53.81-1.73,2.6-2,3.11m10.45-11.28c2.62,1.83,3.25,3.87,2.37,6a13.9,13.9,0,0,1-1.07,1.82l-2.9-2c.11-.19.38-.55.57-.9.44-.84.06-1.59-.9-2.26a1.85,1.85,0,0,0-2.75.39c-.53.67-1.72,2.28-2.09,2.81a4.76,4.76,0,0,1,3.6,1c1.77,1.24,2.43,2.94,1.93,4.56a18.09,18.09,0,0,1-4,5.56c-1.72,1.21-3.92,1.27-6.34-.42-2.17-1.52-3.13-3.34-2.44-5.83a26.39,26.39,0,0,1,3.21-5.71,38,38,0,0,1,3.67-4.63c1.84-1.76,4.33-2.26,7.13-.29"/><path class="cls-1" d="M97.24,253.68l7.37-1.27-2.35-2.86Zm5.23-9,3.1-2.55,2.3,2.8-3.1,2.55,4.52,5.5-2.68,2.2-13.86,2.54-2.47-3,9.68-8-1.3-1.57,2.52-2.06Z"/><path class="cls-1" d="M86.85,225.47c-.56.38-.82,1.15-.34,2.24a2.47,2.47,0,0,0,2.3,1.59c.85-.41,2.47-1.18,3-1.48a2,2,0,0,0,.72-2.67c-.45-1-1.14-1.48-2.06-1.23a20,20,0,0,0-3.58,1.55m8.44-1.66c1.12,2.54,1.08,4.78-1,6.55a27.64,27.64,0,0,1-5.77,3.22,41.94,41.94,0,0,1-5.27,2c-2.38.67-5-.27-6.36-3.43s-.64-5.12,1-6.35a17.52,17.52,0,0,1,1.94-1L81.35,228c-.2.09-.67.32-.84.42-.79.49-1.12,1.17-.57,2.42s1.54,1.52,2.82,1c.72-.26,2.47-1,3.06-1.24a5.13,5.13,0,0,1-2.63-2.88c-.89-2-.75-3.63.8-5a19.33,19.33,0,0,1,6.06-2.62c2.31-.23,4,.82,5.24,3.64"/></svg>