<svg id="Layer_1" data-name="Layer 1" xmlns="http://www.w3.org/2000/svg" viewBox="0 0 360 360"><defs><style>.cls-1{fill:#dbcfc2;}.cls-2{fill:#967a3d;}.cls-3{fill:#231f20;}</style></defs><title>Fresh Banner</title><polygon class="cls-1" points="147.78 73.29 147.78 248.53 194.76 230.53 241.21 248.53 241.21 73.29 147.78 73.29"/><rect class="cls-2" x="101.12" y="70.43" width="156.29" height="5.74"/><path class="cls-2" d="M228.58,252.72l-49.32-19.11L129.42,252.7V70.43h99.16ZM135.16,76.16v168.2l44.11-16.9,43.58,16.88V76.16Z"/><path class="cls-3" d="M178.28,105.37v3.53h8.95v2.73h-8.95V117h-3.34V102.34h13.53v3Z"/><path class="cls-3" d="M182.23,134.31H178v5.16H174.7V124.81h7.13a7.83,7.83,0,0,1,4.91,1.25,4.74,4.74,0,0,1,.9,6,4.55,4.55,0,0,1-2,1.65l3.71,5.78h-3.84ZM178,132H182a3.47,3.47,0,0,0,2.2-.65,2,2,0,0,0,.82-1.57,1.58,1.58,0,0,0-.79-1.57,5.9,5.9,0,0,0-2.43-.38H178Z"/><path class="cls-3" d="M188.47,158.91v3H174.94V147.27h13v3h-9.68V153h9.19v2.75h-9.19v3.16Z"/><path class="cls-3" d="M175.23,171.74a5.5,5.5,0,0,1,2.47-1.62,11.91,11.91,0,0,1,3.93-.57,19,19,0,0,1,3.47.31,12.89,12.89,0,0,1,2.42.62v3.2a16.24,16.24,0,0,0-5.8-1.11c-2.67,0-4,.52-4,1.57a.8.8,0,0,0,.52.75,5.89,5.89,0,0,0,1.72.41l4.31.56a6.25,6.25,0,0,1,3.37,1.29,3.25,3.25,0,0,1,1.14,2.53,4.1,4.1,0,0,1-1.92,3.57,9.83,9.83,0,0,1-5.58,1.31,17,17,0,0,1-3.65-.38,13.14,13.14,0,0,1-2.49-.7v-3.27a12.5,12.5,0,0,0,2.59.88,14.35,14.35,0,0,0,3.45.45,9.22,9.22,0,0,0,3.18-.42c.73-.28,1.09-.7,1.09-1.27a.84.84,0,0,0-.48-.76,5.21,5.21,0,0,0-1.78-.46l-4.43-.58a6.25,6.25,0,0,1-3.27-1.22,3.25,3.25,0,0,1-1.1-2.64A3.81,3.81,0,0,1,175.23,171.74Z"/><path class="cls-3" d="M188.47,192.19v14.66h-3.33v-6.24H178v6.24H174.7V192.19H178v5.39h7.11v-5.39Z"/><polygon class="cls-1" points="147.78 73.29 147.78 248.53 194.76 230.53 241.21 248.53 241.21 73.29 147.78 73.29"/><rect class="cls-2" x="101.12" y="70.43" width="156.29" height="5.74"/><path class="cls-2" d="M228.58,252.72l-49.32-19.11L129.42,252.7V70.43h99.16ZM135.16,76.16v168.2l44.11-16.9,43.58,16.88V76.16Z"/><path class="cls-3" d="M178.28,105.37v3.53h8.95v2.73h-8.95V117h-3.34V102.34h13.53v3Z"/><path class="cls-3" d="M182.23,134.31H178v5.16H174.7V124.81h7.13a7.83,7.83,0,0,1,4.91,1.25,4.74,4.74,0,0,1,.9,6,4.55,4.55,0,0,1-2,1.65l3.71,5.78h-3.84ZM178,132H182a3.47,3.47,0,0,0,2.2-.65,2,2,0,0,0,.82-1.57,1.58,1.58,0,0,0-.79-1.57,5.9,5.9,0,0,0-2.43-.38H178Z"/><path class="cls-3" d="M188.47,158.91v3H174.94V147.27h13v3h-9.68V153h9.19v2.75h-9.19v3.16Z"/><path class="cls-3" d="M175.23,171.74a5.5,5.5,0,0,1,2.47-1.62,11.91,11.91,0,0,1,3.93-.57,19,19,0,0,1,3.47.31,12.89,12.89,0,0,1,2.42.62v3.2a16.24,16.24,0,0,0-5.8-1.11c-2.67,0-4,.52-4,1.57a.8.8,0,0,0,.52.75,5.89,5.89,0,0,0,1.72.41l4.31.56a6.25,6.25,0,0,1,3.37,1.29,3.25,3.25,0,0,1,1.14,2.53,4.1,4.1,0,0,1-1.92,3.57,9.83,9.83,0,0,1-5.58,1.31,17,17,0,0,1-3.65-.38,13.14,13.14,0,0,1-2.49-.7v-3.27a12.5,12.5,0,0,0,2.59.88,14.35,14.35,0,0,0,3.45.45,9.22,9.22,0,0,0,3.18-.42c.73-.28,1.09-.7,1.09-1.27a.84.84,0,0,0-.48-.76,5.21,5.21,0,0,0-1.78-.46l-4.43-.58a6.25,6.25,0,0,1-3.27-1.22,3.25,3.25,0,0,1-1.1-2.64A3.81,3.81,0,0,1,175.23,171.74Z"/><path class="cls-3" d="M188.47,192.19v14.66h-3.33v-6.24H178v6.24H174.7V192.19H178v5.39h7.11v-5.39Z"/></svg>