<svg id="Layer_1" data-name="Layer 1" xmlns="http://www.w3.org/2000/svg" viewBox="0 0 360 360"><defs><style>.cls-1{fill:#e0d9cc;}.cls-2,.cls-5{fill:none;}.cls-2{stroke:#231f20;stroke-miterlimit:6.22;stroke-width:1.91px;}.cls-3{fill:#231f20;}.cls-4{fill:#967a3d;}.cls-5{stroke:#967a3d;stroke-miterlimit:10;stroke-width:0.34px;}</style></defs><title>Fresh Daily</title><path class="cls-1" d="M177.39,284A109.42,109.42,0,1,0,68,174.53,109.42,109.42,0,0,0,177.39,284"/><path class="cls-2" d="M116.31,180.66v10.65h-7V162.4h18.88v6.69H116.31V174h10v6.69Z"/><path class="cls-2" d="M158.79,191.31h-8.13l-5.79-10.49H143v10.49h-7V162.4h11.35c6.65,0,9.63,4.42,9.63,9a8.14,8.14,0,0,1-5.29,7.6ZM143,174.71h3.55c2,0,3.38-1.15,3.38-3.05s-1.19-2.81-3.13-2.81H143Z"/><path class="cls-2" d="M172.62,169.09v4.38h10v6.69h-10v4.46H184.8v6.69H165.6V162.4h18.87v6.69Z"/><path class="cls-2" d="M202.51,192a14.1,14.1,0,0,1-11.11-5.33l4.71-5a8.67,8.67,0,0,0,6.85,3.47c1.86,0,3.22-.74,3.22-2.06,0-1.82-2.47-2.28-5.37-3.06-4-1.07-8.67-2.73-8.67-8.67,0-6.16,5.21-9.63,10.74-9.63a12.5,12.5,0,0,1,9.79,4.67l-4.5,4.75a7.33,7.33,0,0,0-5.7-2.68c-1.82,0-3.31.7-3.31,2.18,0,2,2.48,2.52,5.29,3.27,4,1,8.8,2.43,8.8,8.46C213.25,188.63,208.13,192,202.51,192Z"/><path class="cls-2" d="M220.67,162.4h7v11.07H238.1V162.4h7v28.91h-7V180.16H227.69v11.15h-7Z"/><path class="cls-2" d="M109.28,200.05h10.58c9.7,0,14.49,7,14.49,14.13,0,7.31-5.12,14.79-15.24,14.79h-9.83Zm7,6.7v15.52h3.3c5.16,0,7.72-3.84,7.72-7.84s-2.52-7.68-7.43-7.68Z"/><path class="cls-2" d="M158.3,223.6H147.89L146,229h-7.48l11.28-28.92h6.69L167.71,229h-7.47Zm-2.4-6.53-2.81-7.72-2.81,7.72Z"/><path class="cls-2" d="M174.27,200.05h7V229h-7Z"/><path class="cls-2" d="M208.29,222.27V229H190.37V200.05h7v22.22Z"/><path class="cls-2" d="M228.27,216.7V229h-7V216.7l-10.9-16.65h8.46l5.95,10.29,6-10.29h8.47Z"/><path class="cls-3" d="M107.08,143.69c2,0,2.27-1.29,2.27-3.18v-8.62c0-1.9-.22-3.19-2.27-3.19v-.23l7.93-.76v3.12c1.52-1.64,3.45-3.12,6-3.12a4.14,4.14,0,0,1,4.29,3.19c1.55-1.67,3.49-3.19,6-3.19s4.56,1.48,4.56,5.2v7.6c0,1.89.23,3.18,2.28,3.18v.23h-10v-.23c1.59,0,1.89-1.29,1.89-3.18v-8.28c0-1.86-.83-2.62-2-2.62a3.87,3.87,0,0,0-2.7,1.52,7.9,7.9,0,0,1,.19,1.78v7.6c0,1.89.16,3.18,2,3.18v.23h-9.79v-.23c1.6,0,1.9-1.29,1.9-3.18v-8.28c0-1.86-.84-2.62-2-2.62a3.74,3.74,0,0,0-2.5,1.33v9.57c0,1.89.3,3.18,1.9,3.18v.23h-10Z"/><path class="cls-3" d="M139.77,139.86c0-3.23,3-4.44,6.68-4.44a17.93,17.93,0,0,1,4.14.49v-4c0-2.17-.46-4-2.93-4a3.83,3.83,0,0,0-3.22,1.67,3.06,3.06,0,0,1,1.67,2.7,2.79,2.79,0,0,1-2.89,2.77,2.74,2.74,0,0,1-2.73-2.85c0-2.5,3-4.48,7.51-4.48,4,0,8.62,1.6,8.62,6.15V142a.92.92,0,0,0,1,1.06c.95,0,1.82-1,2.43-1.86l.19.11c-1.07,1.52-2.36,3-5,3a4.23,4.23,0,0,1-4.29-2.66,6.47,6.47,0,0,1-5.58,2.7C142.05,144.34,139.77,142.67,139.77,139.86Zm10.82,1.78v-5.42a7.31,7.31,0,0,0-1.83-.31c-2,0-2.81,1.37-2.81,3.65,0,1.86.57,3.53,2.21,3.53A3.15,3.15,0,0,0,150.59,141.64Z"/><path class="cls-3" d="M160.54,136.1c0-4.51,2.77-8.39,8.08-8.39a7.74,7.74,0,0,1,3.76.88v-5.85c0-2.31-1-3.19-3-3.19v-.22l9.08-.76v21.94c0,1.89.22,3.18,2.27,3.18v.23h-8.12v-2a6.51,6.51,0,0,1-5.12,2.43C163,144.34,160.54,140.39,160.54,136.1Zm11.84,5.62v-11.8a2.84,2.84,0,0,0-2.39-1.86c-2.58,0-3.15,5-3.15,7.81,0,4,1.14,6.87,3.38,6.87A3.08,3.08,0,0,0,172.38,141.72Z"/><path class="cls-3" d="M182.29,136.06c0-4.59,3.53-8.35,9-8.35,4.86,0,8,3,8.16,7.6h-11c0,5,2,8.08,5.43,8.08a7,7,0,0,0,5.31-3l.19.15a9.5,9.5,0,0,1-8,3.76C185.41,144.34,182.29,140.39,182.29,136.06Zm6.19-1.06h5.12c0-1.56,0-7.1-2.39-7.1C189.13,127.9,188.48,132.15,188.48,135Z"/><path class="cls-4" d="M277.68,118.21a4,4,0,0,1-4-3.95,1.55,1.55,0,0,0-3.09,0,4,4,0,0,1-7.94,0,1.55,1.55,0,0,0-3.1,0,4,4,0,1,1-7.94,0,1.55,1.55,0,1,0-3.09,0,4,4,0,0,1-7.95,0,1.55,1.55,0,0,0-3.09,0,4,4,0,0,1-7.94,0,1.55,1.55,0,0,0-3.1,0,4,4,0,1,1-4-4A1.54,1.54,0,0,0,224,109c0-6.37,11.87-11.81,26-11.88s26.07,5.26,26.1,11.63a1.55,1.55,0,0,0,1.56,1.54,4,4,0,1,1,0,7.94m-5.89,12.58a12.2,12.2,0,0,1-10.93,7l-21.35.11a12.23,12.23,0,0,1-11-6.84l-4.66-9.58a7,7,0,0,0,4.16-2.55,7,7,0,0,0,11,0,7.06,7.06,0,0,0,11,0,7.06,7.06,0,0,0,11-.06,7,7,0,0,0,11,0,7.06,7.06,0,0,0,4.18,2.51Zm12.94-16.59a7.07,7.07,0,0,0-5.68-6.89C277.67,99.67,265.38,93.94,250,94S222.33,99.94,221,107.59a7.06,7.06,0,0,0-.69,13.64l5.4,11.13a15.33,15.33,0,0,0,13.79,8.58l21.36-.1a15.31,15.31,0,0,0,13.7-8.72l5.3-11.18a7.05,7.05,0,0,0,4.85-6.74"/><path class="cls-5" d="M277.68,118.21a4,4,0,0,1-4-3.95,1.55,1.55,0,0,0-3.09,0,4,4,0,0,1-7.94,0,1.55,1.55,0,0,0-3.1,0,4,4,0,1,1-7.94,0,1.55,1.55,0,1,0-3.09,0,4,4,0,0,1-7.95,0,1.55,1.55,0,0,0-3.09,0,4,4,0,0,1-7.94,0,1.55,1.55,0,0,0-3.1,0,4,4,0,1,1-4-4A1.54,1.54,0,0,0,224,109c0-6.37,11.87-11.81,26-11.88s26.07,5.26,26.1,11.63a1.55,1.55,0,0,0,1.56,1.54,4,4,0,1,1,0,7.94Zm-5.89,12.58a12.2,12.2,0,0,1-10.93,7l-21.35.11a12.23,12.23,0,0,1-11-6.84l-4.66-9.58a7,7,0,0,0,4.16-2.55,7,7,0,0,0,11,0,7.06,7.06,0,0,0,11,0,7.06,7.06,0,0,0,11-.06,7,7,0,0,0,11,0,7.06,7.06,0,0,0,4.18,2.51Zm12.94-16.59a7.07,7.07,0,0,0-5.68-6.89C277.67,99.67,265.38,93.94,250,94S222.33,99.94,221,107.59a7.06,7.06,0,0,0-.69,13.64l5.4,11.13a15.33,15.33,0,0,0,13.79,8.58l21.36-.1a15.31,15.31,0,0,0,13.7-8.72l5.3-11.18A7.05,7.05,0,0,0,284.73,114.2Z"/><path class="cls-4" d="M250.25,97.75H250a44.91,44.91,0,0,0-18,3.52c-4.66,2.13-7.33,4.93-7.31,7.7a2.2,2.2,0,0,1-2.19,2.21,3.29,3.29,0,0,0-2.34,1,3.32,3.32,0,0,0,2.36,5.67h0a3.33,3.33,0,0,0,3.31-3.34,2.17,2.17,0,0,1,.63-1.56,2.23,2.23,0,0,1,1.55-.65h0a2.17,2.17,0,0,1,1.54.64,2.15,2.15,0,0,1,.65,1.55,3.34,3.34,0,0,0,3.33,3.31h0a3.33,3.33,0,0,0,3.31-3.35,2.17,2.17,0,0,1,.64-1.55,2.15,2.15,0,0,1,1.55-.65h0a2.2,2.2,0,0,1,2.2,2.18,3.31,3.31,0,0,0,3.32,3.31h0a3.33,3.33,0,0,0,3.31-3.34,2.2,2.2,0,0,1,2.18-2.2h0a2.2,2.2,0,0,1,2.2,2.18,3.31,3.31,0,0,0,3.32,3.31h0a3.34,3.34,0,0,0,3.31-3.34,2.2,2.2,0,0,1,2.18-2.21h0a2.2,2.2,0,0,1,2.19,2.19,3.33,3.33,0,0,0,6.65,0,2.22,2.22,0,0,1,.64-1.56,2.14,2.14,0,0,1,1.54-.65h0a2.2,2.2,0,0,1,2.19,2.18,3.33,3.33,0,0,0,3.32,3.31h0a3.33,3.33,0,0,0,0-6.65h0a2.2,2.2,0,0,1-1.55-.63,2.25,2.25,0,0,1-.65-1.55c0-5.88-11.77-11-25.19-11m-27.77,21.37a4.63,4.63,0,0,1-4.62-4.59,4.63,4.63,0,0,1,4.6-4.64.93.93,0,0,0,.64-.27.89.89,0,0,0,.25-.64c0-3.35,2.85-6.51,8.07-8.89A46.33,46.33,0,0,1,250,96.46h.29c14.59,0,26.43,5.47,26.47,12.26a.9.9,0,0,0,.26.64,1,1,0,0,0,.64.26h0a4.62,4.62,0,0,1,0,9.23h0a4.61,4.61,0,0,1-4.61-4.59.91.91,0,0,0-1.81,0,4.61,4.61,0,0,1-4.59,4.64h0a4.63,4.63,0,0,1-4.62-4.6.9.9,0,0,0-.9-.89h0a.9.9,0,0,0-.9.9,4.62,4.62,0,0,1-9.24.05.9.9,0,0,0-.9-.9.77.77,0,0,0-.64.27.88.88,0,0,0-.26.63,4.62,4.62,0,0,1-4.59,4.64h0a4.61,4.61,0,0,1-4.61-4.59,1,1,0,0,0-.91-.9.91.91,0,0,0-.9.91,4.61,4.61,0,0,1-4.59,4.64h0a4.62,4.62,0,0,1-4.62-4.6.89.89,0,0,0-.27-.63.71.71,0,0,0-.63-.26.88.88,0,0,0-.64.26.9.9,0,0,0-.26.64,4.63,4.63,0,0,1-4.6,4.64Zm2.31,2.74,4.31,8.86a11.48,11.48,0,0,0,10.41,6.48l21.35-.1a11.57,11.57,0,0,0,10.34-6.58l4.22-8.9a7.87,7.87,0,0,1-3.25-2,7.65,7.65,0,0,1-5.5,2.36h0a7.71,7.71,0,0,1-5.5-2.3,7.64,7.64,0,0,1-5.5,2.35,7.82,7.82,0,0,1-5.53-2.3,7.66,7.66,0,0,1-5.51,2.36h0a7.65,7.65,0,0,1-5.49-2.31,7.66,7.66,0,0,1-5.51,2.36,7.78,7.78,0,0,1-5.53-2.3,7.82,7.82,0,0,1-3.23,2m14.66,16.63a12.85,12.85,0,0,1-11.51-7.2l-5-10.33.82-.16a6.42,6.42,0,0,0,3.77-2.32l.51-.63.5.63a6.41,6.41,0,0,0,10,0l.5-.64.51.63a6.49,6.49,0,0,0,5,2.4,6.4,6.4,0,0,0,5-2.45l.5-.63.51.63a6.4,6.4,0,0,0,10-.05l.51-.63.5.63a6.31,6.31,0,0,0,5,2.39,6.4,6.4,0,0,0,5-2.44l.5-.64.51.63a6.48,6.48,0,0,0,3.8,2.29l.82.15-4.92,10.37a12.87,12.87,0,0,1-11.51,7.32l-21.35.1Zm10.82-43.83H250c-14.89.07-27.06,5.67-28.32,13l-.07.43-.43.09a6.42,6.42,0,0,0-.64,12.4l.27.08,5.52,11.38a14.83,14.83,0,0,0,13.21,8.22l21.35-.11A14.66,14.66,0,0,0,274,131.85l5.42-11.43.26-.09a6.42,6.42,0,0,0-.75-12.39l-.43-.08-.08-.44c-1.33-7.3-13.41-12.76-28.15-12.76m-10.82,46.93a16,16,0,0,1-14.3-9l-5.29-10.88a7.71,7.71,0,0,1,.61-14.7c1.74-7.89,14-13.62,29.5-13.69h.3c15.34,0,27.53,5.6,29.33,13.41a7.71,7.71,0,0,1,.75,14.69l-5.18,10.94a16,16,0,0,1-14.29,9.09l-21.35.1Z"/><path class="cls-5" d="M250.25,97.75H250a44.91,44.91,0,0,0-18,3.52c-4.66,2.13-7.33,4.93-7.31,7.7a2.2,2.2,0,0,1-2.19,2.21,3.29,3.29,0,0,0-2.34,1,3.32,3.32,0,0,0,2.36,5.67h0a3.33,3.33,0,0,0,3.31-3.34,2.17,2.17,0,0,1,.63-1.56,2.23,2.23,0,0,1,1.55-.65h0a2.17,2.17,0,0,1,1.54.64,2.15,2.15,0,0,1,.65,1.55,3.34,3.34,0,0,0,3.33,3.31h0a3.33,3.33,0,0,0,3.31-3.35,2.17,2.17,0,0,1,.64-1.55,2.15,2.15,0,0,1,1.55-.65h0a2.2,2.2,0,0,1,2.2,2.18,3.31,3.31,0,0,0,3.32,3.31h0a3.33,3.33,0,0,0,3.31-3.34,2.2,2.2,0,0,1,2.18-2.2h0a2.2,2.2,0,0,1,2.2,2.18,3.31,3.31,0,0,0,3.32,3.31h0a3.34,3.34,0,0,0,3.31-3.34,2.2,2.2,0,0,1,2.18-2.21h0a2.2,2.2,0,0,1,2.19,2.19,3.33,3.33,0,0,0,6.65,0,2.22,2.22,0,0,1,.64-1.56,2.14,2.14,0,0,1,1.54-.65h0a2.2,2.2,0,0,1,2.19,2.18,3.33,3.33,0,0,0,3.32,3.31h0a3.33,3.33,0,0,0,0-6.65h0a2.2,2.2,0,0,1-1.55-.63,2.25,2.25,0,0,1-.65-1.55C275.42,102.85,263.67,97.75,250.25,97.75Zm-27.77,21.37a4.63,4.63,0,0,1-4.62-4.59,4.63,4.63,0,0,1,4.6-4.64.93.93,0,0,0,.64-.27.89.89,0,0,0,.25-.64c0-3.35,2.85-6.51,8.07-8.89A46.33,46.33,0,0,1,250,96.46h.29c14.59,0,26.43,5.47,26.47,12.26a.9.9,0,0,0,.26.64,1,1,0,0,0,.64.26h0a4.62,4.62,0,0,1,0,9.23h0a4.61,4.61,0,0,1-4.61-4.59.91.91,0,0,0-1.81,0,4.61,4.61,0,0,1-4.59,4.64h0a4.63,4.63,0,0,1-4.62-4.6.9.9,0,0,0-.9-.89h0a.9.9,0,0,0-.9.9,4.62,4.62,0,0,1-9.24.05.9.9,0,0,0-.9-.9.77.77,0,0,0-.64.27.88.88,0,0,0-.26.63,4.62,4.62,0,0,1-4.59,4.64h0a4.61,4.61,0,0,1-4.61-4.59,1,1,0,0,0-.91-.9.91.91,0,0,0-.9.91,4.61,4.61,0,0,1-4.59,4.64h0a4.62,4.62,0,0,1-4.62-4.6.89.89,0,0,0-.27-.63.71.71,0,0,0-.63-.26.88.88,0,0,0-.64.26.9.9,0,0,0-.26.64,4.63,4.63,0,0,1-4.6,4.64Zm2.31,2.74,4.31,8.86a11.48,11.48,0,0,0,10.41,6.48l21.35-.1a11.57,11.57,0,0,0,10.34-6.58l4.22-8.9a7.87,7.87,0,0,1-3.25-2,7.65,7.65,0,0,1-5.5,2.36h0a7.71,7.71,0,0,1-5.5-2.3,7.64,7.64,0,0,1-5.5,2.35,7.82,7.82,0,0,1-5.53-2.3,7.66,7.66,0,0,1-5.51,2.36h0a7.65,7.65,0,0,1-5.49-2.31,7.66,7.66,0,0,1-5.51,2.36,7.78,7.78,0,0,1-5.53-2.3A7.82,7.82,0,0,1,224.79,121.86Zm14.66,16.63a12.85,12.85,0,0,1-11.51-7.2l-5-10.33.82-.16a6.42,6.42,0,0,0,3.77-2.32l.51-.63.5.63a6.41,6.41,0,0,0,10,0l.5-.64.51.63a6.49,6.49,0,0,0,5,2.4,6.4,6.4,0,0,0,5-2.45l.5-.63.51.63a6.4,6.4,0,0,0,10-.05l.51-.63.5.63a6.31,6.31,0,0,0,5,2.39,6.4,6.4,0,0,0,5-2.44l.5-.64.51.63a6.48,6.48,0,0,0,3.8,2.29l.82.15-4.92,10.37a12.87,12.87,0,0,1-11.51,7.32l-21.35.1Zm10.82-43.83H250c-14.89.07-27.06,5.67-28.32,13l-.07.43-.43.09a6.42,6.42,0,0,0-.64,12.4l.27.08,5.52,11.38a14.83,14.83,0,0,0,13.21,8.22l21.35-.11A14.66,14.66,0,0,0,274,131.85l5.42-11.43.26-.09a6.42,6.42,0,0,0-.75-12.39l-.43-.08-.08-.44C277.09,100.12,265,94.66,250.27,94.66Zm-10.82,46.93a16,16,0,0,1-14.3-9l-5.29-10.88a7.71,7.71,0,0,1,.61-14.7c1.74-7.89,14-13.62,29.5-13.69h.3c15.34,0,27.53,5.6,29.33,13.41a7.71,7.71,0,0,1,.75,14.69l-5.18,10.94a16,16,0,0,1-14.29,9.09l-21.35.1Z"/><path class="cls-4" d="M250,98.16a1.56,1.56,0,0,0-1.54,1.56l0,3.19a1.55,1.55,0,1,0,3.09,0V99.7A1.55,1.55,0,0,0,250,98.16"/><path class="cls-5" d="M250,98.16a1.56,1.56,0,0,0-1.54,1.56l0,3.19a1.55,1.55,0,1,0,3.09,0V99.7A1.55,1.55,0,0,0,250,98.16Z"/><path class="cls-4" d="M250,98.81a.9.9,0,0,0-.9.9v3.2a1,1,0,0,0,.27.64,1,1,0,0,0,.64.26.91.91,0,0,0,.64-.27.9.9,0,0,0,.26-.64l0-3.2a.89.89,0,0,0-.26-.63.7.7,0,0,0-.64-.26m0,6.29a2.22,2.22,0,0,1-2.2-2.18v-3.2a2.13,2.13,0,0,1,.63-1.55,2.16,2.16,0,0,1,1.55-.65h0a2.16,2.16,0,0,1,1.54.63,2.2,2.2,0,0,1,.66,1.55v3.2a2.2,2.2,0,0,1-.63,1.55,2.18,2.18,0,0,1-1.55.65Z"/><path class="cls-5" d="M250,98.81a.9.9,0,0,0-.9.9v3.2a1,1,0,0,0,.27.64,1,1,0,0,0,.64.26.91.91,0,0,0,.64-.27.9.9,0,0,0,.26-.64l0-3.2a.89.89,0,0,0-.26-.63A.7.7,0,0,0,250,98.81Zm0,6.29a2.22,2.22,0,0,1-2.2-2.18v-3.2a2.13,2.13,0,0,1,.63-1.55,2.16,2.16,0,0,1,1.55-.65h0a2.16,2.16,0,0,1,1.54.63,2.2,2.2,0,0,1,.66,1.55v3.2a2.2,2.2,0,0,1-.63,1.55,2.18,2.18,0,0,1-1.55.65Z"/><path class="cls-4" d="M259.15,99.7a1.55,1.55,0,1,0-2.58,1.71l1.76,2.66a1.57,1.57,0,0,0,1.3.7,1.66,1.66,0,0,0,.85-.26,1.55,1.55,0,0,0,.43-2.15Z"/><path class="cls-5" d="M259.15,99.7a1.55,1.55,0,1,0-2.58,1.71l1.76,2.66a1.57,1.57,0,0,0,1.3.7,1.66,1.66,0,0,0,.85-.26,1.55,1.55,0,0,0,.43-2.15Z"/><path class="cls-4" d="M257.86,99.65a.91.91,0,0,0-.5.15.86.86,0,0,0-.38.57.9.9,0,0,0,.13.68l1.76,2.67a.91.91,0,0,0,.75.4h0a.86.86,0,0,0,.49-.15.92.92,0,0,0,.39-.57,1,1,0,0,0-.13-.68l-1.77-2.67a.9.9,0,0,0-.75-.4m1.76,5.76a2.21,2.21,0,0,1-1.83-1L256,101.76a2.19,2.19,0,1,1,3.66-2.42l1.76,2.67a2.14,2.14,0,0,1,.32,1.65,2.2,2.2,0,0,1-.93,1.39,2.25,2.25,0,0,1-1.2.36Z"/><path class="cls-5" d="M257.86,99.65a.91.91,0,0,0-.5.15.86.86,0,0,0-.38.57.9.9,0,0,0,.13.68l1.76,2.67a.91.91,0,0,0,.75.4h0a.86.86,0,0,0,.49-.15.92.92,0,0,0,.39-.57,1,1,0,0,0-.13-.68l-1.77-2.67A.9.9,0,0,0,257.86,99.65Zm1.76,5.76a2.21,2.21,0,0,1-1.83-1L256,101.76a2.19,2.19,0,1,1,3.66-2.42l1.76,2.67a2.14,2.14,0,0,1,.32,1.65,2.2,2.2,0,0,1-.93,1.39,2.25,2.25,0,0,1-1.2.36Z"/><path class="cls-4" d="M267.4,101.78a1.55,1.55,0,0,0-2.18,2.2l2.27,2.25a1.57,1.57,0,0,0,1.1.45,1.51,1.51,0,0,0,1.09-.46,1.54,1.54,0,0,0,0-2.18Z"/><path class="cls-5" d="M267.4,101.78a1.55,1.55,0,0,0-2.18,2.2l2.27,2.25a1.57,1.57,0,0,0,1.1.45,1.51,1.51,0,0,0,1.09-.46,1.54,1.54,0,0,0,0-2.18Z"/><path class="cls-4" d="M266.31,102h0a.89.89,0,0,0-.64.27.91.91,0,0,0,0,1.28l2.28,2.24a.87.87,0,0,0,.63.26.88.88,0,0,0,.64-.26.9.9,0,0,0,0-1.28l-2.27-2.25a.92.92,0,0,0-.63-.26m2.27,5.35a2.17,2.17,0,0,1-1.54-.64l-2.28-2.25a2.2,2.2,0,0,1,0-3.1,2.15,2.15,0,0,1,1.55-.65h0a2.17,2.17,0,0,1,1.54.64l2.27,2.25a2.14,2.14,0,0,1,.65,1.54,2.17,2.17,0,0,1-.63,1.56,2.23,2.23,0,0,1-1.55.65Z"/><path class="cls-5" d="M266.31,102h0a.89.89,0,0,0-.64.27.91.91,0,0,0,0,1.28l2.28,2.24a.87.87,0,0,0,.63.26.88.88,0,0,0,.64-.26.9.9,0,0,0,0-1.28l-2.27-2.25A.92.92,0,0,0,266.31,102Zm2.27,5.35a2.17,2.17,0,0,1-1.54-.64l-2.28-2.25a2.2,2.2,0,0,1,0-3.1,2.15,2.15,0,0,1,1.55-.65h0a2.17,2.17,0,0,1,1.54.64l2.27,2.25a2.14,2.14,0,0,1,.65,1.54,2.17,2.17,0,0,1-.63,1.56,2.23,2.23,0,0,1-1.55.65Z"/><path class="cls-4" d="M243,99.33a1.54,1.54,0,0,0-2.14.46l-1.73,2.68a1.54,1.54,0,0,0,.45,2.14,1.58,1.58,0,0,0,.85.25,1.55,1.55,0,0,0,1.29-.71l1.74-2.68a1.54,1.54,0,0,0-.46-2.14"/><path class="cls-5" d="M243,99.33a1.54,1.54,0,0,0-2.14.46l-1.73,2.68a1.54,1.54,0,0,0,.45,2.14,1.58,1.58,0,0,0,.85.25,1.55,1.55,0,0,0,1.29-.71l1.74-2.68A1.54,1.54,0,0,0,243,99.33Z"/><path class="cls-4" d="M242.15,99.73a.65.65,0,0,0-.19,0,.9.9,0,0,0-.56.39l-1.74,2.68a.91.91,0,0,0,.26,1.25,1,1,0,0,0,.49.14h0a.89.89,0,0,0,.75-.41l1.74-2.68a.91.91,0,0,0,.12-.68.89.89,0,0,0-.39-.57h0a.85.85,0,0,0-.49-.14m-1.74,5.77a2.19,2.19,0,0,1-1.84-3.38l1.74-2.68a2.19,2.19,0,1,1,3.68,2.38l-1.74,2.68a2.15,2.15,0,0,1-1.83,1Z"/><path class="cls-5" d="M242.15,99.73a.65.65,0,0,0-.19,0,.9.9,0,0,0-.56.39l-1.74,2.68a.91.91,0,0,0,.26,1.25,1,1,0,0,0,.49.14h0a.89.89,0,0,0,.75-.41l1.74-2.68a.91.91,0,0,0,.12-.68.89.89,0,0,0-.39-.57h0A.85.85,0,0,0,242.15,99.73Zm-1.74,5.77a2.19,2.19,0,0,1-1.84-3.38l1.74-2.68a2.19,2.19,0,1,1,3.68,2.38l-1.74,2.68a2.15,2.15,0,0,1-1.83,1Z"/><path class="cls-4" d="M232.63,102l-2.25,2.28a1.55,1.55,0,0,0,2.2,2.17l2.24-2.27a1.55,1.55,0,1,0-2.19-2.18"/><path class="cls-5" d="M232.63,102l-2.25,2.28a1.55,1.55,0,0,0,2.2,2.17l2.24-2.27a1.55,1.55,0,1,0-2.19-2.18Z"/><path class="cls-4" d="M233.09,102.41l-2.25,2.27a.9.9,0,0,0,.64,1.53,1.09,1.09,0,0,0,.64-.26l2.25-2.27a.91.91,0,0,0-1.29-1.27Zm-1.61,5.1a2.2,2.2,0,0,1-1.56-3.74l2.25-2.27a2.19,2.19,0,1,1,3.11,3.08L233,106.86a2.22,2.22,0,0,1-1.54.65Z"/><path class="cls-5" d="M233.09,102.41l-2.25,2.27a.9.9,0,0,0,.64,1.53,1.09,1.09,0,0,0,.64-.26l2.25-2.27a.91.91,0,0,0-1.29-1.27Zm-1.61,5.1a2.2,2.2,0,0,1-1.56-3.74l2.25-2.27a2.19,2.19,0,1,1,3.11,3.08L233,106.86a2.22,2.22,0,0,1-1.54.65Z"/><path class="cls-4" d="M228.93,79.26a0,0,0,0,0,0,0,.05.05,0,0,0,0,0l.26.07.05,0s0,0,0,0,0,0,0,0Zm-1.44-1.59a.45.45,0,0,0-.22,0l-.18.1.11,0,0,0v0s0,0,0,.06l.08,0,.1,0,0,0,.06,0a.06.06,0,0,1,.06,0h0l.06,0Zm-.67-1.27v0s0,0,0,0,0,.07,0,.08a.17.17,0,0,0,.12,0s0,0,.07,0h0a0,0,0,0,1,0,0l-.06-.09a.11.11,0,0,1,0,0,.08.08,0,0,0-.08,0m.18-.7-.05-.06a.34.34,0,0,0-.12-.12s0,0,0,0l0,0s-.05,0,0,.07l0,0a0,0,0,0,0,0,0l.06,0,0,0v0H227m2.15.5.1,0v0a.06.06,0,0,0,0,.07.56.56,0,0,0,.05.08l2.07,2.67.07,0,0,.07a.16.16,0,0,1,0,.14.09.09,0,0,0,0,.05l0,0a.34.34,0,0,1,.17.09.59.59,0,0,1,.08.08l0,.07.14.18h0s0,0,0,0a.09.09,0,0,0,0,0l0,0,.05,0h.07l.61.79a.15.15,0,0,1,0,.1.07.07,0,0,0,0,.06l0,0,.07,0,0,.07,0,.05a.08.08,0,0,0,0,.09l0,.05.19.24s0,0,0,0a0,0,0,0,0,0,0,1.59,1.59,0,0,1,.07.38.16.16,0,0,1,0,.1.17.17,0,0,0,0,.12.15.15,0,0,1,0,.13.4.4,0,0,0-.09.23.08.08,0,0,1,0,.07l0,0,0,0s0,0,0,0a.25.25,0,0,1-.08.12.21.21,0,0,0,0,.06l-.06.06-.07,0h0l0,0,0,0s0,0,0,0l-.05,0-.07,0,0,0,0,0a.13.13,0,0,1-.06,0l-.37.16-.12,0h-.14l0,0,0,0h-.06a.25.25,0,0,1-.12,0h-.17a.2.2,0,0,1-.11,0,.2.2,0,0,1-.11,0,1.41,1.41,0,0,1-.46,0l-.05,0-.15,0a1.89,1.89,0,0,1-.34-.09.06.06,0,0,0-.05,0,3.18,3.18,0,0,0-.32-.16l-.09-.07a.12.12,0,0,0-.05,0s0,0-.09,0,0,0,0,0l0,0-.07-.09,0-.06,0,0a.14.14,0,0,0-.12-.05l-1.41-1.82a.28.28,0,0,0-.12-.08.15.15,0,0,1-.06,0l0,0-1.44-1.86a.14.14,0,0,1,0-.14l-.54-.71a.22.22,0,0,1-.05-.13s0-.05,0-.07a.24.24,0,0,0-.06-.09l-.12-.12-1.52-2,0-.07-.07-.06-.11-.14,0-.07-.08-.08a.34.34,0,0,0-.17-.09l-.65-.84-.05-.07a.09.09,0,0,1,0-.1l0,0a.62.62,0,0,0-.11-.17l-.05-.06a.08.08,0,0,0,0-.07l0-.06,0-.06a.06.06,0,0,1,0-.06l-.08-.1s0,0,0,0,0,0,0,0a.08.08,0,0,0,0,0s0,0,0,0h0a.38.38,0,0,0,0-.17.19.19,0,0,1,0-.16.4.4,0,0,0,.07-.18l0-.1a.15.15,0,0,0,0-.09.52.52,0,0,1,.11-.19l.12-.14a.76.76,0,0,1,.14-.16.28.28,0,0,1,.09-.07l.76-.32.08,0h.35l.1,0h0v0l.1,0h.12a.33.33,0,0,1,.14,0l.17,0,.26.06.11,0,.2.07.1.06.1,0,0,0v0a.15.15,0,0,1,.09,0l0,0a.19.19,0,0,0,.07.06h.1l.1.13a.19.19,0,0,0,.07.06l.08,0,0,0v0l1.71,2.2a.23.23,0,0,0,.16.1l.05,0a.1.1,0,0,1,0,.06Z"/><path class="cls-5" d="M228.93,79.26a0,0,0,0,0,0,0,.05.05,0,0,0,0,0l.26.07.05,0s0,0,0,0,0,0,0,0Zm-1.44-1.59a.45.45,0,0,0-.22,0l-.18.1.11,0,0,0v0s0,0,0,.06l.08,0,.1,0,0,0,.06,0a.06.06,0,0,1,.06,0h0l.06,0Zm-.67-1.27v0s0,0,0,0,0,.07,0,.08a.17.17,0,0,0,.12,0s0,0,.07,0h0a0,0,0,0,1,0,0l-.06-.09a.11.11,0,0,1,0,0A.08.08,0,0,0,226.82,76.4Zm.18-.7-.05-.06a.34.34,0,0,0-.12-.12s0,0,0,0l0,0s-.05,0,0,.07l0,0a0,0,0,0,0,0,0l.06,0,0,0v0H227Zm2.15.5.1,0v0a.06.06,0,0,0,0,.07.56.56,0,0,0,.05.08l2.07,2.67.07,0,0,.07a.16.16,0,0,1,0,.14.09.09,0,0,0,0,.05l0,0a.34.34,0,0,1,.17.09.59.59,0,0,1,.08.08l0,.07.14.18h0s0,0,0,0a.09.09,0,0,0,0,0l0,0,.05,0h.07l.61.79a.15.15,0,0,1,0,.1.07.07,0,0,0,0,.06l0,0,.07,0,0,.07,0,.05a.08.08,0,0,0,0,.09l0,.05.19.24s0,0,0,0a0,0,0,0,0,0,0,1.59,1.59,0,0,1,.07.38.16.16,0,0,1,0,.1.17.17,0,0,0,0,.12.15.15,0,0,1,0,.13.4.4,0,0,0-.09.23.08.08,0,0,1,0,.07l0,0,0,0s0,0,0,0a.25.25,0,0,1-.08.12.21.21,0,0,0,0,.06l-.06.06-.07,0h0l0,0,0,0s0,0,0,0l-.05,0-.07,0,0,0,0,0a.13.13,0,0,1-.06,0l-.37.16-.12,0h-.14l0,0,0,0h-.06a.25.25,0,0,1-.12,0h-.17a.2.2,0,0,1-.11,0,.2.2,0,0,1-.11,0,1.41,1.41,0,0,1-.46,0l-.05,0-.15,0a1.89,1.89,0,0,1-.34-.09.06.06,0,0,0-.05,0,3.18,3.18,0,0,0-.32-.16l-.09-.07a.12.12,0,0,0-.05,0s0,0-.09,0,0,0,0,0l0,0-.07-.09,0-.06,0,0a.14.14,0,0,0-.12-.05l-1.41-1.82a.28.28,0,0,0-.12-.08.15.15,0,0,1-.06,0l0,0-1.44-1.86a.14.14,0,0,1,0-.14l-.54-.71a.22.22,0,0,1-.05-.13s0-.05,0-.07a.24.24,0,0,0-.06-.09l-.12-.12-1.52-2,0-.07-.07-.06-.11-.14,0-.07-.08-.08a.34.34,0,0,0-.17-.09l-.65-.84-.05-.07a.09.09,0,0,1,0-.1l0,0a.62.62,0,0,0-.11-.17l-.05-.06a.08.08,0,0,0,0-.07l0-.06,0-.06a.06.06,0,0,1,0-.06l-.08-.1s0,0,0,0,0,0,0,0a.08.08,0,0,0,0,0s0,0,0,0h0a.38.38,0,0,0,0-.17.19.19,0,0,1,0-.16.4.4,0,0,0,.07-.18l0-.1a.15.15,0,0,0,0-.09.52.52,0,0,1,.11-.19l.12-.14a.76.76,0,0,1,.14-.16.28.28,0,0,1,.09-.07l.76-.32.08,0h.35l.1,0h0v0l.1,0h.12a.33.33,0,0,1,.14,0l.17,0,.26.06.11,0,.2.07.1.06.1,0,0,0v0a.15.15,0,0,1,.09,0l0,0a.19.19,0,0,0,.07.06h.1l.1.13a.19.19,0,0,0,.07.06l.08,0,0,0v0l1.71,2.2a.23.23,0,0,0,.16.1l.05,0a.1.1,0,0,1,0,.06Z"/><path class="cls-4" d="M226.19,71.72l0,0s0,0,0,0m-2.25.65h0m-2.1.15v0Zm-.12.51s0,0,0,0Zm1.44,1.38,0,.1a.93.93,0,0,0,0-.1m-.23,1.23,0,0Zm3.1,2h0m1.31.52-.05.14h0l.05-.16Zm0,.14a.52.52,0,0,0,.21,0l-.13-.15,0,0Zm.16.25h0Zm1.85.89.06,0Zm2.74,1.35a.08.08,0,0,0,0,.07v-.07Zm.11.35h0Zm-4.94.16Zm5.12,1.11h0Zm-2.24.23,0,0,0,0m1.09.2.08,0h.21a1,1,0,0,1,.26-.06l.3-.15,0,0,.4-.45,0-.07.1-.19s0,0,0,0l-.14-.18,0-.05a.86.86,0,0,1-.14-.29l-.22-.28,0-.09-.82-1v0h0l-.43-.49v0l-1,.37,0,.15-.47.07-.2,0a2.49,2.49,0,0,1-.32-.08l-.19-.07-.41-.48.36-.87,1.89.38-2.77-3.57a.83.83,0,0,1-.27-.23l-1.85-2.28-.12-.06-.43,0,0-.3-.11,0-.21,0a1.22,1.22,0,0,1-.27-.06l-.12,0h0l-.2,0-.11,0h-.07l-.6.26a.1.1,0,0,0,0,0l-.12.14A.69.69,0,0,1,223,73a1,1,0,0,1-.06.22l0,.06,0,.09.23.29-.11.12.24.31,0,.07.38.48a1.16,1.16,0,0,1,.21.16l.09.08.36.5,1.72,2.23a.7.7,0,0,1,0,.12l.65-.5h-.17l-.3-.27-.28-.36.11-.18H226l.15-.47-.13-.17.15-.66.79-.35.27.27a1.25,1.25,0,0,1,.23.23l1,1.35-.76-.12.91,1.11-.49-.1.53.69-1,.47-1-.2.14.18,0,.08L228,80.27a.83.83,0,0,1,.27.23l1.29,1.65.09.06.19.1.05.13.06,0,.13.11.2.09.19.08.1,0,.14,0,.24,0h.27Zm-1.74,0-.05.05Zm-.69.28,0,.06Zm.34.3,0,0Zm2.35.72-.12,0h-.21l-.14,0a2.26,2.26,0,0,1-.53-.06l-.18,0a3.45,3.45,0,0,1-.43-.12l-.2-.11-.2-.09-.21-.13a.7.7,0,0,1-.32-.24h-.1l-3.24-4.06a.89.89,0,0,1-.15-.29l-.42-.55a.74.74,0,0,1-.16-.32l-.08-.09L223,75.74l-.12,0-.77-1a1.18,1.18,0,0,1-.18-.38l-.32-.4.08-.14-.05-.06v-.14l-.13-.17.15-.29a.88.88,0,0,1,.12-.44l0-.09v0l0-.12a1.3,1.3,0,0,1,.21-.38l.15-.17a1.77,1.77,0,0,1,.15-.18l.09-.09.22-.12,1-.39a.47.47,0,0,1,.12,0l.16,0,.46-.19.13.17.16,0,.16,0a3,3,0,0,1,.32.09l.47.18s.11,0,.18.08l.14.1,0,0h.16l.23.29.17,0,.34.46v0l1.92,2.3v0l1.27,1.51-.05.06,2,2.57,0,.07.06,0,.44.56,1.14,1.58-.05,0,.13.17,0,.19c0,.1,0,.2,0,.3l0,.12,0,.19a.75.75,0,0,1-.11.45l0,.21-.23.23a.71.71,0,0,1-.1.14v0l-.1.1a.57.57,0,0,1-.11.11l-.33.27a.74.74,0,0,1-.23.14l-.61.25-.3.05h-.15Z"/><path class="cls-5" d="M226.19,71.72l0,0S226.2,71.73,226.19,71.72Zm-2.25.65Zm-2.1.15v0Zm-.12.51s0,0,0,0Zm1.44,1.38,0,.1A.93.93,0,0,0,223.16,74.41Zm-.23,1.23,0,0Zm3.1,2h0Zm1.31.52-.05.14h0l.05-.16Zm0,.14a.52.52,0,0,0,.21,0l-.13-.15,0,0Zm.16.25h0Zm1.85.89.06,0Zm2.74,1.35a.08.08,0,0,0,0,.07v-.07Zm.11.35h0Zm-4.94.16Zm5.12,1.11h0Zm-2.24.23,0,0Zm1.09.2.08,0h.21a1,1,0,0,1,.26-.06l.3-.15,0,0,.4-.45,0-.07.1-.19s0,0,0,0l-.14-.18,0-.05a.86.86,0,0,1-.14-.29l-.22-.28,0-.09-.82-1v0h0l-.43-.49v0l-1,.37,0,.15-.47.07-.2,0a2.49,2.49,0,0,1-.32-.08l-.19-.07-.41-.48.36-.87,1.89.38-2.77-3.57a.83.83,0,0,1-.27-.23l-1.85-2.28-.12-.06-.43,0,0-.3-.11,0-.21,0a1.22,1.22,0,0,1-.27-.06l-.12,0h0l-.2,0-.11,0h-.07l-.6.26a.1.1,0,0,0,0,0l-.12.14A.69.69,0,0,1,223,73a1,1,0,0,1-.06.22l0,.06,0,.09.23.29-.11.12.24.31,0,.07.38.48a1.16,1.16,0,0,1,.21.16l.09.08.36.5,1.72,2.23a.7.7,0,0,1,0,.12l.65-.5h-.17l-.3-.27-.28-.36.11-.18H226l.15-.47-.13-.17.15-.66.79-.35.27.27a1.25,1.25,0,0,1,.23.23l1,1.35-.76-.12.91,1.11-.49-.1.53.69-1,.47-1-.2.14.18,0,.08L228,80.27a.83.83,0,0,1,.27.23l1.29,1.65.09.06.19.1.05.13.06,0,.13.11.2.09.19.08.1,0,.14,0,.24,0h.27Zm-1.74,0-.05.05Zm-.69.28,0,.06Zm.34.3,0,0Zm2.35.72-.12,0h-.21l-.14,0a2.26,2.26,0,0,1-.53-.06l-.18,0a3.45,3.45,0,0,1-.43-.12l-.2-.11-.2-.09-.21-.13a.7.7,0,0,1-.32-.24h-.1l-3.24-4.06a.89.89,0,0,1-.15-.29l-.42-.55a.74.74,0,0,1-.16-.32l-.08-.09L223,75.74l-.12,0-.77-1a1.18,1.18,0,0,1-.18-.38l-.32-.4.08-.14-.05-.06v-.14l-.13-.17.15-.29a.88.88,0,0,1,.12-.44l0-.09v0l0-.12a1.3,1.3,0,0,1,.21-.38l.15-.17a1.77,1.77,0,0,1,.15-.18l.09-.09.22-.12,1-.39a.47.47,0,0,1,.12,0l.16,0,.46-.19.13.17.16,0,.16,0a3,3,0,0,1,.32.09l.47.18s.11,0,.18.08l.14.1,0,0h.16l.23.29.17,0,.34.46v0l1.92,2.3v0l1.27,1.51-.05.06,2,2.57,0,.07.06,0,.44.56,1.14,1.58-.05,0,.13.17,0,.19c0,.1,0,.2,0,.3l0,.12,0,.19a.75.75,0,0,1-.11.45l0,.21-.23.23a.71.71,0,0,1-.1.14v0l-.1.1a.57.57,0,0,1-.11.11l-.33.27a.74.74,0,0,1-.23.14l-.61.25-.3.05h-.15Z"/><path class="cls-4" d="M269.31,78.13l0,0h.08l.25-.06.05,0s0,0,0,0ZM271,76.69h.17l.07,0,0,0,.1,0,.08,0a.26.26,0,0,1,0-.07v0s0,0,0,0l.1,0a.76.76,0,0,0-.18-.09.31.31,0,0,0-.21,0Zm.77-1.47,0,0-.06.08v0h.1c.06,0,.1,0,.11,0s0,0,0-.07v-.07a.1.1,0,0,0-.08,0m-.05-.72h.06v0a.05.05,0,0,1,0,0l0,0h.05l0,0s0-.06,0-.08l0,0h0a.68.68,0,0,0-.12.12l-.05.06h.05m-1.18-.82a.07.07,0,0,1,0-.06l.05,0a.28.28,0,0,0,.17-.11l1.71-2.2v0l0,0,.08,0a.14.14,0,0,0,.08-.06l.1-.12.09,0a.16.16,0,0,0,.08-.06.11.11,0,0,1,.05,0,.12.12,0,0,1,.09,0v0l0,0,.1,0,.11-.06.19-.07a.53.53,0,0,1,.12,0l.25-.07a.47.47,0,0,0,.17,0h.26a.22.22,0,0,0,.11,0v0h0l.09,0h.11l.13,0s0,0,.06,0h.06l.07,0,.76.33.1.06a1.12,1.12,0,0,1,.13.16l.13.14a.75.75,0,0,1,.1.2.51.51,0,0,0,0,.09l0,.1a.49.49,0,0,0,.06.17.16.16,0,0,1,0,.16.37.37,0,0,0,.05.17v0a.06.06,0,0,1,0,0,0,0,0,0,0,0,0s0,0,0,0v0l-.08.1s0,0,0,.06a.13.13,0,0,1,0,.07.09.09,0,0,0,0,0,.07.07,0,0,0,0,.07l-.05.06-.1.17,0,.05a.08.08,0,0,1,0,.1l-.06.07-.65.84a.32.32,0,0,0-.16.1l-.08.07,0,.07-.11.15-.08,0,0,.08-1.53,2a.34.34,0,0,1-.12.12.9.9,0,0,0-.05.09.19.19,0,0,0,0,.08.28.28,0,0,1,0,.13l-.55.7a.14.14,0,0,1,0,.14l-1.45,1.86,0,0-.06,0a.25.25,0,0,0-.12.08L269.5,81.5a.17.17,0,0,0-.13,0l-.05,0v.06l-.07.1,0,0,0,0s-.06,0-.08,0l-.06,0a.18.18,0,0,1-.08.07l-.33.16-.05,0a1.59,1.59,0,0,1-.33.1l-.16,0-.05,0a1.36,1.36,0,0,1-.46,0l-.11,0a.16.16,0,0,1-.1,0H267l0,0,0,0h-.14a.27.27,0,0,1-.12,0L266.3,82l-.06,0,0,0v0l-.07,0-.05,0s0,0,0,0,0,0,0,0,0,0,0,0h0l-.07,0-.06,0s0,0,0-.07a.28.28,0,0,1-.08-.12s0,0,0,0,0,0,0,0l-.05,0a.07.07,0,0,1,0-.06.43.43,0,0,0-.08-.23.12.12,0,0,1,0-.13.14.14,0,0,0,0-.12.2.2,0,0,1,0-.11,1.26,1.26,0,0,1,.06-.38s0,0,0,0,0,0,0,0l.18-.25,0,0s0-.06,0-.1l0,0,0-.08.07-.05,0,0a.07.07,0,0,0,0-.06.16.16,0,0,1,0-.1l.62-.78.07,0,.05,0,0,0a0,0,0,0,0,0,0s0,0,0,0h0l.14-.17,0-.08.08-.08.17-.09a.06.06,0,0,0,0,0,0,0,0,0,0,0,0,.16.16,0,0,1,0-.14l0-.08.07-.05,2.08-2.66s0,0,0-.08a.06.06,0,0,0,0-.08v0l.11,0Z"/><path class="cls-5" d="M269.31,78.13l0,0h.08l.25-.06.05,0s0,0,0,0ZM271,76.69h.17l.07,0,0,0,.1,0,.08,0a.26.26,0,0,1,0-.07v0s0,0,0,0l.1,0a.76.76,0,0,0-.18-.09.31.31,0,0,0-.21,0Zm.77-1.47,0,0-.06.08v0h.1c.06,0,.1,0,.11,0s0,0,0-.07v-.07A.1.1,0,0,0,271.75,75.22Zm-.05-.72h.06v0a.05.05,0,0,1,0,0l0,0h.05l0,0s0-.06,0-.08l0,0h0a.68.68,0,0,0-.12.12l-.05.06Zm-1.18-.82a.07.07,0,0,1,0-.06l.05,0a.28.28,0,0,0,.17-.11l1.71-2.2v0l0,0,.08,0a.14.14,0,0,0,.08-.06l.1-.12.09,0a.16.16,0,0,0,.08-.06.11.11,0,0,1,.05,0,.12.12,0,0,1,.09,0v0l0,0,.1,0,.11-.06.19-.07a.53.53,0,0,1,.12,0l.25-.07a.47.47,0,0,0,.17,0h.26a.22.22,0,0,0,.11,0v0h0l.09,0h.11l.13,0s0,0,.06,0h.06l.07,0,.76.33.1.06a1.12,1.12,0,0,1,.13.16l.13.14a.75.75,0,0,1,.1.2.51.51,0,0,0,0,.09l0,.1a.49.49,0,0,0,.06.17.16.16,0,0,1,0,.16.37.37,0,0,0,.05.17v0a.06.06,0,0,1,0,0,0,0,0,0,0,0,0s0,0,0,0v0l-.08.1s0,0,0,.06a.13.13,0,0,1,0,.07.09.09,0,0,0,0,0,.07.07,0,0,0,0,.07l-.05.06-.1.17,0,.05a.08.08,0,0,1,0,.1l-.06.07-.65.84a.32.32,0,0,0-.16.1l-.08.07,0,.07-.11.15-.08,0,0,.08-1.53,2a.34.34,0,0,1-.12.12.9.9,0,0,0-.05.09.19.19,0,0,0,0,.08.28.28,0,0,1,0,.13l-.55.7a.14.14,0,0,1,0,.14l-1.45,1.86,0,0-.06,0a.25.25,0,0,0-.12.08L269.5,81.5a.17.17,0,0,0-.13,0l-.05,0v.06l-.07.1,0,0,0,0s-.06,0-.08,0l-.06,0a.18.18,0,0,1-.08.07l-.33.16-.05,0a1.59,1.59,0,0,1-.33.1l-.16,0-.05,0a1.36,1.36,0,0,1-.46,0l-.11,0a.16.16,0,0,1-.1,0H267l0,0,0,0h-.14a.27.27,0,0,1-.12,0L266.3,82l-.06,0,0,0v0l-.07,0-.05,0s0,0,0,0,0,0,0,0,0,0,0,0h0l-.07,0-.06,0s0,0,0-.07a.28.28,0,0,1-.08-.12s0,0,0,0,0,0,0,0l-.05,0a.07.07,0,0,1,0-.06.43.43,0,0,0-.08-.23.12.12,0,0,1,0-.13.14.14,0,0,0,0-.12.2.2,0,0,1,0-.11,1.26,1.26,0,0,1,.06-.38s0,0,0,0,0,0,0,0l.18-.25,0,0s0-.06,0-.1l0,0,0-.08.07-.05,0,0a.07.07,0,0,0,0-.06.16.16,0,0,1,0-.1l.62-.78.07,0,.05,0,0,0a0,0,0,0,0,0,0s0,0,0,0h0l.14-.17,0-.08.08-.08.17-.09a.06.06,0,0,0,0,0,0,0,0,0,0,0,0,.16.16,0,0,1,0-.14l0-.08.07-.05,2.08-2.66s0,0,0-.08a.06.06,0,0,0,0-.08v0l.11,0Z"/><path class="cls-4" d="M274.28,69.87h0m2.53,3,0,0,0,0m-6.35.08h0Zm.84,4-.1.16a.53.53,0,0,0,.15,0Zm-3.59,1.4h0Zm-.38,3.32h.09l.14-.07.05,0h.12l.22-.06.22,0,0,0,.17,0,.21-.11.14-.11,0-.18L269,81l.08,0,1.29-1.66a.82.82,0,0,1,.26-.23l1.22-1.57,0-.07.14-.18-1,.22-.13-.13-.16,0L270,77l.52-.67-.36.07.77-1-.84.18,1.09-1.4a1.72,1.72,0,0,1,.2-.23l.26-.36.8.33.16.35a.72.72,0,0,1-.05.48l.18.49h-.14l.08.12-.44.68-.14.07H272l.62.4v0a1.5,1.5,0,0,1,.15-.25l2-2.53a1,1,0,0,1,.25-.2l.35-.44,0-.06.27-.35-.11-.12.22-.28,0-.11.06-.07a1.55,1.55,0,0,1-.07-.23.36.36,0,0,1,0-.11l-.09-.1-.07-.09-.59-.25-.14,0-.24-.07a.48.48,0,0,1-.17,0h-.1l-.26,0s0,0-.09,0l-.13,0,0,.25-.54.08-.11.14-.12,0-1.63,2.1a1,1,0,0,1-.27.24l-2.78,3.56,1.92-.38.32.85-.38.53-.29.06a1.07,1.07,0,0,1-.24.06l-.19,0-.11,0-.33,0-.06-.14-1-.45h0l0,.1-.39.46h0l-.24.33a.63.63,0,0,1-.24.2l-.39.51s0,.08,0,.13v0l-.27.46v0l-.14.2a.28.28,0,0,0,0,.09.69.69,0,0,1,0,.2h0l0,.13.37.3,0,0Zm-1.87.44Zm.14.22h0m1.51.67,0,0h-.32l-.08-.07-1.12-.52-.27-.33-.09-.15-.22-.19v-.25a.81.81,0,0,1-.11-.43.86.86,0,0,1,0-.32,1.1,1.1,0,0,1,0-.31l-.05-.19.17-.23-.05-.06.37-.49a.7.7,0,0,1,.13-.26l.88-1.17.14-.15a.39.39,0,0,1,.1-.08s0,0,0,0l.05-.13.17-.19,1.77-2.28,0,0,.48-.62.11,0,.67-.86h0l.38-.52.14,0,1.76-2.31.16,0,.2-.26h.16l0,0,.1-.07a1.12,1.12,0,0,1,.22-.11l.3-.13.24-.07.26-.06.15,0a.55.55,0,0,1,.18,0l.12-.16.47.18h.22a.67.67,0,0,1,.31.07l1,.49c.11.11.16.18.23.26l.09.1a1.66,1.66,0,0,1,.24.41l0,.12v0l0,.14a.63.63,0,0,1,.11.38l.17.29-.15.18a.3.3,0,0,1,0,.1l.12.14-.38.52a.6.6,0,0,1-.13.28l-.83,1.08-.15.08-1.74,2.23-.08.1a.89.89,0,0,1-.15.31l-.43.55a.69.69,0,0,1-.14.3l-1.54,2-.17.1-1.53,2-.12,0-.15.17-.16,0-.18.11-.23.11-.2.1a2.7,2.7,0,0,1-.43.12l-.17,0a2.57,2.57,0,0,1-.55.06l-.13,0h-.22Z"/><path class="cls-5" d="M274.28,69.87h0Zm2.53,3,0,0Zm-6.35.08h0Zm.84,4-.1.16a.53.53,0,0,0,.15,0Zm-3.59,1.4h0Zm-.38,3.32h.09l.14-.07.05,0h.12l.22-.06.22,0,0,0,.17,0,.21-.11.14-.11,0-.18L269,81l.08,0,1.29-1.66a.82.82,0,0,1,.26-.23l1.22-1.57,0-.07.14-.18-1,.22-.13-.13-.16,0L270,77l.52-.67-.36.07.77-1-.84.18,1.09-1.4a1.72,1.72,0,0,1,.2-.23l.26-.36.8.33.16.35a.72.72,0,0,1-.05.48l.18.49h-.14l.08.12-.44.68-.14.07H272l.62.4v0a1.5,1.5,0,0,1,.15-.25l2-2.53a1,1,0,0,1,.25-.2l.35-.44,0-.06.27-.35-.11-.12.22-.28,0-.11.06-.07a1.55,1.55,0,0,1-.07-.23.36.36,0,0,1,0-.11l-.09-.1-.07-.09-.59-.25-.14,0-.24-.07a.48.48,0,0,1-.17,0h-.1l-.26,0s0,0-.09,0l-.13,0,0,.25-.54.08-.11.14-.12,0-1.63,2.1a1,1,0,0,1-.27.24l-2.78,3.56,1.92-.38.32.85-.38.53-.29.06a1.07,1.07,0,0,1-.24.06l-.19,0-.11,0-.33,0-.06-.14-1-.45h0l0,.1-.39.46h0l-.24.33a.63.63,0,0,1-.24.2l-.39.51s0,.08,0,.13v0l-.27.46v0l-.14.2a.28.28,0,0,0,0,.09.69.69,0,0,1,0,.2h0l0,.13.37.3,0,0Zm-1.87.44Zm.14.22h0Zm1.51.67,0,0h-.32l-.08-.07-1.12-.52-.27-.33-.09-.15-.22-.19v-.25a.81.81,0,0,1-.11-.43.86.86,0,0,1,0-.32,1.1,1.1,0,0,1,0-.31l-.05-.19.17-.23-.05-.06.37-.49a.7.7,0,0,1,.13-.26l.88-1.17.14-.15a.39.39,0,0,1,.1-.08s0,0,0,0l.05-.13.17-.19,1.77-2.28,0,0,.48-.62.11,0,.67-.86h0l.38-.52.14,0,1.76-2.31.16,0,.2-.26h.16l0,0,.1-.07a1.12,1.12,0,0,1,.22-.11l.3-.13.24-.07.26-.06.15,0a.55.55,0,0,1,.18,0l.12-.16.47.18h.22a.67.67,0,0,1,.31.07l1,.49c.11.11.16.18.23.26l.09.1a1.66,1.66,0,0,1,.24.41l0,.12v0l0,.14a.63.63,0,0,1,.11.38l.17.29-.15.18a.3.3,0,0,1,0,.1l.12.14-.38.52a.6.6,0,0,1-.13.28l-.83,1.08-.15.08-1.74,2.23-.08.1a.89.89,0,0,1-.15.31l-.43.55a.69.69,0,0,1-.14.3l-1.54,2-.17.1-1.53,2-.12,0-.15.17-.16,0-.18.11-.23.11-.2.1a2.7,2.7,0,0,1-.43.12l-.17,0a2.57,2.57,0,0,1-.55.06l-.13,0h-.22Z"/><path class="cls-4" d="M248.93,74.59h.13l.18-.15s0,0,0,0,0,0,0,0Zm.6-1.87h.06l0,0,.05,0h.12l.08-.05a.17.17,0,0,1,.06-.06s-.05,0-.05,0l0,0s0,0,0,0l.07-.07a.93.93,0,0,0-.23,0,.36.36,0,0,0-.18.09Zm-.23-1.56v.15s0,0,0,0l0,0s0,0,0,0,.08-.05.08-.07,0,0-.07-.06l0,0,0,0s0,0,0,0m-.49-.61.05,0,0,0s0,0,0,0l0,0,0,0a.08.08,0,0,0,0,0s0,0-.07,0h0s0,0,0,0a.4.4,0,0,0,0,.15v.08a.06.06,0,0,1,.05,0m-1.56-.29a.08.08,0,0,1,0-.05.05.05,0,0,1,0,0,.19.19,0,0,0,.08-.15l.16-2.54,0,0,0,0s0,0,.05-.06,0,0,0-.07v-.15l.08-.05s0,0,0-.08a.1.1,0,0,1,0-.06s0,0,.06,0l0,0a.06.06,0,0,1,0,0,.45.45,0,0,1,.07-.07.35.35,0,0,0,.06-.09.8.8,0,0,0,.13-.13.29.29,0,0,1,.08-.07l.18-.15.14-.09a.23.23,0,0,1,.12-.06l.11,0,.08,0v0h.12l.1,0,.13,0,.05,0,0,0h1a.3.3,0,0,1,.12,0l.22.09.19.07a1.16,1.16,0,0,1,.22.13l.07.08.1.07a.51.51,0,0,0,.16.13c.07,0,.11.08.12.13a.44.44,0,0,0,.14.13v0a.05.05,0,0,1,0,0v0s0,0,0,0,0,0,0,0v.11a.1.1,0,0,1,.06,0s0,0,0,.06a.16.16,0,0,0,0,.07.09.09,0,0,0,.06,0v.08a1.28,1.28,0,0,0,0,.19v0c.05,0,.07,0,.07.08a.28.28,0,0,1,0,.09l-.06,1a.22.22,0,0,0-.08.15l0,.09,0,.08v.16l0,.08,0,.07-.15,2.26a.4.4,0,0,1,0,.15.22.22,0,0,0,0,.09s0,.05,0,.08a.24.24,0,0,1,0,.13l-.05.81a.17.17,0,0,1,.07.13l-.14,2.16v0a.15.15,0,0,1,0,.06s-.05.06-.06.11l-.13,2.09c-.05,0-.08.06-.08.1l0,0,0,.06v.11s0,0,0,0l0,0s-.06,0-.07.05,0,0,0,.06a.17.17,0,0,1,0,.1,2.48,2.48,0,0,0-.19.26l0,0a2.29,2.29,0,0,1-.23.21.4.4,0,0,0-.13.07s0,0,0,0a1.3,1.3,0,0,1-.39.2l-.08.06a.19.19,0,0,1-.1,0l-.08,0a.12.12,0,0,0-.07,0l-.11.05-.05,0,0,0h-.1l-.07,0a.28.28,0,0,1-.13,0h-.55l-.05,0h-.14s0,0,0,0l0,0h-.15l-.08,0-.08,0a.7.7,0,0,1-.14-.08s0,0,0,0l-.06,0h-.06l-.06,0a.74.74,0,0,0-.21-.17.18.18,0,0,1-.1-.11.13.13,0,0,0-.09-.09l-.07-.09a1.35,1.35,0,0,1-.18-.36s0,0,0,0,0,0,0,0l0-.28a.18.18,0,0,1,0-.06s0-.05-.07-.07v-.06l0-.07,0-.07v-.06s0,0,0-.06-.05-.07,0-.09l0-.91.06,0a.06.06,0,0,0,0,0s0,0,0,0,0,0,0,0,0,0,0,0h0v-.21l0-.07s0-.06,0-.1a.33.33,0,0,1,.1-.14l0,0a.08.08,0,0,0,0,0,.19.19,0,0,1-.07-.13l0-.07,0-.08.19-3.07a.27.27,0,0,0,0-.09.09.09,0,0,0-.06-.06v0l.08-.06Z"/><path class="cls-5" d="M248.93,74.59h.13l.18-.15s0,0,0,0,0,0,0,0Zm.6-1.87h.06l0,0,.05,0h.12l.08-.05a.17.17,0,0,1,.06-.06s-.05,0-.05,0l0,0s0,0,0,0l.07-.07a.93.93,0,0,0-.23,0,.36.36,0,0,0-.18.09Zm-.23-1.56v.15s0,0,0,0l0,0s0,0,0,0,.08-.05.08-.07,0,0-.07-.06l0,0,0,0S249.3,71.14,249.3,71.16Zm-.49-.61.05,0,0,0s0,0,0,0l0,0,0,0a.08.08,0,0,0,0,0s0,0-.07,0h0s0,0,0,0a.4.4,0,0,0,0,.15v.08A.06.06,0,0,1,248.81,70.55Zm-1.56-.29a.08.08,0,0,1,0-.05.05.05,0,0,1,0,0,.19.19,0,0,0,.08-.15l.16-2.54,0,0,0,0s0,0,.05-.06,0,0,0-.07v-.15l.08-.05s0,0,0-.08a.1.1,0,0,1,0-.06s0,0,.06,0l0,0a.06.06,0,0,1,0,0,.45.45,0,0,1,.07-.07.35.35,0,0,0,.06-.09.8.8,0,0,0,.13-.13.29.29,0,0,1,.08-.07l.18-.15.14-.09a.23.23,0,0,1,.12-.06l.11,0,.08,0v0h.12l.1,0,.13,0,.05,0,0,0h1a.3.3,0,0,1,.12,0l.22.09.19.07a1.16,1.16,0,0,1,.22.13l.07.08.1.07a.51.51,0,0,0,.16.13c.07,0,.11.08.12.13a.44.44,0,0,0,.14.13v0a.05.05,0,0,1,0,0v0s0,0,0,0,0,0,0,0v.11a.1.1,0,0,1,.06,0s0,0,0,.06a.16.16,0,0,0,0,.07.09.09,0,0,0,.06,0v.08a1.28,1.28,0,0,0,0,.19v0c.05,0,.07,0,.07.08a.28.28,0,0,1,0,.09l-.06,1a.22.22,0,0,0-.08.15l0,.09,0,.08v.16l0,.08,0,.07-.15,2.26a.4.4,0,0,1,0,.15.22.22,0,0,0,0,.09s0,.05,0,.08a.24.24,0,0,1,0,.13l-.05.81a.17.17,0,0,1,.07.13l-.14,2.16v0a.15.15,0,0,1,0,.06s-.05.06-.06.11l-.13,2.09c-.05,0-.08.06-.08.1l0,0,0,.06v.11s0,0,0,0l0,0s-.06,0-.07.05,0,0,0,.06a.17.17,0,0,1,0,.1,2.48,2.48,0,0,0-.19.26l0,0a2.29,2.29,0,0,1-.23.21.4.4,0,0,0-.13.07s0,0,0,0a1.3,1.3,0,0,1-.39.2l-.08.06a.19.19,0,0,1-.1,0l-.08,0a.12.12,0,0,0-.07,0l-.11.05-.05,0,0,0h-.1l-.07,0a.28.28,0,0,1-.13,0h-.55l-.05,0h-.14s0,0,0,0l0,0h-.15l-.08,0-.08,0a.7.7,0,0,1-.14-.08s0,0,0,0l-.06,0h-.06l-.06,0a.74.74,0,0,0-.21-.17.18.18,0,0,1-.1-.11.13.13,0,0,0-.09-.09l-.07-.09a1.35,1.35,0,0,1-.18-.36s0,0,0,0,0,0,0,0l0-.28a.18.18,0,0,1,0-.06s0-.05-.07-.07v-.06l0-.07,0-.07v-.06s0,0,0-.06-.05-.07,0-.09l0-.91.06,0a.06.06,0,0,0,0,0s0,0,0,0,0,0,0,0,0,0,0,0h0v-.21l0-.07s0-.06,0-.1a.33.33,0,0,1,.1-.14l0,0a.08.08,0,0,0,0,0,.19.19,0,0,1-.07-.13l0-.07,0-.08.19-3.07a.27.27,0,0,0,0-.09.09.09,0,0,0-.06-.06v0l.08-.06Z"/><path class="cls-4" d="M246.9,69.64h0Zm-.2.34Zm4.09,2.45.06,0v-.11Zm-.93.53v0l.1,0-.09-.11Zm.9,2.18v0Zm-3.18.1v0Zm3.72,2.49-.21,0,.24,0Zm-2.55.72h.35l.4-.11h0l0,0,.21-.07.08,0,.15-.12.11-.07v0l.18-.13a.44.44,0,0,1,.08-.11l0-.11,0-.08.14-.26.05-.09.14-2.18.08-.07.1-1.72-.06,0,0-.47-.93.71-.18-.07-.19,0h-.69l.06-.93-.27.19,0-1,0,0,0-.2-.61.4.09-1.3a1.12,1.12,0,0,1,0-.29l0-.53.64,0a.77.77,0,0,1,.58.22l.19.21v.17l.56.45-.11,0,0,0,0,.49-.09.46h0l.75.12a.76.76,0,0,1,0-.15l.18-2.3,0-.11,0-.21,0-.08,0-.27a.51.51,0,0,1,.09-.26l0-.48-.07,0,0-.42-.17-.06,0-.31-.1-.07V67h0l-.22-.19-.12-.1-.22-.1-.22-.09-.67,0-.14.1-.1,0-.35.12a1.2,1.2,0,0,1-.21.13s0,0,0,0l.18.3-.5.19a0,0,0,0,0,0,0l0,.2-.07.07L248,70.06a.83.83,0,0,1-.1.35l-.27,4.32,1.63-1.16.66.48v.71l-.3.22a.82.82,0,0,1-.17.14l-.18.12h-.12l-.25.08-.12-.08h-1.08l-.07.55V76a.73.73,0,0,1-.09.34l0,.51a1,1,0,0,1,.05.16h0l.06.71.06.09a.67.67,0,0,1,.17.2l.11.08h.11l0,.07Zm.78,1.21h0m-.43.08-.85-.07h0l-.53-.16a.75.75,0,0,1-.2-.1l-.26-.08-.19-.27a.43.43,0,0,1-.26-.19l-.1,0-.11-.21a2.21,2.21,0,0,1-.18-.34l-.15-.16v-.25l-.08,0,0-.36,0-.11,0-.08a.78.78,0,0,1,0-.28l.08-1.16,0-.19s0-.12,0-.2a.19.19,0,0,1,0-.08l0-.16.05-.23.17-2.63-.08,0,0-.79.08-.06.06-.89h0l0-.71.1-.08.13-2h0l.05-.67L247,67l0-.35.22-.13a1,1,0,0,1,.15-.21l.05-.11.34-.3a1.53,1.53,0,0,1,.19-.15l.12-.08.08,0v-.24h.62l.13,0,.07,0a.88.88,0,0,1,.32,0l1.16,0,.33.13.16.06a2,2,0,0,1,.39.23l.14.16a1.09,1.09,0,0,1,.44.4l.35.21,0,.07h0v.18l.16.06,0,.48v.06a.63.63,0,0,1,.06.33L252.36,69l-.08.08,0,.26v0l-.14,2.26s0,.07,0,.1a.65.65,0,0,1,0,.35l0,.61a.74.74,0,0,1,.05.33L252,75.39l-.08.14-.15,2.34-.08,0v.23l-.16.12a.38.38,0,0,1-.09.15l-.1.13v0l-.17.18a2.31,2.31,0,0,1-.33.28h0l-.12.1a1.74,1.74,0,0,1-.46.27l-.1.06a.6.6,0,0,1-.21.08l-.15.11-.06,0-.25.09-.12,0a1,1,0,0,1-.28,0"/><path class="cls-5" d="M246.9,69.64h0Zm-.2.34Zm4.09,2.45.06,0v-.11Zm-.93.53v0l.1,0-.09-.11Zm.9,2.18v0Zm-3.18.1v0Zm3.72,2.49-.21,0,.24,0Zm-2.55.72h.35l.4-.11h0l0,0,.21-.07.08,0,.15-.12.11-.07v0l.18-.13a.44.44,0,0,1,.08-.11l0-.11,0-.08.14-.26.05-.09.14-2.18.08-.07.1-1.72-.06,0,0-.47-.93.71-.18-.07-.19,0h-.69l.06-.93-.27.19,0-1,0,0,0-.2-.61.4.09-1.3a1.12,1.12,0,0,1,0-.29l0-.53.64,0a.77.77,0,0,1,.58.22l.19.21v.17l.56.45-.11,0,0,0,0,.49-.09.46h0l.75.12a.76.76,0,0,1,0-.15l.18-2.3,0-.11,0-.21,0-.08,0-.27a.51.51,0,0,1,.09-.26l0-.48-.07,0,0-.42-.17-.06,0-.31-.1-.07V67h0l-.22-.19-.12-.1-.22-.1-.22-.09-.67,0-.14.1-.1,0-.35.12a1.2,1.2,0,0,1-.21.13s0,0,0,0l.18.3-.5.19a0,0,0,0,0,0,0l0,.2-.07.07L248,70.06a.83.83,0,0,1-.1.35l-.27,4.32,1.63-1.16.66.48v.71l-.3.22a.82.82,0,0,1-.17.14l-.18.12h-.12l-.25.08-.12-.08h-1.08l-.07.55V76a.73.73,0,0,1-.09.34l0,.51a1,1,0,0,1,.05.16h0l.06.71.06.09a.67.67,0,0,1,.17.2l.11.08h.11l0,.07Zm.78,1.21h0Zm-.43.08-.85-.07h0l-.53-.16a.75.75,0,0,1-.2-.1l-.26-.08-.19-.27a.43.43,0,0,1-.26-.19l-.1,0-.11-.21a2.21,2.21,0,0,1-.18-.34l-.15-.16v-.25l-.08,0,0-.36,0-.11,0-.08a.78.78,0,0,1,0-.28l.08-1.16,0-.19s0-.12,0-.2a.19.19,0,0,1,0-.08l0-.16.05-.23.17-2.63-.08,0,0-.79.08-.06.06-.89h0l0-.71.1-.08.13-2h0l.05-.67L247,67l0-.35.22-.13a1,1,0,0,1,.15-.21l.05-.11.34-.3a1.53,1.53,0,0,1,.19-.15l.12-.08.08,0v-.24h.62l.13,0,.07,0a.88.88,0,0,1,.32,0l1.16,0,.33.13.16.06a2,2,0,0,1,.39.23l.14.16a1.09,1.09,0,0,1,.44.4l.35.21,0,.07h0v.18l.16.06,0,.48v.06a.63.63,0,0,1,.06.33L252.36,69l-.08.08,0,.26v0l-.14,2.26s0,.07,0,.1a.65.65,0,0,1,0,.35l0,.61a.74.74,0,0,1,.05.33L252,75.39l-.08.14-.15,2.34-.08,0v.23l-.16.12a.38.38,0,0,1-.09.15l-.1.13v0l-.17.18a2.31,2.31,0,0,1-.33.28h0l-.12.1a1.74,1.74,0,0,1-.46.27l-.1.06a.6.6,0,0,1-.21.08l-.15.11-.06,0-.25.09-.12,0A1,1,0,0,1,249.1,79.74Z"/><path class="cls-4" d="M285,89.81s0,0,0,0,0,0,0,0l0,0a2.25,2.25,0,0,0,.26,0,.06.06,0,0,0,.06,0s0,0,0,0Zm2-.93,0,0h.06l.05,0,.05,0,0,0h.19s0,0,0-.06v0l0,0h.11l-.15-.14a.37.37,0,0,0-.21,0Zm1.14-1.2-.05,0-.08.06a.05.05,0,0,1,0,0h.11c.06,0,.09,0,.12,0s0,0,0-.08a.05.05,0,0,0,0,0v0a.09.09,0,0,0-.09,0m.15-.7h.06v0h.14a.05.05,0,0,0,0,0s0,0,0-.08l0,0a0,0,0,0,0,0,0,.53.53,0,0,0-.15.08l-.07,0s0,0,0,0m-.91-1.12s0,0,0,0h.05a.25.25,0,0,0,.19,0l2.25-1.64v0H290s.05,0,.08,0l.13-.09h.1a.12.12,0,0,0,.09,0l.06,0h.09l0,0,.05,0h.1l.12,0h.59a.52.52,0,0,0,.17,0,.32.32,0,0,1,.14,0l.11,0H292l.08.05.1,0,.12.06h.12l.06,0,.64.52a.36.36,0,0,1,.08.09,1.08,1.08,0,0,1,.08.19l.08.17a.59.59,0,0,1,.05.22.26.26,0,0,0,0,.09v.11a.55.55,0,0,0,0,.18.2.2,0,0,1,0,.16.28.28,0,0,0,0,.18h0s0,0,0,0l0,0a0,0,0,0,0,0,0s0,0,0,0l-.1.07a.06.06,0,0,1,0,.07s0,0-.05,0l0,0a.06.06,0,0,0,0,.07l-.07,0a1,1,0,0,0-.15.14l-.05,0a.08.08,0,0,1,0,.1l-.08.06-.85.62a.36.36,0,0,0-.19,0l-.1,0,0,.06-.15.11-.09,0-.05.06-2,1.47a.53.53,0,0,1-.15.08.23.23,0,0,0-.07.07l0,.06a.18.18,0,0,1-.08.12l-.72.53a.12.12,0,0,1-.06.12l-1.9,1.4,0,0-.06,0a.25.25,0,0,0-.14,0l-1.85,1.36a.16.16,0,0,0-.14,0h0l0,0-.1.08,0,0s0,0-.05,0a.12.12,0,0,0-.08,0l-.07,0a.21.21,0,0,1-.1,0l-.36.06h0a2,2,0,0,1-.35,0l-.15,0a.06.06,0,0,0-.06,0,1.53,1.53,0,0,1-.45-.1H282a.23.23,0,0,1-.1,0l-.09,0-.07,0a.35.35,0,0,1-.12,0h-.06l0,0,0,0-.05,0-.08,0-.11-.07-.31-.25-.05,0s0,0,0,0V92.6l-.05,0s0,0,0,0,0,0,0,0v0s0,0,0,0l0,0-.06-.06,0-.07,0-.07a.18.18,0,0,1,0-.13s0,0,0,0a.14.14,0,0,1,0-.06l0,0a.08.08,0,0,1,0-.07.41.41,0,0,0,0-.24.15.15,0,0,1,0-.13.16.16,0,0,0,0-.12.15.15,0,0,1,0-.11,1.2,1.2,0,0,1,.17-.34s0,0,0,0a0,0,0,0,1,0,0l.24-.18.06,0s0,0,0-.09l.06,0,0-.06.09,0,0,0s0,0,0,0a.1.1,0,0,1,0-.09l.81-.59h.12l0,0s0,0,0,0,0,0,0,0l0,0,.18-.13.05-.06.1-.06a.36.36,0,0,1,.19,0h.05s0,0,0,0a.23.23,0,0,1,.06-.13L283,89l.08,0,2.73-2,.06-.06a.07.07,0,0,0,0-.08v0H286Z"/><path class="cls-5" d="M285,89.81s0,0,0,0,0,0,0,0l0,0a2.25,2.25,0,0,0,.26,0,.06.06,0,0,0,.06,0s0,0,0,0Zm2-.93,0,0h.06l.05,0,.05,0,0,0h.19s0,0,0-.06v0l0,0h.11l-.15-.14a.37.37,0,0,0-.21,0Zm1.14-1.2-.05,0-.08.06a.05.05,0,0,1,0,0h.11c.06,0,.09,0,.12,0s0,0,0-.08a.05.05,0,0,0,0,0v0A.09.09,0,0,0,288.12,87.68Zm.15-.7h.06v0h.14a.05.05,0,0,0,0,0s0,0,0-.08l0,0a0,0,0,0,0,0,0,.53.53,0,0,0-.15.08l-.07,0S288.26,87,288.27,87Zm-.91-1.12s0,0,0,0h.05a.25.25,0,0,0,.19,0l2.25-1.64v0H290s.05,0,.08,0l.13-.09h.1a.12.12,0,0,0,.09,0l.06,0h.09l0,0,.05,0h.1l.12,0h.59a.52.52,0,0,0,.17,0,.32.32,0,0,1,.14,0l.11,0H292l.08.05.1,0,.12.06h.12l.06,0,.64.52a.36.36,0,0,1,.08.09,1.08,1.08,0,0,1,.08.19l.08.17a.59.59,0,0,1,.05.22.26.26,0,0,0,0,.09v.11a.55.55,0,0,0,0,.18.2.2,0,0,1,0,.16.28.28,0,0,0,0,.18h0s0,0,0,0l0,0a0,0,0,0,0,0,0s0,0,0,0l-.1.07a.06.06,0,0,1,0,.07s0,0-.05,0l0,0a.06.06,0,0,0,0,.07l-.07,0a1,1,0,0,0-.15.14l-.05,0a.08.08,0,0,1,0,.1l-.08.06-.85.62a.36.36,0,0,0-.19,0l-.1,0,0,.06-.15.11-.09,0-.05.06-2,1.47a.53.53,0,0,1-.15.08.23.23,0,0,0-.07.07l0,.06a.18.18,0,0,1-.08.12l-.72.53a.12.12,0,0,1-.06.12l-1.9,1.4,0,0-.06,0a.25.25,0,0,0-.14,0l-1.85,1.36a.16.16,0,0,0-.14,0h0l0,0-.1.08,0,0s0,0-.05,0a.12.12,0,0,0-.08,0l-.07,0a.21.21,0,0,1-.1,0l-.36.06h0a2,2,0,0,1-.35,0l-.15,0a.06.06,0,0,0-.06,0,1.53,1.53,0,0,1-.45-.1H282a.23.23,0,0,1-.1,0l-.09,0-.07,0a.35.35,0,0,1-.12,0h-.06l0,0,0,0-.05,0-.08,0-.11-.07-.31-.25-.05,0s0,0,0,0V92.6l-.05,0s0,0,0,0,0,0,0,0v0s0,0,0,0l0,0-.06-.06,0-.07,0-.07a.18.18,0,0,1,0-.13s0,0,0,0a.14.14,0,0,1,0-.06l0,0a.08.08,0,0,1,0-.07.41.41,0,0,0,0-.24.15.15,0,0,1,0-.13.16.16,0,0,0,0-.12.15.15,0,0,1,0-.11,1.2,1.2,0,0,1,.17-.34s0,0,0,0a0,0,0,0,1,0,0l.24-.18.06,0s0,0,0-.09l.06,0,0-.06.09,0,0,0s0,0,0,0a.1.1,0,0,1,0-.09l.81-.59h.12l0,0s0,0,0,0,0,0,0,0l0,0,.18-.13.05-.06.1-.06a.36.36,0,0,1,.19,0h.05s0,0,0,0a.23.23,0,0,1,.06-.13L283,89l.08,0,2.73-2,.06-.06a.07.07,0,0,0,0-.08v0H286Z"/><path class="cls-4" d="M211.82,89.81s0,0,0,0,0,0,0,0l0,0a2.25,2.25,0,0,1-.26,0,.06.06,0,0,1-.06,0s0,0,0,0Zm-2-.93-.05,0h-.06l0,0-.05,0,0,0h-.19s0,0,0-.06v0l0,0h-.11l.15-.14a.37.37,0,0,1,.21,0Zm-1.14-1.2.05,0,.08.06a.05.05,0,0,0,0,0h-.11c-.06,0-.09,0-.12,0s0,0,0-.08a.05.05,0,0,1,0,0v0a.09.09,0,0,1,.09,0m-.15-.7h-.06v0h-.14l0,0s0,0,0-.08l0,0a0,0,0,0,1,0,0,.53.53,0,0,1,.15.08l.07,0s0,0,0,0m.91-1.12s0,0,0,0h-.05a.25.25,0,0,1-.19,0l-2.25-1.64v0h-.14s-.05,0-.08,0l-.13-.09h-.1a.12.12,0,0,1-.09,0l-.06,0h-.09l0,0,0,0h-.1l-.12,0h-.59a.52.52,0,0,1-.17,0,.32.32,0,0,0-.14,0l-.11,0h-.14l-.08.05-.1,0-.12.06h-.12l-.06,0-.64.52a.36.36,0,0,0-.08.09,1.08,1.08,0,0,0-.08.19l-.08.17a.59.59,0,0,0,0,.22.26.26,0,0,1,0,.09v.11a.55.55,0,0,1,0,.18.2.2,0,0,0,0,.16.28.28,0,0,1,0,.18h0s0,0,0,0,0,0,0,0a0,0,0,0,1,0,0s0,0,0,0l.1.07a.06.06,0,0,0,0,.07s0,0,.05,0,0,0,0,0a.06.06,0,0,1,0,.07l.07,0a1,1,0,0,1,.15.14l0,0a.08.08,0,0,0,0,.1l.08.06.85.62a.36.36,0,0,1,.19,0l.1,0,0,.06.15.11.09,0,0,.06,2,1.47a.53.53,0,0,0,.15.08.23.23,0,0,1,.07.07.21.21,0,0,1,0,.06.18.18,0,0,0,.08.12l.72.53a.12.12,0,0,0,.06.12l1.9,1.4,0,0,.06,0a.25.25,0,0,1,.14,0l1.85,1.36a.16.16,0,0,1,.14,0h.05l0,0,.1.08,0,0s0,0,.05,0a.12.12,0,0,1,.08,0l.07,0a.21.21,0,0,0,.1,0l.36.06h0a2,2,0,0,0,.35,0l.15,0a.06.06,0,0,1,.06,0,1.53,1.53,0,0,0,.45-.1h.11a.23.23,0,0,0,.1,0l.09,0,.07,0a.35.35,0,0,0,.12,0h.06l0,0,0,0,0,0,.08,0,.11-.07.31-.25.05,0s0,0,0,0V92.6l0,0s0,0,0,0,0,0,0,0v0l0,0,0,0,.06-.06,0-.07,0-.07a.18.18,0,0,0,0-.13s0,0,0,0a.14.14,0,0,0,0-.06l0,0a.08.08,0,0,0,0-.07.41.41,0,0,1,0-.24.15.15,0,0,0,0-.13.16.16,0,0,1,0-.12.15.15,0,0,0,0-.11,1.2,1.2,0,0,0-.17-.34s0,0,0,0a0,0,0,0,0,0,0l-.24-.18-.06,0s0,0,0-.09l0,0-.05-.06-.09,0,0,0s0,0,0,0a.1.1,0,0,0,0-.09l-.81-.59h-.12l0,0s0,0,0,0,0,0,0,0l0,0-.18-.13,0-.06-.1-.06a.36.36,0,0,0-.19,0h0s0,0,0,0a.23.23,0,0,0-.06-.13l-.05-.06-.08,0L211,87l-.06-.06a.07.07,0,0,1,0-.08v0h-.11Z"/><path class="cls-5" d="M211.82,89.81s0,0,0,0,0,0,0,0l0,0a2.25,2.25,0,0,1-.26,0,.06.06,0,0,1-.06,0s0,0,0,0Zm-2-.93-.05,0h-.06l0,0-.05,0,0,0h-.19s0,0,0-.06v0l0,0h-.11l.15-.14a.37.37,0,0,1,.21,0Zm-1.14-1.2.05,0,.08.06a.05.05,0,0,0,0,0h-.11c-.06,0-.09,0-.12,0s0,0,0-.08a.05.05,0,0,1,0,0v0A.09.09,0,0,1,208.67,87.68Zm-.15-.7h-.06v0h-.14l0,0s0,0,0-.08l0,0a0,0,0,0,1,0,0,.53.53,0,0,1,.15.08l.07,0S208.53,87,208.52,87Zm.91-1.12s0,0,0,0h-.05a.25.25,0,0,1-.19,0l-2.25-1.64v0h-.14s-.05,0-.08,0l-.13-.09h-.1a.12.12,0,0,1-.09,0l-.06,0h-.09l0,0,0,0h-.1l-.12,0h-.59a.52.52,0,0,1-.17,0,.32.32,0,0,0-.14,0l-.11,0h-.14l-.08.05-.1,0-.12.06h-.12l-.06,0-.64.52a.36.36,0,0,0-.08.09,1.08,1.08,0,0,0-.08.19l-.08.17a.59.59,0,0,0,0,.22.26.26,0,0,1,0,.09v.11a.55.55,0,0,1,0,.18.2.2,0,0,0,0,.16.28.28,0,0,1,0,.18h0s0,0,0,0,0,0,0,0a0,0,0,0,1,0,0s0,0,0,0l.1.07a.06.06,0,0,0,0,.07s0,0,.05,0,0,0,0,0a.06.06,0,0,1,0,.07l.07,0a1,1,0,0,1,.15.14l0,0a.08.08,0,0,0,0,.1l.08.06.85.62a.36.36,0,0,1,.19,0l.1,0,0,.06.15.11.09,0,0,.06,2,1.47a.53.53,0,0,0,.15.08.23.23,0,0,1,.07.07.21.21,0,0,1,0,.06.18.18,0,0,0,.08.12l.72.53a.12.12,0,0,0,.06.12l1.9,1.4,0,0,.06,0a.25.25,0,0,1,.14,0l1.85,1.36a.16.16,0,0,1,.14,0h.05l0,0,.1.08,0,0s0,0,.05,0a.12.12,0,0,1,.08,0l.07,0a.21.21,0,0,0,.1,0l.36.06h0a2,2,0,0,0,.35,0l.15,0a.06.06,0,0,1,.06,0,1.53,1.53,0,0,0,.45-.1h.11a.23.23,0,0,0,.1,0l.09,0,.07,0a.35.35,0,0,0,.12,0h.06l0,0,0,0,0,0,.08,0,.11-.07.31-.25.05,0s0,0,0,0V92.6l0,0s0,0,0,0,0,0,0,0v0l0,0,0,0,.06-.06,0-.07,0-.07a.18.18,0,0,0,0-.13s0,0,0,0a.14.14,0,0,0,0-.06l0,0a.08.08,0,0,0,0-.07.41.41,0,0,1,0-.24.15.15,0,0,0,0-.13.16.16,0,0,1,0-.12.15.15,0,0,0,0-.11,1.2,1.2,0,0,0-.17-.34s0,0,0,0a0,0,0,0,0,0,0l-.24-.18-.06,0s0,0,0-.09l0,0-.05-.06-.09,0,0,0s0,0,0,0a.1.1,0,0,0,0-.09l-.81-.59h-.12l0,0s0,0,0,0,0,0,0,0l0,0-.18-.13,0-.06-.1-.06a.36.36,0,0,0-.19,0h0s0,0,0,0a.23.23,0,0,0-.06-.13l-.05-.06-.08,0L211,87l-.06-.06a.07.07,0,0,1,0-.08v0h-.11Z"/><path class="cls-4" d="M292,83.24h0m1.6,3.59,0,0,0,0m-6.13-1.67h0Zm-.28,4-.14.12a.64.64,0,0,0,.15,0Zm-3.84.35h0Zm-1.28,3.08,0,0h0l.15,0,0,.07a.53.53,0,0,0,.12,0h.23l.21,0,0,0h.18l.23,0a.36.36,0,0,1,.17-.07l.09-.16h.27l.09,0,1.7-1.24a.77.77,0,0,1,.32-.14l1.6-1.17v-.09l.18-.13-1,0-.09-.17-.14-.09-.65-.52.69-.51-.36,0,1-.78-.86-.05,1.43-1a1.86,1.86,0,0,1,.26-.17l.35-.27.67.53.06.39a.67.67,0,0,1-.18.45l0,.52-.14,0L289,88l-.61.53-.15,0-.1,0,.49.56,0,0a1,1,0,0,1,.21-.2l2.6-1.88a.83.83,0,0,1,.3-.13l.45-.33,0-.07.36-.26-.08-.14.3-.22,0-.11.08,0a1,1,0,0,1,0-.24.45.45,0,0,1,0-.11l-.06-.12,0-.11-.5-.41H292l-.21-.13-.17,0-.09,0a1.09,1.09,0,0,1-.26,0s0,0-.1,0h-.14l-.08.23-.55-.07-.15.11h-.12L288,86.27a1,1,0,0,1-.32.15L284,89.09l1.94.16.08.9-.51.4-.3,0a.85.85,0,0,1-.24,0l-.2,0-.09-.07-.31-.11,0-.16-.86-.71h0l0,.11-.5.33h0l-.32.25a.67.67,0,0,1-.29.13l-.51.38a1,1,0,0,1-.08.11v0l-.39.37v0l-.19.15,0,.08a.64.64,0,0,1,0,.2l0,0v.14l.27.39,0,0Zm-1.92-.09h0Zm.07.25v0h0m1.27,1.07,0-.05h0l-.27-.09-.06-.1-.93-.8-.17-.4a1.56,1.56,0,0,1,0-.16l-.15-.24.06-.25a.74.74,0,0,1,0-.44A.82.82,0,0,1,280,91a2.55,2.55,0,0,1,.13-.29v-.19l.22-.18,0-.06.49-.38a.8.8,0,0,1,.19-.21l1.18-.88a.71.71,0,0,1,.17-.11l.12,0v0l.08-.11.23-.13,2.33-1.7,0-.06.64-.47h.11l.88-.65h0l.51-.4h.15l2.32-1.73h.17l.27-.19.15,0h0l.11-.05a1.48,1.48,0,0,1,.24,0l.33,0h.67a.86.86,0,0,1,.17,0l.16-.12.41.31.13,0h.07a.93.93,0,0,1,.29.16l.86.75a2,2,0,0,1,.14.32l.06.12a1.42,1.42,0,0,1,.12.46v.13l0,0v.13a.72.72,0,0,1,0,.41l.08.32-.19.13a.26.26,0,0,1-.05.09l.08.17-.5.39a.61.61,0,0,1-.21.24l-1.09.8-.18,0-2.28,1.67-.1.07a1,1,0,0,1-.23.26l-.56.41a.9.9,0,0,1-.23.25l-2,1.48-.18,0-2,1.47h-.13l-.18.13h-.18l-.2.06-.25,0-.22,0a3.23,3.23,0,0,1-.44,0l-.18,0a2.44,2.44,0,0,1-.54-.09h-.13a1,1,0,0,1-.21-.07Z"/><path class="cls-5" d="M292,83.24h0Zm1.6,3.59,0,0Zm-6.13-1.67h0Zm-.28,4-.14.12a.64.64,0,0,0,.15,0Zm-3.84.35h0Zm-1.28,3.08,0,0h0l.15,0,0,.07a.53.53,0,0,0,.12,0h.23l.21,0,0,0h.18l.23,0a.36.36,0,0,1,.17-.07l.09-.16h.27l.09,0,1.7-1.24a.77.77,0,0,1,.32-.14l1.6-1.17v-.09l.18-.13-1,0-.09-.17-.14-.09-.65-.52.69-.51-.36,0,1-.78-.86-.05,1.43-1a1.86,1.86,0,0,1,.26-.17l.35-.27.67.53.06.39a.67.67,0,0,1-.18.45l0,.52-.14,0L289,88l-.61.53-.15,0-.1,0,.49.56,0,0a1,1,0,0,1,.21-.2l2.6-1.88a.83.83,0,0,1,.3-.13l.45-.33,0-.07.36-.26-.08-.14.3-.22,0-.11.08,0a1,1,0,0,1,0-.24.45.45,0,0,1,0-.11l-.06-.12,0-.11-.5-.41H292l-.21-.13-.17,0-.09,0a1.09,1.09,0,0,1-.26,0s0,0-.1,0h-.14l-.08.23-.55-.07-.15.11h-.12L288,86.27a1,1,0,0,1-.32.15L284,89.09l1.94.16.08.9-.51.4-.3,0a.85.85,0,0,1-.24,0l-.2,0-.09-.07-.31-.11,0-.16-.86-.71h0l0,.11-.5.33h0l-.32.25a.67.67,0,0,1-.29.13l-.51.38a1,1,0,0,1-.08.11v0l-.39.37v0l-.19.15,0,.08a.64.64,0,0,1,0,.2l0,0v.14l.27.39,0,0Zm-1.92-.09h0Zm.07.25v0h0Zm1.27,1.07,0-.05h0l-.27-.09-.06-.1-.93-.8-.17-.4a1.56,1.56,0,0,1,0-.16l-.15-.24.06-.25a.74.74,0,0,1,0-.44A.82.82,0,0,1,280,91a2.55,2.55,0,0,1,.13-.29v-.19l.22-.18,0-.06.49-.38a.8.8,0,0,1,.19-.21l1.18-.88a.71.71,0,0,1,.17-.11l.12,0v0l.08-.11.23-.13,2.33-1.7,0-.06.64-.47h.11l.88-.65h0l.51-.4h.15l2.32-1.73h.17l.27-.19.15,0h0l.11-.05a1.48,1.48,0,0,1,.24,0l.33,0h.67a.86.86,0,0,1,.17,0l.16-.12.41.31.13,0h.07a.93.93,0,0,1,.29.16l.86.75a2,2,0,0,1,.14.32l.06.12a1.42,1.42,0,0,1,.12.46v.13l0,0v.13a.72.72,0,0,1,0,.41l.08.32-.19.13a.26.26,0,0,1-.05.09l.08.17-.5.39a.61.61,0,0,1-.21.24l-1.09.8-.18,0-2.28,1.67-.1.07a1,1,0,0,1-.23.26l-.56.41a.9.9,0,0,1-.23.25l-2,1.48-.18,0-2,1.47h-.13l-.18.13h-.18l-.2.06-.25,0-.22,0a3.23,3.23,0,0,1-.44,0l-.18,0a2.44,2.44,0,0,1-.54-.09h-.13a1,1,0,0,1-.21-.07Z"/><path class="cls-4" d="M204.76,83.24h0m-1.6,3.59,0,0,0,0m6.13-1.67h0Zm.28,4,.14.12a.64.64,0,0,1-.15,0Zm3.84.35h0Zm1.28,3.08-.05,0h0l-.15,0,0,.07a.53.53,0,0,1-.12,0h-.23l-.21,0,0,0h-.18l-.23,0a.41.41,0,0,0-.17-.07l-.09-.16h-.27l-.09,0-1.7-1.24a.77.77,0,0,0-.32-.14l-1.6-1.17v-.09l-.18-.13,1,0,.09-.17.14-.09.65-.52-.69-.51.36,0-1-.78.86-.05-1.43-1-.26-.17-.35-.27-.67.53-.06.39a.67.67,0,0,0,.18.45l0,.52.14,0,0,.14.61.53.15,0,.1,0-.49.56,0,0a1,1,0,0,0-.21-.2L205.38,87a.83.83,0,0,0-.3-.13l-.45-.33,0-.07-.36-.26.08-.14-.3-.22,0-.11-.08,0a1,1,0,0,0,0-.24.45.45,0,0,0,0-.11l.06-.12,0-.11.5-.41h.14l.21-.13.17,0,.09,0a1.09,1.09,0,0,0,.26,0s0,0,.1,0h.14l.08.23.55-.07.15.11h.12l2.15,1.57a1,1,0,0,0,.32.15l3.65,2.67-1.94.16-.08.9.51.4.3,0a.85.85,0,0,0,.24,0l.2,0,.09-.07.31-.11,0-.16.86-.71h0l0,.11.5.33h0l.32.25a.67.67,0,0,0,.29.13l.51.38a1,1,0,0,0,.08.11v0l.39.37v0l.19.15,0,.08a.64.64,0,0,0,0,.2l0,0v.14l-.27.39,0,0Zm1.92-.09h0Zm-.07.25v0h0m-1.27,1.07,0-.05h0l.27-.09.06-.1.93-.8.17-.4a1.56,1.56,0,0,0,.05-.16L217,92l-.06-.25a.74.74,0,0,0,0-.44.82.82,0,0,0-.07-.31,2.55,2.55,0,0,0-.13-.29v-.19l-.22-.18,0-.06-.49-.38a.8.8,0,0,0-.19-.21l-1.18-.88a.71.71,0,0,0-.17-.11l-.12,0v0l-.08-.11-.23-.13-2.33-1.7,0-.06-.64-.47H211l-.88-.65h0l-.51-.4h-.15l-2.32-1.73h-.17l-.27-.19-.15,0h0l-.11-.05a1.48,1.48,0,0,0-.24,0l-.33,0h-.67a.86.86,0,0,0-.17,0l-.16-.12-.41.31-.13,0h-.07a.93.93,0,0,0-.29.16l-.86.75a2,2,0,0,0-.14.32l-.06.12a1.42,1.42,0,0,0-.12.46v.13l0,0v.13a.72.72,0,0,0,0,.41l-.08.32.19.13a.26.26,0,0,0,0,.09l-.08.17.5.39a.61.61,0,0,0,.21.24l1.09.8.18,0,2.28,1.67.1.07a1,1,0,0,0,.23.26l.56.41a.9.9,0,0,0,.23.25l2,1.48.18,0,2,1.47h.13l.18.13h.18l.2.06.25,0,.22,0a3.23,3.23,0,0,0,.44,0l.18,0a2.44,2.44,0,0,0,.54-.09h.13a1,1,0,0,0,.21-.07Z"/><path class="cls-5" d="M204.76,83.24h0Zm-1.6,3.59,0,0Zm6.13-1.67h0Zm.28,4,.14.12a.64.64,0,0,1-.15,0Zm3.84.35h0Zm1.28,3.08-.05,0h0l-.15,0,0,.07a.53.53,0,0,1-.12,0h-.23l-.21,0,0,0h-.18l-.23,0a.41.41,0,0,0-.17-.07l-.09-.16h-.27l-.09,0-1.7-1.24a.77.77,0,0,0-.32-.14l-1.6-1.17v-.09l-.18-.13,1,0,.09-.17.14-.09.65-.52-.69-.51.36,0-1-.78.86-.05-1.43-1-.26-.17-.35-.27-.67.53-.06.39a.67.67,0,0,0,.18.45l0,.52.14,0,0,.14.61.53.15,0,.1,0-.49.56,0,0a1,1,0,0,0-.21-.2L205.38,87a.83.83,0,0,0-.3-.13l-.45-.33,0-.07-.36-.26.08-.14-.3-.22,0-.11-.08,0a1,1,0,0,0,0-.24.45.45,0,0,0,0-.11l.06-.12,0-.11.5-.41h.14l.21-.13.17,0,.09,0a1.09,1.09,0,0,0,.26,0s0,0,.1,0h.14l.08.23.55-.07.15.11h.12l2.15,1.57a1,1,0,0,0,.32.15l3.65,2.67-1.94.16-.08.9.51.4.3,0a.85.85,0,0,0,.24,0l.2,0,.09-.07.31-.11,0-.16.86-.71h0l0,.11.5.33h0l.32.25a.67.67,0,0,0,.29.13l.51.38a1,1,0,0,0,.08.11v0l.39.37v0l.19.15,0,.08a.64.64,0,0,0,0,.2l0,0v.14l-.27.39,0,0Zm1.92-.09h0Zm-.07.25v0h0Zm-1.27,1.07,0-.05h0l.27-.09.06-.1.93-.8.17-.4a1.56,1.56,0,0,0,.05-.16L217,92l-.06-.25a.74.74,0,0,0,0-.44.82.82,0,0,0-.07-.31,2.55,2.55,0,0,0-.13-.29v-.19l-.22-.18,0-.06-.49-.38a.8.8,0,0,0-.19-.21l-1.18-.88a.71.71,0,0,0-.17-.11l-.12,0v0l-.08-.11-.23-.13-2.33-1.7,0-.06-.64-.47H211l-.88-.65h0l-.51-.4h-.15l-2.32-1.73h-.17l-.27-.19-.15,0h0l-.11-.05a1.48,1.48,0,0,0-.24,0l-.33,0h-.67a.86.86,0,0,0-.17,0l-.16-.12-.41.31-.13,0h-.07a.93.93,0,0,0-.29.16l-.86.75a2,2,0,0,0-.14.32l-.06.12a1.42,1.42,0,0,0-.12.46v.13l0,0v.13a.72.72,0,0,0,0,.41l-.08.32.19.13a.26.26,0,0,0,0,.09l-.08.17.5.39a.61.61,0,0,0,.21.24l1.09.8.18,0,2.28,1.67.1.07a1,1,0,0,0,.23.26l.56.41a.9.9,0,0,0,.23.25l2,1.48.18,0,2,1.47h.13l.18.13h.18l.2.06.25,0,.22,0a3.23,3.23,0,0,0,.44,0l.18,0a2.44,2.44,0,0,0,.54-.09h.13a1,1,0,0,0,.21-.07Z"/></svg>