<svg id="Layer_1" data-name="Layer 1" xmlns="http://www.w3.org/2000/svg" viewBox="0 0 360 360"><defs><style>.cls-1{fill:#231f20;}</style></defs><title>Black CMYKVector</title><path class="cls-1" d="M135.8,216.91c-.64-1.61-1.26-3.24-1.87-4.85s-1.22-3.22-1.83-4.83-1.27-3.19-2-4.72a1.46,1.46,0,0,0-.66-.64,2.71,2.71,0,0,0-1-.3,2.37,2.37,0,0,0-1.14.19,1.94,1.94,0,0,0-.93.89c-.12.22-.26.48-.41.78l-.46.91-.43.91c-.15.29-.28.56-.4.8-.46.9-.9,1.81-1.3,2.72s-.84,1.81-1.27,2.71c-.81,1.64-1.57,3.35-2.28,5.07s-1.49,3.41-2.33,5a1.71,1.71,0,0,0-.13,1.5,2.15,2.15,0,0,0,.89,1,2,2,0,0,0,1.3.23,1.59,1.59,0,0,0,1.14-.91c.14-.28.28-.56.43-.83l.42-.84c.1-.22.23-.46.36-.7a2,2,0,0,1,.44-.55,1.73,1.73,0,0,1,.92-.25c.36,0,.71,0,1,0l1.33.09,1.32.06c.66,0,1.34,0,2,0l2-.06,1.06,0a1.63,1.63,0,0,1,.92.24.8.8,0,0,1,.32.31l.27.45c.14.28.27.55.38.81a7.59,7.59,0,0,0,.4.81,2,2,0,0,0,.52,1,1.55,1.55,0,0,0,1.21.46h.16a1.65,1.65,0,0,0,.93-.26,1.73,1.73,0,0,0,.62-.67,2.22,2.22,0,0,0,.24-.89,2,2,0,0,0-.19-1C137.11,220.12,136.43,218.52,135.8,216.91Zm-4.56-.51a1.18,1.18,0,0,1-.64.26l-.76.08h-1c-.34,0-.68,0-1,0-.68,0-1.36,0-2-.09l-.81-.05a1.12,1.12,0,0,1-.66-.2.39.39,0,0,1-.14-.32,1.27,1.27,0,0,1,.1-.5c.07-.17.15-.35.24-.53a4.31,4.31,0,0,1,.23-.44c.16-.39.33-.78.51-1.16s.37-.76.58-1.16.29-.62.45-.91.32-.62.46-.95l.42-1c.14-.34.29-.66.45-1l.29-.61a.56.56,0,0,1,.38-.35c.09,0,.19,0,.28.17a2.76,2.76,0,0,1,.21.51l.45,1.18c.16.39.31.8.46,1.22l.42,1.23c.16.43.31.87.44,1.3l.41,1.3a4.64,4.64,0,0,0,.2.49,4.07,4.07,0,0,1,.22.58,1.65,1.65,0,0,1,.07.57A.4.4,0,0,1,131.24,216.4Z"/><path class="cls-1" d="M243.87,223.63a1.94,1.94,0,0,0,.21-1.25,2.18,2.18,0,0,0-.54-1.17,1.59,1.59,0,0,0-1.25-.53h-.09a.62.62,0,0,0-.25,0l-.13,0a1.55,1.55,0,0,1-1.18-.28,2.24,2.24,0,0,1-.57-.62,4.84,4.84,0,0,1-.42-.78,8.14,8.14,0,0,1-.31-.87l-.26-.84c-.08-.3-.17-.6-.26-.9s-.17-.59-.26-.89a1.06,1.06,0,0,1,0-.45.67.67,0,0,1,.17-.32,2.35,2.35,0,0,1,.33-.3c.14-.11.28-.24.42-.37a6.6,6.6,0,0,0,1.42-1.89,7.49,7.49,0,0,0,.72-2.17,6.89,6.89,0,0,0,0-2.31,8,8,0,0,0-1.82-3.91,9.17,9.17,0,0,0-3.57-2.43,10.34,10.34,0,0,0-2.21-.55,16.56,16.56,0,0,0-2.55-.16,15.19,15.19,0,0,0-2.54.28,8.33,8.33,0,0,0-2.18.72.84.84,0,0,0-.17.13l-.1.11a.67.67,0,0,0-.24.17,1.28,1.28,0,0,0-.16.19,2.42,2.42,0,0,0-.26.47,1.59,1.59,0,0,0-.1.61c0,3.24.07,6.47.15,9.61s0,6.38-.15,9.6a1.48,1.48,0,0,0,.52,1.35,2,2,0,0,0,2.52,0,1.75,1.75,0,0,0,.68-1.34c0-.63.06-1.26.07-1.87s0-1.24,0-1.89c0-.14,0-.32,0-.54a4.62,4.62,0,0,1,.08-.65,2.17,2.17,0,0,1,.17-.58.63.63,0,0,1,.33-.33,1.08,1.08,0,0,1,.58-.06,3.38,3.38,0,0,0,.7,0,8.71,8.71,0,0,0,.87,0,7.21,7.21,0,0,0,.84-.09,4.64,4.64,0,0,1,1.57.42,2,2,0,0,1,1,1.26q.3.84.51,1.68a10.89,10.89,0,0,0,.58,1.69,3.94,3.94,0,0,0,.94,1.36,4.85,4.85,0,0,0,1.33.87,5.74,5.74,0,0,0,1.53.45,7.45,7.45,0,0,0,1.56.07.27.27,0,0,0,.13,0,.21.21,0,0,0,.12,0h.18l.23,0A1.34,1.34,0,0,0,243.87,223.63Zm-5.93-13.49a2.85,2.85,0,0,1-1.05,1.39,5.58,5.58,0,0,1-1.82.86,12.87,12.87,0,0,1-2.24.44l-.46.06c-.25,0-.53.07-.85.09a7.53,7.53,0,0,1-1,0,1.64,1.64,0,0,1-.71-.17h0l0,0a.72.72,0,0,1-.27-.61h0c0-.29,0-.56,0-.81s0-.76,0-1.12,0-.74,0-1.13,0-.81,0-1.22,0-.83,0-1.26c0-.14,0-.3,0-.47a2.9,2.9,0,0,1,0-.51,1.41,1.41,0,0,1,.11-.47.75.75,0,0,1,.23-.32,1.34,1.34,0,0,1,.74-.26c.31,0,.58-.05.82-.05s.72,0,1.09.05l1.11.07a4.85,4.85,0,0,1,2.76,1,4.5,4.5,0,0,1,1.58,2.43A3.49,3.49,0,0,1,237.94,210.14Z"/><path class="cls-1" d="M163.44,222.67a3.75,3.75,0,0,0,1.18-1.33,2.64,2.64,0,0,0,.34-.72,2,2,0,0,0,0-.8,1.8,1.8,0,0,0-.3-.71,1.25,1.25,0,0,0-.66-.45,1.52,1.52,0,0,0-.81-.07,2.86,2.86,0,0,0-1,.49h0l-.88.64-.67.38c-.22.13-.44.25-.65.35a7.18,7.18,0,0,1-1.26.37c-.48.09-.92.18-1.32.29a11.81,11.81,0,0,1-1.47.19,7,7,0,0,1-1.46-.07,5.43,5.43,0,0,1-2.41-1,7.67,7.67,0,0,1-1.79-1.85,8.72,8.72,0,0,1-1.13-2.36,11.05,11.05,0,0,1-.5-2.51,9.7,9.7,0,0,1,.69-4.39,7.75,7.75,0,0,1,2.8-3.38,5.82,5.82,0,0,1,2.23-.92,7.13,7.13,0,0,1,2.48,0,6.53,6.53,0,0,1,2.29.81,4.83,4.83,0,0,1,1.67,1.66,1.55,1.55,0,0,0,1.2.86,2.13,2.13,0,0,0,1.32-.26,1.88,1.88,0,0,0,.86-1,1.65,1.65,0,0,0-.19-1.47,8.4,8.4,0,0,0-2.4-2.61,9.54,9.54,0,0,0-3.06-1.4,11.08,11.08,0,0,0-3.42-.29,12.12,12.12,0,0,0-3.46.76,8.92,8.92,0,0,0-3.12,2,10.72,10.72,0,0,0-2.06,2.81,13.25,13.25,0,0,0-1.15,3.33,17.87,17.87,0,0,0-.36,3.57,12.55,12.55,0,0,0,.53,3.88,11.26,11.26,0,0,0,1.65,3.35,10.79,10.79,0,0,0,2.69,2.57,10.57,10.57,0,0,0,3.66,1.49,8.53,8.53,0,0,0,1.58.12,17.13,17.13,0,0,0,2.07-.14,21,21,0,0,0,2.25-.41,13.7,13.7,0,0,0,2.19-.7A8.88,8.88,0,0,0,163.44,222.67Z"/><path class="cls-1" d="M108.59,214.54a2,2,0,0,0,0-2.51,1.71,1.71,0,0,0-1.34-.63c-2.19-.08-4.41.2-6.6,0-.95-.09-1.15-.54-1.15-1.42,0-.26,0-.52,0-.79s0-.53,0-.82,0-.77,0-1.17A4.9,4.9,0,0,1,99.6,206a1.26,1.26,0,0,1,.35-.71.75.75,0,0,1,.41-.2h.54l1.69,0h1.67c2.3,0,4.56,0,6.73-.06a2.09,2.09,0,0,0,.43,0,1.45,1.45,0,0,0,.47-.16l0,0a.18.18,0,0,0,.07-.05,1.59,1.59,0,0,0,.81-.91,1.84,1.84,0,0,0,0-1.16,2.13,2.13,0,0,0-.62-1,1.7,1.7,0,0,0-1.15-.41l-6.34.06c-2.32,0-4.74-.14-7.07,0a2.26,2.26,0,0,0-.82.16,1.66,1.66,0,0,0-.68.78,4.14,4.14,0,0,0-.38,2.28v2.85c0,1.88,0,3.76,0,5.63,0,3.18-.1,6.42-.26,9.65a1.49,1.49,0,0,0,.52,1.37,2,2,0,0,0,1.25.43,2.05,2.05,0,0,0,1.27-.45,1.74,1.74,0,0,0,.68-1.33q.06-1,.09-2.07c0-.67,0-1.37.09-2.09v-1c0-.34,0-.68,0-1l.06-.7a.72.72,0,0,1,.27-.51.86.86,0,0,1,.5-.15,11.27,11.27,0,0,0,1.3,0h.68l2.42-.06h.08c.81,0,1.65,0,2.5,0A1.64,1.64,0,0,0,108.59,214.54Z"/><path class="cls-1" d="M216.29,215.89a12.89,12.89,0,0,0,.05-4.51,13.78,13.78,0,0,0-1.46-4.26,13.31,13.31,0,0,0-2.75-3.5,10.87,10.87,0,0,0-3.87-2.27,7.48,7.48,0,0,0-3.13-.42,8.7,8.7,0,0,0-2.87.76,10.14,10.14,0,0,0-2.54,1.65,13.55,13.55,0,0,0-2.08,2.33,16.79,16.79,0,0,0-1.54,2.7,12.69,12.69,0,0,0-.92,2.84,8.64,8.64,0,0,0-.06,2.7,13,13,0,0,0,.72,2.9,15.35,15.35,0,0,0,1.37,2.79,14.06,14.06,0,0,0,1.92,2.44,10,10,0,0,0,2.35,1.78,6.84,6.84,0,0,0,2.65.81,8.23,8.23,0,0,0,2,.26,8,8,0,0,0,2.11-.29,10.75,10.75,0,0,0,3.68-1.82,12.53,12.53,0,0,0,2.82-3.07A10.41,10.41,0,0,0,216.29,215.89Zm-4.12.15a9.57,9.57,0,0,1-1.07,2.44,6.76,6.76,0,0,1-1.74,1.87,4.38,4.38,0,0,1-2.36.84,3.79,3.79,0,0,1-.58,0l-.55-.05a6.86,6.86,0,0,1-2.42-.73h0a8.24,8.24,0,0,1-3.62-3.52,8,8,0,0,1-.82-2.4,9.7,9.7,0,0,1-.16-1.69,8.28,8.28,0,0,1,.13-1.69,8.39,8.39,0,0,1,1.27-3,7.93,7.93,0,0,1,2.27-2.24,6.67,6.67,0,0,1,2.91-1,5.07,5.07,0,0,1,.55,0,6,6,0,0,1,2.64.64,5.88,5.88,0,0,1,1.88,1.42,7.52,7.52,0,0,1,1.27,2,10,10,0,0,1,.69,2.31,10.66,10.66,0,0,1,.15,2.38A11.19,11.19,0,0,1,212.17,216Z"/><path class="cls-1" d="M268.31,201.64a1.85,1.85,0,0,0-.77-.48,1.6,1.6,0,0,0-.87,0,1.71,1.71,0,0,0-.84.57c-.69.85-1.4,1.76-2.11,2.69s-1.39,1.86-2.05,2.77c-.36.51-.7,1-1,1.56s-.64,1-1,1.54a2.77,2.77,0,0,1-.49.56c-.05,0-.21.17-.58,0a3.33,3.33,0,0,1-1.06-1.14c-.29-.5-.55-1-.77-1.42a14.2,14.2,0,0,0-.95-1.59l-1-1.51c-.34-.51-.68-1-1-1.52A9.89,9.89,0,0,1,253,202a1.49,1.49,0,0,0-1.05-1,1.75,1.75,0,0,0-1.28.23,2.43,2.43,0,0,0-.93,1,1.74,1.74,0,0,0,0,1.51,11,11,0,0,0,.85,1.68c.33.52.67,1,1,1.53l1,1.52c.34.5.66,1,1,1.56s.6,1.05.93,1.56.67,1,1,1.51a15.24,15.24,0,0,1,1,1.85,4.76,4.76,0,0,1,.4,2c0,.79,0,1.57.05,2.34v.3c0,.87,0,1.77,0,2.64a1.83,1.83,0,0,0,.12,1,2.41,2.41,0,0,0,.59.84,1.8,1.8,0,0,0,.92.41h.16a1.72,1.72,0,0,0,.93-.31,2,2,0,0,0,.71-.78,3,3,0,0,0,.3-1,6,6,0,0,0,.06-1c0-.34,0-.67,0-1a17.39,17.39,0,0,0-.05-1.92c0-.62-.07-1.26-.07-1.9a3.29,3.29,0,0,1,.29-1.43,13.93,13.93,0,0,1,.72-1.36,13.48,13.48,0,0,1,.84-1.32c.3-.42.6-.87.88-1.34.76-1.2,1.57-2.4,2.42-3.57s1.74-2.33,2.63-3.42a1.69,1.69,0,0,0,.44-1,2,2,0,0,0-.11-.94A2.05,2.05,0,0,0,268.31,201.64Z"/><path class="cls-1" d="M189.18,205a1.51,1.51,0,0,0,1.17-.88,2,2,0,0,0,.1-1.32,2,2,0,0,0-.76-1.12,1.68,1.68,0,0,0-1.47-.27,8.86,8.86,0,0,1-1.87.23h0c-.64,0-1.31,0-2,0l-2-.11c-.66,0-1.3-.06-1.9-.06-1.33,0-2.67.06-4,.17a34.38,34.38,0,0,1-3.94.1,1.59,1.59,0,0,0-1.35.54,1.9,1.9,0,0,0-.45,1.25,2.11,2.11,0,0,0,.45,1.29,1.68,1.68,0,0,0,1.34.64c.65,0,1.31,0,2,0s1.31,0,1.94-.08a2.8,2.8,0,0,1,1.15.13,1,1,0,0,1,.52.46,2.26,2.26,0,0,1,.2.85c0,.35,0,.77,0,1.25l.06,3.27c0,1.09,0,2.19,0,3.27,0,1.4,0,2.79-.09,4.12s-.06,2.75-.06,4.16a1.58,1.58,0,0,0,.56,1.34,1.73,1.73,0,0,0,1.09.39h.14a2.29,2.29,0,0,0,1.25-.5,1.8,1.8,0,0,0,.7-1.3c.08-.71.13-1.49.15-2.3s0-1.66,0-2.49,0-1.66,0-2.48,0-1.58,0-2.29q0-.42,0-1.17c0-.5,0-1,0-1.6s0-1.16,0-1.76a13.24,13.24,0,0,1,.12-1.63,6.86,6.86,0,0,1,.29-1.27.91.91,0,0,1,.45-.57,1.9,1.9,0,0,1,.63,0l.69.06.83,0h.81a14.69,14.69,0,0,0,1.62,0A10.92,10.92,0,0,0,189.18,205Z"/><path class="cls-1" d="M158,234.89a.68.68,0,0,0-.44.16.56.56,0,0,0-.2.47v1.73c0,.12,0,.24,0,.35l0,.33a.92.92,0,0,1-.05.25.29.29,0,0,1-.18.18,1.17,1.17,0,0,1-.54.06,3.62,3.62,0,0,0-.56,0l-.65,0-.66,0h-.52a.91.91,0,0,1-.49-.13.29.29,0,0,1-.14-.22,1.49,1.49,0,0,1,0-.28,2.61,2.61,0,0,1,0-.4V237c0-.26,0-.53,0-.8s0-.53,0-.79a.58.58,0,0,0-.2-.47.71.71,0,0,0-.45-.16.69.69,0,0,0-.45.16.58.58,0,0,0-.2.47q0,.9,0,1.83c0,.61,0,1.22,0,1.83s0,1.23,0,1.84,0,1.22-.11,1.82h0v.05a.56.56,0,0,0,.2.47.68.68,0,0,0,.42.15.66.66,0,0,0,.44-.16.62.62,0,0,0,.24-.46c0-.54.08-1.08.1-1.62,0-.12,0-.24,0-.36s0-.23,0-.35a1.13,1.13,0,0,0,0-.32.34.34,0,0,1,.09-.29.42.42,0,0,1,.18-.11,1,1,0,0,1,.25,0h.49l1,0,1,0h.34a.34.34,0,0,1,.29.16.44.44,0,0,1,.09.27c0,.11,0,.21,0,.31a2.36,2.36,0,0,1,0,.37c0,.12,0,.25,0,.38s0,.53,0,.8v.8a.57.57,0,0,0,.2.48.7.7,0,0,0,.44.16.66.66,0,0,0,.44-.16.55.55,0,0,0,.21-.48c0-1.21,0-2.42,0-3.62s0-2.42,0-3.63a.54.54,0,0,0-.2-.47A.66.66,0,0,0,158,234.89Z"/><path class="cls-1" d="M102.83,235.54a.56.56,0,0,0-.12-.38.72.72,0,0,0-.31-.21.54.54,0,0,0-.35-.07.53.53,0,0,0-.36.21,7.62,7.62,0,0,0-.8,1.15,12.29,12.29,0,0,1-.76,1.17l-.26.34-.3.38-.27-.38-.27-.34a12.4,12.4,0,0,1-.77-1.17,7.62,7.62,0,0,0-.8-1.15.53.53,0,0,0-.35-.21.56.56,0,0,0-.36.07.75.75,0,0,0-.3.21.56.56,0,0,0-.12.38c0,1.22,0,2.43,0,3.63s0,2.4,0,3.63a.56.56,0,0,0,.2.46.67.67,0,0,0,.45.16.71.71,0,0,0,.45-.16.56.56,0,0,0,.2-.46c0-.43,0-.85,0-1.26v-1.25c0-.2,0-.41,0-.62V239a2.3,2.3,0,0,0,0-.23c0-.1,0-.21,0-.32a.84.84,0,0,1,0-.29.16.16,0,0,1,.16-.13.3.3,0,0,1,.24.16c.07.1.12.18.17.24l.2.29a2.23,2.23,0,0,1,.2.3l.1.17.11.17.06.12c0,.07.05.11.07.12a.61.61,0,0,0,.2.3.56.56,0,0,0,.38.12h.09a.61.61,0,0,0,.39-.12.61.61,0,0,0,.2-.3s0,0,.07-.12a.33.33,0,0,1,.06-.12l.11-.17.1-.17.14-.24a3,3,0,0,1,.21-.33,1.31,1.31,0,0,1,.25-.27.26.26,0,0,1,.26-.06.22.22,0,0,1,.11.15.78.78,0,0,1,0,.26,2.43,2.43,0,0,1,0,.27,1.87,1.87,0,0,0,0,.21c0,.21,0,.41,0,.62v.63c0,.42,0,.83,0,1.24s0,.83,0,1.26a.54.54,0,0,0,.21.46.68.68,0,0,0,.88,0,.54.54,0,0,0,.21-.46c0-1.23,0-2.43,0-3.63S102.82,236.76,102.83,235.54Z"/><path class="cls-1" d="M148.69,234.9a.61.61,0,0,0-.51-.09,2.76,2.76,0,0,1-.71.09h-.75l-.74,0c-.25,0-.49,0-.72,0-.5,0-1,0-1.48.06a14.75,14.75,0,0,1-1.49,0,.52.52,0,0,0-.46.18.66.66,0,0,0-.16.44.71.71,0,0,0,.16.45.58.58,0,0,0,.46.23H143c.24,0,.49,0,.73,0a1.32,1.32,0,0,1,.45.05.43.43,0,0,1,.22.2.85.85,0,0,1,.08.34c0,.13,0,.29,0,.47l0,1.23v1.23c0,.53,0,1,0,1.55s0,1,0,1.56a.56.56,0,0,0,.19.47.61.61,0,0,0,.43.13.77.77,0,0,0,.44-.18.62.62,0,0,0,.25-.45c0-.27.05-.56.06-.86s0-.62,0-.94,0-.62,0-.93v-.86c0-.11,0-.25,0-.44s0-.39,0-.6,0-.44,0-.66a5.7,5.7,0,0,1,0-.62,2.7,2.7,0,0,1,.12-.49.36.36,0,0,1,.2-.24.72.72,0,0,1,.25,0l.26,0h.61c.2,0,.4,0,.61,0s.4,0,.6-.09a.54.54,0,0,0,.41-.31.73.73,0,0,0,0-.46A.72.72,0,0,0,148.69,234.9Z"/><path class="cls-1" d="M123.22,242.07h-.17a.64.64,0,0,1-.48-.11.92.92,0,0,1-.23-.25,2.11,2.11,0,0,1-.16-.3l-.12-.33c0-.11-.07-.22-.1-.32l-.09-.34c0-.11-.07-.22-.1-.33a.45.45,0,0,1,0-.19.44.44,0,0,1,.08-.15l.13-.12a.87.87,0,0,0,.15-.13,2.53,2.53,0,0,0,.53-.7,2.78,2.78,0,0,0,.26-.8,2.43,2.43,0,0,0,0-.85,3,3,0,0,0-.67-1.45,3.39,3.39,0,0,0-1.32-.89,3.63,3.63,0,0,0-.82-.21,6,6,0,0,0-.95-.06,4.94,4.94,0,0,0-1,.11,2.89,2.89,0,0,0-.8.26l-.06,0,0,.05-.07.06-.06.06a.7.7,0,0,0-.09.17.46.46,0,0,0,0,.21c0,1.21,0,2.42.06,3.61s0,2.4-.06,3.61a.55.55,0,0,0,.18.47.72.72,0,0,0,.44.16.77.77,0,0,0,.45-.16.61.61,0,0,0,.23-.47c0-.24,0-.47,0-.7s0-.47,0-.71v-.21l0-.25a1.55,1.55,0,0,1,.07-.23.29.29,0,0,1,.15-.14.47.47,0,0,1,.24,0h.58l.33,0a1.56,1.56,0,0,1,.6.16.79.79,0,0,1,.39.5c.07.21.14.42.19.64a3.52,3.52,0,0,0,.22.62,1.39,1.39,0,0,0,.34.5,1.92,1.92,0,0,0,.48.32,2.19,2.19,0,0,0,.57.16,2.92,2.92,0,0,0,.59,0h.23a.45.45,0,0,0,.38-.24.64.64,0,0,0,.07-.43.74.74,0,0,0-.19-.42A.55.55,0,0,0,123.22,242.07Zm-1.59-4a1.15,1.15,0,0,1-.41.54,2.39,2.39,0,0,1-.7.33,4.85,4.85,0,0,1-.86.17l-.16,0-.33,0h-.36a.63.63,0,0,1-.28-.07l0,0a.31.31,0,0,1-.12-.26c0-.11,0-.21,0-.31s0-.28,0-.42v-.42c0-.15,0-.3,0-.46s0-.31,0-.47v-.18a.67.67,0,0,1,0-.2,1.05,1.05,0,0,1,0-.19.45.45,0,0,1,.1-.14.67.67,0,0,1,.3-.11h.73c.14,0,.28,0,.42,0a2,2,0,0,1,1.06.37,1.76,1.76,0,0,1,.61.94A1.36,1.36,0,0,1,121.63,238.08Z"/><path class="cls-1" d="M128.36,237.16c0-.11,0-.24,0-.36a1.61,1.61,0,0,0,0-.22.46.46,0,0,1,0-.21.32.32,0,0,1,.14-.14l.21-.06h.44l.49,0,.51,0,1,0c.33,0,.66,0,1,0h.05a.56.56,0,0,0,.47-.2.64.64,0,0,0,.16-.43.72.72,0,0,0-.16-.44.6.6,0,0,0-.47-.23c-.37,0-.75,0-1.12,0l-1.13,0-1.14,0c-.38,0-.76,0-1.13,0a.72.72,0,0,0-.44.16.54.54,0,0,0-.21.47c0,.19,0,.48,0,.85s0,.81,0,1.28,0,1,0,1.49,0,1,0,1.49,0,.9,0,1.28,0,.67,0,.87a.62.62,0,0,0,.07.33.53.53,0,0,0,.21.21.61.61,0,0,0,.27.08.8.8,0,0,0,.31,0c.32,0,.64,0,1,0H131a8,8,0,0,0,1.22-.06.62.62,0,0,0,.46-.26.86.86,0,0,0,.16-.47.69.69,0,0,0-.16-.43.47.47,0,0,0-.46-.14,9.25,9.25,0,0,1-1.08.06h-1.52l-.44,0h-.34a.47.47,0,0,1-.32-.1.34.34,0,0,1-.18-.27c0-.11,0-.22,0-.33v-1c0-.1,0-.2,0-.31a.81.81,0,0,0,0-.17.21.21,0,0,1,.06-.16.28.28,0,0,1,.21-.12,1.06,1.06,0,0,1,.25,0h2.22a.54.54,0,0,0,.46-.2.76.76,0,0,0,.15-.45.68.68,0,0,0-.16-.44.52.52,0,0,0-.45-.21l-.76,0-.77,0h-.35l-.35,0a1.09,1.09,0,0,0-.26,0,.24.24,0,0,1-.2-.13.68.68,0,0,1,0-.33,2.19,2.19,0,0,0,0-.33Z"/><path class="cls-1" d="M113.33,237a4.77,4.77,0,0,0-1-1.3,4,4,0,0,0-1.44-.85,2.73,2.73,0,0,0-1.15-.15,3.25,3.25,0,0,0-1.07.28,3.69,3.69,0,0,0-.94.61,4.9,4.9,0,0,0-.77.87,5.62,5.62,0,0,0-.58,1,4.76,4.76,0,0,0-.34,1.05,3,3,0,0,0,0,1,4.28,4.28,0,0,0,.27,1.08,5.61,5.61,0,0,0,1.22,1.95,4.54,4.54,0,0,0,.87.66,2.53,2.53,0,0,0,1,.3,3,3,0,0,0,1.52,0,4.09,4.09,0,0,0,1.37-.68,4.75,4.75,0,0,0,1.05-1.14,4,4,0,0,0,.57-1.42,4.74,4.74,0,0,0,0-1.68A4.85,4.85,0,0,0,113.33,237Zm-.93,3.34a3.38,3.38,0,0,1-.41.93,2.66,2.66,0,0,1-.66.72,1.72,1.72,0,0,1-.91.32h-.23l-.21,0a2.73,2.73,0,0,1-.92-.28,3.48,3.48,0,0,1-.8-.56,3.21,3.21,0,0,1-.9-1.7,6.06,6.06,0,0,1-.06-.64,4.4,4.4,0,0,1,0-.65,3.26,3.26,0,0,1,.49-1.15,2.94,2.94,0,0,1,.86-.86,2.58,2.58,0,0,1,1.12-.38,2.15,2.15,0,0,1,1.22.23,2.46,2.46,0,0,1,.73.55,2.82,2.82,0,0,1,.48.75,3.72,3.72,0,0,1,.26.88,4,4,0,0,1,.06.91A4.25,4.25,0,0,1,112.4,240.29Z"/><path class="cls-1" d="M167.92,240.62c-.24-.61-.47-1.21-.7-1.82l-.69-1.82c-.23-.6-.47-1.19-.73-1.77a.53.53,0,0,0-.23-.21.8.8,0,0,0-.37-.11.83.83,0,0,0-.41.07.64.64,0,0,0-.32.31c-.05.08-.1.18-.16.29s-.11.22-.17.34l-.16.34q-.09.16-.15.3c-.18.35-.34.69-.49,1s-.31.68-.48,1c-.3.63-.59,1.26-.85,1.9s-.56,1.28-.88,1.91a.55.55,0,0,0,0,.51.73.73,0,0,0,.32.37.64.64,0,0,0,.45.08.54.54,0,0,0,.39-.31c.06-.11.11-.21.16-.32a3,3,0,0,0,.16-.31l.14-.27a.55.55,0,0,1,.55-.32h.4l.49,0,.5,0h.75l.76,0h.4a.63.63,0,0,1,.38.09.43.43,0,0,1,.13.14l.11.17c.05.11.09.21.14.31a2.89,2.89,0,0,0,.15.31.69.69,0,0,0,.18.36.54.54,0,0,0,.42.16h.06a.63.63,0,0,0,.33-.09.61.61,0,0,0,.21-.24.75.75,0,0,0,.09-.31.69.69,0,0,0-.07-.34C168.41,241.83,168.16,241.23,167.92,240.62Zm-1.63-.17a.54.54,0,0,1-.27.11l-.29,0H165a6.51,6.51,0,0,1-.77,0h-.3a.55.55,0,0,1-.28-.09.22.22,0,0,1-.07-.16.65.65,0,0,1,0-.2l.09-.21.09-.16c.06-.15.13-.3.19-.44l.22-.44.17-.34a3.78,3.78,0,0,0,.17-.35c.05-.12.11-.24.16-.37s.11-.25.17-.37l.11-.23a.26.26,0,0,1,.18-.16.15.15,0,0,1,.16.09l.08.2.17.44c.06.15.11.31.17.46s.1.31.16.46.11.33.16.49.1.33.16.49a.6.6,0,0,0,.07.18l.09.23a.6.6,0,0,1,0,.23A.19.19,0,0,1,166.29,240.45Z"/><path class="cls-1" d="M235.42,236.36a3.33,3.33,0,0,0-.41-.62,2.45,2.45,0,0,0-.54-.48,2.5,2.5,0,0,0-.63-.29,4.36,4.36,0,0,0-.7-.1l-.5,0h-1.55a1.42,1.42,0,0,0-.31,0,.7.7,0,0,0-.24.13.63.63,0,0,0-.29.49c0,.18,0,.46,0,.82s0,.79,0,1.25,0,1,0,1.47,0,1,0,1.49,0,.92,0,1.31,0,.71,0,.93a.61.61,0,0,0,.23.46.74.74,0,0,0,.46.16.71.71,0,0,0,.44-.15.52.52,0,0,0,.17-.47c0-.35,0-.71,0-1.06a1.79,1.79,0,0,1,0-.34.36.36,0,0,1,.2-.26.49.49,0,0,1,.3-.06,1.71,1.71,0,0,0,.32,0,5.46,5.46,0,0,0,1.23-.22,3.58,3.58,0,0,0,.94-.46,2.91,2.91,0,0,0,.71-.69,2.8,2.8,0,0,0,.42-.89,3.34,3.34,0,0,0,0-1.75A3.25,3.25,0,0,0,235.42,236.36Zm-1.2,2.64a2.16,2.16,0,0,1-.74.52,2.54,2.54,0,0,1-.47.14,3,3,0,0,1-.51.08l-.19,0h-.23a.91.91,0,0,1-.23,0,.44.44,0,0,1-.18-.09.27.27,0,0,1-.09-.11.77.77,0,0,1,0-.27,2.72,2.72,0,0,0,0-.28c0-.1,0-.21,0-.32v-.31c0-.18,0-.35,0-.52s0-.35,0-.52a1.85,1.85,0,0,0,0-.23c0-.09,0-.18,0-.27a2.17,2.17,0,0,1,0-.26.56.56,0,0,1,.07-.23.23.23,0,0,1,.15-.14.84.84,0,0,1,.24-.06h.89a2.7,2.7,0,0,1,.41.06,1.39,1.39,0,0,1,.74.44,2.16,2.16,0,0,1,.42.76c0,.13.07.26.1.39a1.44,1.44,0,0,1,0,.41A1.29,1.29,0,0,1,234.22,239Z"/><path class="cls-1" d="M256.67,238.49a4.71,4.71,0,0,0-1-.32,8,8,0,0,1-1-.25,1.92,1.92,0,0,1-.25-.12l-.25-.12a.62.62,0,0,1-.38-.48.93.93,0,0,1,.14-.57,1.49,1.49,0,0,1,1.27-.65,2.92,2.92,0,0,1,.9.05,1.37,1.37,0,0,1,.75.46.56.56,0,0,0,.47.2.69.69,0,0,0,.41-.2.7.7,0,0,0,.21-.43.55.55,0,0,0-.17-.48,2.72,2.72,0,0,0-1-.65,3.73,3.73,0,0,0-1.19-.26,4.26,4.26,0,0,0-1.23.13,3.34,3.34,0,0,0-1.06.5,2.27,2.27,0,0,0-.71.86,2.11,2.11,0,0,0-.16,1.22,1.43,1.43,0,0,0,.27.71,2.35,2.35,0,0,0,.55.54,3.36,3.36,0,0,0,.69.4c.25.1.49.19.72.26s.5.13.76.19a3.78,3.78,0,0,1,.74.25,1.82,1.82,0,0,1,.58.44,1.34,1.34,0,0,1,.29.76.94.94,0,0,1-.14.62,1.35,1.35,0,0,1-.46.39,2.3,2.3,0,0,1-.61.2,5,5,0,0,1-.6.08,3.51,3.51,0,0,1-.58,0,1.64,1.64,0,0,1-.46-.13,1.52,1.52,0,0,1-.39-.29,2,2,0,0,1-.33-.5.49.49,0,0,0-.38-.32.71.71,0,0,0-.45.09.75.75,0,0,0-.32.36.66.66,0,0,0,0,.53,2.4,2.4,0,0,0,.81.93,3.46,3.46,0,0,0,1.17.53,4.42,4.42,0,0,0,1.32.14,3.58,3.58,0,0,0,1.24-.3,2.72,2.72,0,0,0,1-.75,2.2,2.2,0,0,0,.45-1.22,2.44,2.44,0,0,0-.38-1.66A3.21,3.21,0,0,0,256.67,238.49Z"/><path class="cls-1" d="M240,235.08a.71.71,0,0,0-.45-.16.66.66,0,0,0-.44.16.52.52,0,0,0-.19.46c0,1.22,0,2.44,0,3.64s0,2.42,0,3.64a.59.59,0,0,0,.2.47.74.74,0,0,0,.44.16.72.72,0,0,0,.44-.16.57.57,0,0,0,.21-.47c0-1.22,0-2.44,0-3.64s0-2.42,0-3.64A.56.56,0,0,0,240,235.08Z"/><path class="cls-1" d="M261.76,242a.55.55,0,0,0-.47.21.68.68,0,0,0-.16.44.71.71,0,0,0,.16.45.58.58,0,0,0,.47.2.56.56,0,0,0,.47-.2.76.76,0,0,0,.15-.45.73.73,0,0,0-.15-.44A.54.54,0,0,0,261.76,242Z"/><path class="cls-1" d="M261.92,234.78a.71.71,0,0,0-.45.16.6.6,0,0,0-.23.47c0,.82,0,1.64-.05,2.46v2.47a.56.56,0,0,0,.2.46.71.71,0,0,0,.45.16.68.68,0,0,0,.44-.16.53.53,0,0,0,.2-.46c0-.83,0-1.65,0-2.47s0-1.64.05-2.46a.54.54,0,0,0-.18-.47A.66.66,0,0,0,261.92,234.78Z"/><path class="cls-1" d="M245.07,237.16c0-.11,0-.24,0-.36a1.55,1.55,0,0,0,0-.22.46.46,0,0,1,0-.21.32.32,0,0,1,.14-.14.73.73,0,0,1,.21-.06h.43l.5,0,.51,0,1,0c.33,0,.66,0,1,0h0a.56.56,0,0,0,.47-.2.69.69,0,0,0,.16-.43.72.72,0,0,0-.16-.44.61.61,0,0,0-.47-.23c-.37,0-.75,0-1.12,0l-1.14,0-1.14,0c-.38,0-.75,0-1.12,0a.77.77,0,0,0-.45.16.56.56,0,0,0-.2.47c0,.19,0,.48,0,.85s0,.81,0,1.28,0,1,0,1.49,0,1,0,1.49,0,.9,0,1.28,0,.67,0,.87a.62.62,0,0,0,.07.33.58.58,0,0,0,.2.21.69.69,0,0,0,.28.08.73.73,0,0,0,.3,0c.32,0,.64,0,1,0h2.19a8.18,8.18,0,0,0,1.23-.06.63.63,0,0,0,.46-.26.84.84,0,0,0,.15-.47.68.68,0,0,0-.15-.43.48.48,0,0,0-.46-.14,9.25,9.25,0,0,1-1.08.06H246.3l-.44,0h-.34a.47.47,0,0,1-.32-.1.34.34,0,0,1-.18-.27c0-.11,0-.22,0-.33v-.67c0-.11,0-.21,0-.32s0-.2,0-.31,0-.1,0-.17a.25.25,0,0,1,.05-.16.32.32,0,0,1,.22-.12,1.06,1.06,0,0,1,.25,0h2.22a.54.54,0,0,0,.46-.2.76.76,0,0,0,.15-.45.68.68,0,0,0-.16-.44.52.52,0,0,0-.45-.21l-.77,0-.76,0h-.35l-.35,0a1.09,1.09,0,0,0-.26,0,.27.27,0,0,1-.21-.13.69.69,0,0,1,0-.33,2.19,2.19,0,0,0,0-.33Z"/><path class="cls-1" d="M177.88,237.36V235.5a.57.57,0,0,0-.19-.47.66.66,0,0,0-.44-.16.66.66,0,0,0-.43.16.6.6,0,0,0-.19.49v.19c0,.37,0,.73,0,1.09s0,.72,0,1.09v.62c0,.21,0,.42,0,.63v.8a.33.33,0,0,1-.09.21.14.14,0,0,1-.21,0,1,1,0,0,1-.23-.2,3.21,3.21,0,0,1-.21-.3l-.12-.21-.37-.58-.38-.57c-.31-.45-.63-.94-.94-1.46l-.92-1.51a1.23,1.23,0,0,0-.28-.35.84.84,0,0,0-.36-.17.57.57,0,0,0-.34.05.59.59,0,0,0-.24.29.67.67,0,0,0-.05.3c0,.12,0,.22,0,.31,0,1.15,0,2.29,0,3.43s0,2.28,0,3.43v.1a.57.57,0,0,0,.2.48.69.69,0,0,0,.45.16.66.66,0,0,0,.44-.16.57.57,0,0,0,.2-.48c0-.39,0-.79,0-1.18v-1.17c0-.2,0-.4,0-.6v-.61s0-.1,0-.2a1.13,1.13,0,0,1,0-.26.4.4,0,0,1,.08-.21c0-.06.09-.07.18,0a.61.61,0,0,1,.29.25l.23.32.29.39.27.4,1.08,1.64c.35.54.73,1.08,1.13,1.6,0,0,0,0,0,0l.1.13a.47.47,0,0,0,.48.22.82.82,0,0,0,.44-.27.58.58,0,0,0,.21-.49c0-.59,0-1.17,0-1.74s0-1.16,0-1.75S177.87,238,177.88,237.36Z"/><path class="cls-1" d="M192.12,235.32a.33.33,0,0,0-.11-.26.9.9,0,0,0-.22-.14.6.6,0,0,0-.3-.07.57.57,0,0,0-.31.07.61.61,0,0,0-.2.19.42.42,0,0,0-.1.24,2.88,2.88,0,0,0,0,.32c0,.54,0,1.11,0,1.71s0,1.14,0,1.65c0,.35,0,.68,0,1a8.71,8.71,0,0,1-.09,1,1.75,1.75,0,0,1-.29.73,1.32,1.32,0,0,1-.48.41,1,1,0,0,1-.57.11,1.19,1.19,0,0,1-.55-.18,1.15,1.15,0,0,1-.4-.44,1.29,1.29,0,0,1-.16-.68.59.59,0,0,0-.2-.47.75.75,0,0,0-.44-.15.71.71,0,0,0-.44.15.57.57,0,0,0-.21.47,2.32,2.32,0,0,0,.22,1,2.46,2.46,0,0,0,.57.78,2.74,2.74,0,0,0,.82.5,2.66,2.66,0,0,0,1.87.06,2.28,2.28,0,0,0,.83-.52,2.38,2.38,0,0,0,.45-.71,4.4,4.4,0,0,0,.22-.83,8.46,8.46,0,0,0,.1-.88c0-.29,0-.57,0-.83s0-.66,0-1v-1.11c0-.37,0-.74,0-1.1S192.12,235.63,192.12,235.32Z"/><path class="cls-1" d="M220.78,234.9a.63.63,0,0,0-.51-.09,2.82,2.82,0,0,1-.71.09h-.75l-.74,0c-.25,0-.49,0-.72,0-.5,0-1,0-1.48.06a14.75,14.75,0,0,1-1.49,0,.55.55,0,0,0-.47.18.72.72,0,0,0-.16.44.77.77,0,0,0,.16.45.61.61,0,0,0,.47.23h.73c.24,0,.49,0,.73,0a1.32,1.32,0,0,1,.45.05.48.48,0,0,1,.22.2.85.85,0,0,1,.08.34c0,.13,0,.29,0,.47,0,.41,0,.82,0,1.23s0,.82,0,1.23,0,1,0,1.55,0,1,0,1.56a.56.56,0,0,0,.19.47.61.61,0,0,0,.43.13.8.8,0,0,0,.44-.18.66.66,0,0,0,.25-.45,7.81,7.81,0,0,0,.05-.86c0-.31,0-.62,0-.94s0-.62,0-.93,0-.59,0-.86c0-.11,0-.25,0-.44s0-.39,0-.6,0-.44,0-.66a5.7,5.7,0,0,1,0-.62,2.7,2.7,0,0,1,.12-.49.36.36,0,0,1,.2-.24.69.69,0,0,1,.25,0l.26,0h.61c.2,0,.4,0,.61,0s.4,0,.6-.09a.51.51,0,0,0,.4-.31.67.67,0,0,0,0-.46A.72.72,0,0,0,220.78,234.9Z"/><path class="cls-1" d="M202.07,235.52a.65.65,0,0,0-.65-.65h-.06a.63.63,0,0,0-.32.08.61.61,0,0,0-.19.2.79.79,0,0,0-.1.27.86.86,0,0,0,0,.28c0,.62,0,1.23,0,1.83s0,1.21,0,1.83a4.7,4.7,0,0,1-.08,1,2.72,2.72,0,0,1-.33.92,2,2,0,0,1-.65.69,1.9,1.9,0,0,1-1,.28,1.75,1.75,0,0,1-.8-.19,1.61,1.61,0,0,1-.57-.53,2.44,2.44,0,0,1-.34-.82,4.45,4.45,0,0,1-.11-1.07c0-.68,0-1.36,0-2.06a14,14,0,0,1,.11-2.06.52.52,0,0,0-.15-.47.66.66,0,0,0-.43-.15.79.79,0,0,0-.46.15.62.62,0,0,0-.26.47,9.89,9.89,0,0,0-.08,1.63c0,.54,0,1.09,0,1.63a16.58,16.58,0,0,0,.09,1.76,5,5,0,0,0,.4,1.52,2.59,2.59,0,0,0,.9,1.06,2.8,2.8,0,0,0,1.59.4,4.13,4.13,0,0,0,1.74-.32,2.52,2.52,0,0,0,1.05-.94,4.28,4.28,0,0,0,.54-1.49,12.83,12.83,0,0,0,.19-2q0-.87,0-1.71C202.08,236.47,202.07,236,202.07,235.52Z"/><path class="cls-1" d="M209.52,238.49a4.51,4.51,0,0,0-1-.32,9,9,0,0,1-1-.25l-.25-.12-.25-.12a.64.64,0,0,1-.38-.48.88.88,0,0,1,.15-.57,1.37,1.37,0,0,1,.51-.47,1.4,1.4,0,0,1,.76-.18,3,3,0,0,1,.9.05,1.44,1.44,0,0,1,.75.46.53.53,0,0,0,.46.2.69.69,0,0,0,.41-.2.78.78,0,0,0,.22-.43.59.59,0,0,0-.18-.48,2.72,2.72,0,0,0-1-.65,3.73,3.73,0,0,0-1.19-.26,4.19,4.19,0,0,0-1.22.13,3.3,3.3,0,0,0-1.07.5,2.36,2.36,0,0,0-.71.86,2.11,2.11,0,0,0-.16,1.22,1.43,1.43,0,0,0,.27.71,2.56,2.56,0,0,0,.55.54,3.36,3.36,0,0,0,.69.4c.25.1.49.19.72.26s.5.13.77.19a3.91,3.91,0,0,1,.73.25,1.86,1.86,0,0,1,.59.44,1.33,1.33,0,0,1,.28.76.89.89,0,0,1-.14.62,1.35,1.35,0,0,1-.46.39,2.3,2.3,0,0,1-.61.2,5,5,0,0,1-.6.08,3.38,3.38,0,0,1-.57,0,1.62,1.62,0,0,1-.47-.13,1.52,1.52,0,0,1-.39-.29,1.72,1.72,0,0,1-.32-.5A.51.51,0,0,0,206,241a.71.71,0,0,0-.45.09.69.69,0,0,0-.31.36.62.62,0,0,0,0,.53,2.4,2.4,0,0,0,.81.93,3.64,3.64,0,0,0,1.17.53,4.49,4.49,0,0,0,1.32.14,3.58,3.58,0,0,0,1.24-.3,2.72,2.72,0,0,0,1-.75,2.28,2.28,0,0,0,.46-1.22,2.5,2.5,0,0,0-.38-1.66A3.24,3.24,0,0,0,209.52,238.49Z"/><path class="cls-1" d="M173.17,170.7a3.58,3.58,0,0,0,.16-.56c.34-1.48-.32-3.31-1.78-3.73a3.08,3.08,0,0,0-2.75.72,10.05,10.05,0,0,0-1.85,2.3c-3,4.62-6.5,9.06-11.07,12.13A12,12,0,0,1,149.1,184c-2.43-.05-5-1.51-5.62-3.85a28.54,28.54,0,0,0,15.16-12.59,9.84,9.84,0,0,0,1.64-5.87,6.89,6.89,0,0,0-4.42-5.4,9.63,9.63,0,0,0-7.15.34,16.22,16.22,0,0,0-5.73,4.48,23.79,23.79,0,0,0-2.91,4.31c-.46.77-.94,1.66-1.28,2.18s-.71,1.22-1.08,1.82c-1.2,1.9-2.67,3.65-4,5.49a32.18,32.18,0,0,1-3.24,4.11c-.6.61-1.18,1.23-1.74,1.88a12.62,12.62,0,0,1-1.81,1.77c-.23.18-.49.34-.72.54s-.46.42-.71.61a1.77,1.77,0,0,1-.17.12.87.87,0,0,1-.19.1.4.4,0,0,1-.48-.08c-.13-.21,0-.62.09-.83s.17-.57.25-.86a23.21,23.21,0,0,1,.71-2.33c.3-.77.6-1.54.84-2.33.31-1.06.67-2.1,1.07-3.13a46.63,46.63,0,0,0,1.78-5.27c.7-2.55,1.6-5.16,1.13-7.84a6.85,6.85,0,0,0-3.35-5c-4.15-2-8.28.54-11.55,3.07a20.85,20.85,0,0,0-2.38,2,4.31,4.31,0,0,1-.37.37,30.88,30.88,0,0,1,1-3.34c.32-1.15.81-2.24,1.2-3.36.5-1.45.94-2.91,1.43-4.36.34-1,.61-2,.94-2.94a8.47,8.47,0,0,1,1.17-2.68.43.43,0,0,1,.17-.12,4.59,4.59,0,0,1,1.85,0,28.16,28.16,0,0,0,4.94.1,11.51,11.51,0,0,0,3.49-.74,4.65,4.65,0,0,1,.64-.2,16.07,16.07,0,0,0,4.2-1.95A9.56,9.56,0,0,0,136,140.6a13,13,0,0,0,2.62-4.7,6.16,6.16,0,0,0,.33-1.81,2.7,2.7,0,0,0-1.28-2.59,2.64,2.64,0,0,0-2.71,0,2,2,0,0,0-.91.84,5.41,5.41,0,0,0-.5,1.38.68.68,0,0,1,0,.17,7.68,7.68,0,0,1-.37,1.24,6.67,6.67,0,0,1-2.72,3.06,10.58,10.58,0,0,1-5,1.57,17,17,0,0,1-1.75,0l-1,0a7.24,7.24,0,0,1-1.14,0l-.81-.1c-1.21-.16-2.41-.33-3.59-.51a11.48,11.48,0,0,1-2.23-.46c-.69-.14-1.37-.26-2-.43q-5-1.28-10-2.46A74.15,74.15,0,0,0,93,133.72a58.85,58.85,0,0,0-10.27-.7,26.25,26.25,0,0,0-12,3.35,13.93,13.93,0,0,0-6.68,10.95,14.71,14.71,0,0,0,1.51,7.22A13.18,13.18,0,0,0,67.21,157a7.09,7.09,0,0,0,2.22,1.75,18.4,18.4,0,0,0,4.1,1.54,10.68,10.68,0,0,0,6.31-.7c.47-.2.94-.43,1.41-.67l.84-.41a15.07,15.07,0,0,0,4.4-3.66.36.36,0,0,1,.07-.1,0,0,0,0,1,0,0,2.33,2.33,0,0,0,.24-2.25,2.78,2.78,0,0,0-.85-1.18,2.05,2.05,0,0,0-2.55-.33,7.11,7.11,0,0,0-1.24.84,19.27,19.27,0,0,1-3.63,2.35,6.86,6.86,0,0,1-4.4.74,4.8,4.8,0,0,1-3.39-2.08,8.66,8.66,0,0,1-1-2.25.33.33,0,0,1,0-.17,6.17,6.17,0,0,1,0-3.87,9.34,9.34,0,0,1,2-4,12.14,12.14,0,0,1,5.87-3.43,7,7,0,0,1,1.35-.2l.33-.07a9.85,9.85,0,0,0,1.21-.2,13.83,13.83,0,0,1,1.68-.23,31.64,31.64,0,0,1,8.36.3l3.06.57c1,.17,1.93.34,2.88.6.5.13,1,.28,1.48.43a6,6,0,0,0,1.33.37,1.09,1.09,0,0,0-.13.17,7.17,7.17,0,0,0-.5,1.19,15.16,15.16,0,0,1-.69,1.47,11.36,11.36,0,0,0-.75,1.58q-1.14,3.09-2,6.25-.33,1.25-.63,2.52-.34,1.55-.78,3.09a35.09,35.09,0,0,0-.8,3.66c-.14.71-.28,1.44-.44,2.18-.09.4-.17.82-.24,1.24s-.2,1.08-.33,1.61c-.07.29-.13.59-.2.88a17.87,17.87,0,0,1-.5,1.91,8.88,8.88,0,0,0-.41,1.51,44.4,44.4,0,0,1-1.51,5.68,9.83,9.83,0,0,0-.34,1,6,6,0,0,1-.23.68.31.31,0,0,1,0,.13,29.94,29.94,0,0,1-1.68,4.3q-.43.84-.84,1.71A17.45,17.45,0,0,1,84.1,187c-.38.45-.73.89-1.07,1.34a5.12,5.12,0,0,1-.34.44,14.6,14.6,0,0,1-5.7,4.16l-.61.24a.69.69,0,0,0-.2,0,17.39,17.39,0,0,1-6.92.61,11.07,11.07,0,0,1-3.83-1.18,6,6,0,0,1-1.58-1.18,10.68,10.68,0,0,1-1.57-2,11.4,11.4,0,0,1-1.35-8.79,21.8,21.8,0,0,1,1.71-4.4,5.65,5.65,0,0,1,.81-1.15,12.57,12.57,0,0,1,2.18-2,9,9,0,0,1,4.14-1.71l.47-.07c.42-.05.85-.1,1.27-.17a7,7,0,0,1,4.43.91,4.36,4.36,0,0,1,2.42,3.52,6,6,0,0,1-.94,3.9,4.91,4.91,0,0,1-2.65,2.18,4.66,4.66,0,0,0-1,.54,3.19,3.19,0,0,0-1.07,1.31,1.89,1.89,0,0,0,.2,2,3,3,0,0,0,2.82,1.24,6.79,6.79,0,0,0,4-1.68,11.35,11.35,0,0,0,2.39-2.95,13.43,13.43,0,0,0,1.07-2.56,3.46,3.46,0,0,1,.17-.43,9.53,9.53,0,0,0-.37-6.89,16.37,16.37,0,0,0-1-2,7,7,0,0,0-2.21-2.48,13.41,13.41,0,0,0-1.75-.94,15,15,0,0,0-5.14-1.11,21.4,21.4,0,0,0-5.57.67,12.82,12.82,0,0,0-4.3,1.88,16.88,16.88,0,0,0-3.93,3.8,19.47,19.47,0,0,0-3.6,8.93,18.23,18.23,0,0,0,.17,5.47,25.4,25.4,0,0,0,1,3.56,9.08,9.08,0,0,0,1.28,2.52,5.23,5.23,0,0,0,.5.64l.47.61a12.41,12.41,0,0,0,4.33,3.49,15.36,15.36,0,0,0,4,1.34,17.54,17.54,0,0,0,5.91.47q1.14-.13,2.28-.33l.94-.14a9.19,9.19,0,0,0,1.18-.27,23.27,23.27,0,0,0,5.5-2.65,18.84,18.84,0,0,0,4.67-4.5c.36-.47.69-.95,1-1.44l.53-.74a12.28,12.28,0,0,0,.75-1.21,65,65,0,0,0,5.3-12.86c.31-.88.58-1.77.81-2.69.13-.65.28-1.31.43-2,.32-1.37.63-2.73.94-4.1q.7-2.85,1.15-5.78a13.75,13.75,0,0,1,.36-1.57c0-.11,0-.22.07-.31a16.13,16.13,0,0,0,.54-2c.13-.76.3-1.52.5-2.29.07-.27.14-.53.2-.8.21-.86.56-1.66.8-2.5s.45-1.73.71-2.58a20.51,20.51,0,0,1,1.62-3.76,5.73,5.73,0,0,1,1.27-1.61,3,3,0,0,1,1.38-.67,3.82,3.82,0,0,1,1,.07.64.64,0,0,0,.2,0,30.31,30.31,0,0,1,5.07,1.41h0v0a1,1,0,0,1-.1.3,2.38,2.38,0,0,0-.16.7,15.23,15.23,0,0,1-.88,3.19c-.18.5-.37,1-.57,1.48-.4,1-.76,2-1.07,3.06q-1,3.26-2.19,6.41c-.09.25-.18.48-.27.71l-.06.2c-.16.51-.33,1-.51,1.58-.4,1.3-.85,2.58-1.34,3.86s-1,2.8-1.41,4.23a21,21,0,0,1-1,2.89,9.63,9.63,0,0,0-.64,1.75c-.33,1.07-.69,2.14-1.07,3.22-.58,1.66-1.15,3.32-1.71,5a2.78,2.78,0,0,0-.17.51c-.18.51-.36,1-.54,1.51a16.79,16.79,0,0,0-.67,2.15,2.63,2.63,0,0,0,.1,1.81,3.36,3.36,0,0,0,1.92,1.58,1.77,1.77,0,0,0,1,.06,3.34,3.34,0,0,0,2.22-1.44,19.6,19.6,0,0,0,1.47-2.65q1-2.06,2.09-4l1.24-2.12c.44-.76.89-1.52,1.34-2.28q.13-.27.3-.54c.25-.45.51-.88.78-1.31l1.31-1.95c1-1.5,2-3,3-4.46a34.21,34.21,0,0,1,4.08-4.75c1.24-1.2,3-2.81,4.76-3a1.38,1.38,0,0,1,.67.06,1.41,1.41,0,0,1,.73,1.37,19.21,19.21,0,0,1-1.47,5.85c-.58,1.57-1.07,3.16-1.67,4.72l0,.05q-.19.43-.36.87c-.43,1-.81,2-1.15,3.09-.13.51-.28,1-.43,1.54s-.36,1.22-.54,1.85a20,20,0,0,0-.54,2.22,6.4,6.4,0,0,0,.4,4.26,4.48,4.48,0,0,0,2.76,2.49,6.77,6.77,0,0,0,2.79.23,9.43,9.43,0,0,0,4.53-1.81c.56-.45,1.1-.91,1.61-1.38.32-.27.64-.54,1-.8a18.19,18.19,0,0,0,2.31-2.42l.37-.47c.72-.94,1.49-1.86,2.32-2.76.16-.17.3-.38.46-.56a12.26,12.26,0,0,0,1.88,5.2,11.64,11.64,0,0,0,9.32,4.77,18.21,18.21,0,0,0,10.23-3.18,47.42,47.42,0,0,0,7.65-6.7,14.56,14.56,0,0,0,1.55-1.86c.46-.63,1-1.26,1.42-1.89s.9-1.34,1.37-2,.91-1.15,1.36-1.73A7.48,7.48,0,0,0,173.17,170.7Zm-29.13.18a17.09,17.09,0,0,1,.89-2.28,16.68,16.68,0,0,1,2.71-4,10,10,0,0,1,2.62-2.15,7.18,7.18,0,0,1,3.73-.64.09.09,0,0,0,0,.06c.82.41-.8,3.39-1.1,3.88a21.62,21.62,0,0,1-2.86,3.61,14.21,14.21,0,0,1-1.9,1.82,15.93,15.93,0,0,1-4.4,2.1.38.38,0,0,1-.18,0s0,0,0-.08A20.69,20.69,0,0,1,144,170.88Z"/><path class="cls-1" d="M206,157.26a3,3,0,0,0,1.7-2.43c.16-1,0-2.08.1-3.12.22-3.06,2.25-5.68,4.47-7.8a35.86,35.86,0,0,1,26.6-9.71,22.42,22.42,0,0,1,8.94,2.23,13,13,0,0,1,6.25,6.6c1.45,3.75.63,8.12-1.47,11.55a24.73,24.73,0,0,1-8.83,8,44.37,44.37,0,0,1-23.86,6,95.9,95.9,0,0,1,6.56-19.37,13.56,13.56,0,0,1,3.34-4.93c1-.85,2.44-1.6,2.59-2.93a2.52,2.52,0,0,0-2.4-2.49,5.29,5.29,0,0,0-3.52,1.34,19.75,19.75,0,0,0-5.11,6.76c-6.31,12.32-7.27,27.3-15.83,38.18a15.83,15.83,0,0,1-6.08,5.07,7.89,7.89,0,0,1-7.64-.56,8.52,8.52,0,0,1-2.76-3.88,14,14,0,0,1,17.65-18.26c1.19.42,2.65.95,3.57.1,1.17-1.07.1-3-1.16-4a13.69,13.69,0,0,0-11.53-2,19.68,19.68,0,0,0-9.95,6.57,20.49,20.49,0,0,0-5.13,14.44c.38,5.22,3.49,10.33,8.28,12.45a13.69,13.69,0,0,0,12.65-.7,29.82,29.82,0,0,0,7-6.58c2.31-2.86,4.49-7.33,6.19-10.29,2.57-4.46,5.6-3.55,10.26-4a48.58,48.58,0,0,0,22.92-8.68,45.12,45.12,0,0,0,4.4-3.51,17.22,17.22,0,0,0,3.48-4.31,19.59,19.59,0,0,0,2.3-7.19c.73-5.48-1.74-11.07-5.7-14.8-4.54-4.29-10.93-6.29-17.18-6.29s-12.37,1.85-18.05,4.44a36,36,0,0,0-11.34,7.55A18.12,18.12,0,0,0,202.38,153a5.71,5.71,0,0,0,.78,3.17A2.61,2.61,0,0,0,206,157.26Z"/><path class="cls-1" d="M264.54,152.86a2.94,2.94,0,0,0,1.26,1.44,2.63,2.63,0,0,0,1.3.39,2.67,2.67,0,0,0,1.31-.39,3.81,3.81,0,0,0,1.25-1.18,3.07,3.07,0,0,0,.2-3.06,2.62,2.62,0,0,0-.81-1,2.55,2.55,0,0,0-.76-.41,2.88,2.88,0,0,0-.71-.14,3.07,3.07,0,0,0-3,2.19,4.45,4.45,0,0,0-.13.89,3.29,3.29,0,0,0,0,1C264.48,152.67,264.51,152.77,264.54,152.86Z"/><path class="cls-1" d="M307.38,168.14a3,3,0,0,0-2.77.67,9.26,9.26,0,0,0-1.86,2.31c-3.12,4.81-6.74,9.43-11.54,12.55a11.83,11.83,0,0,1-6.75,2.26c-2.41-.11-4.88-1.65-5.43-4a27.59,27.59,0,0,0,14.37-10.71,14.84,14.84,0,0,0,2.31-4.91,7.66,7.66,0,0,0-.58-5.31c-1.44-2.67-4.8-3.91-7.81-3.49a14,14,0,0,0-7.79,4.39,24,24,0,0,0-4.43,6.36h0c-.39.56-1.22,2-1.43,2.33-3.14,4.81-6.22,9.79-10.52,13.6a5.82,5.82,0,0,1-2.86,1.61.5.5,0,0,1-.46-.08.58.58,0,0,1-.11-.37,21.75,21.75,0,0,1,1.65-7.74l4.84-14a7.48,7.48,0,0,0,.61-3.41,2.77,2.77,0,0,0-1.87-2.34,2.91,2.91,0,0,0-2.82,1.15,9.35,9.35,0,0,0-1.36,2.89c-2.53,7.33-6.29,14.43-6.73,22.18-.13,2.37.17,5,2,6.58a5.35,5.35,0,0,0,2.73,1.22,8.75,8.75,0,0,0,3.77-.3,8.16,8.16,0,0,0,1.85-.72l0,0a12.6,12.6,0,0,0,1.45-1.07,15.23,15.23,0,0,0,1.74-1.57c1.12-1.22,2.23-2.43,3.29-3.7.7-.83,1.36-1.68,2-2.54a12.35,12.35,0,0,0,3.06,6.54,12.15,12.15,0,0,0,9.77,3.4,19.85,19.85,0,0,0,9.81-3.94,40.44,40.44,0,0,0,4.41-3.75c.7-.68,1.39-1.37,2.07-2.08.4-.42.78-.83,1.17-1.27a14.57,14.57,0,0,0,1.13-1.46c.63-.9,1.22-1.82,1.8-2.74s1.24-1.64,1.82-2.5a6.07,6.07,0,0,0,1.2-3.23A2.87,2.87,0,0,0,307.38,168.14Zm-28.21,6.72,0-.17a17.83,17.83,0,0,1,5.28-9.46,7.5,7.5,0,0,1,3.19-1.62,2.94,2.94,0,0,1,1.71-.1c.81.32.35,1.38.15,2a15.73,15.73,0,0,1-3.17,5,14.13,14.13,0,0,1-3,2.82,32.27,32.27,0,0,1-3.91,1.83C279.1,175.28,279.1,175.14,279.17,174.86Z"/><path class="cls-1" d="M150.63,136.5a5.42,5.42,0,0,0,3.36,5l3.25,6.68a10.6,10.6,0,0,0,9.5,5.94l13.51-.06a10.62,10.62,0,0,0,9.5-6l3.19-6.71a5.39,5.39,0,0,0-.43-10.11c-1.44-5.06-9.17-8.57-18.95-8.57h-.19c-9.72.05-17.66,3.71-19.05,8.75A5.45,5.45,0,0,0,150.63,136.5Zm35.91,10a7,7,0,0,1-6.3,4l-13.48.06h-.11a7,7,0,0,1-6.21-3.93l-2.59-5.33a5,5,0,0,0,1.67-1.05,5.26,5.26,0,0,0,3.5,1.35,5.16,5.16,0,0,0,3.48-1.39,5.12,5.12,0,0,0,7,0,5.15,5.15,0,0,0,3.48,1.35,5,5,0,0,0,3.48-1.39,5,5,0,0,0,3.47,1.36,5.17,5.17,0,0,0,3.5-1.39,4.84,4.84,0,0,0,1.69,1Zm-31.92-11.38a2,2,0,0,1,1.4-.58,1.53,1.53,0,0,0,1.49-1.52c0-1.69,1.65-3.43,4.54-4.75A28.34,28.34,0,0,1,173.38,126h.17c8.53,0,15.76,3.12,15.78,6.81a1.5,1.5,0,0,0,1.52,1.5,2,2,0,1,1,0,3.95h0a2,2,0,0,1-2-2,1.5,1.5,0,0,0-1.51-1.5,1.46,1.46,0,0,0-1.06.44,1.5,1.5,0,0,0-.44,1.07,2,2,0,0,1-4,0,1.51,1.51,0,1,0-3,0,2,2,0,0,1-4,0,1.52,1.52,0,0,0-.44-1.06,1.54,1.54,0,0,0-1.07-.44,1.52,1.52,0,0,0-1.5,1.52,1.92,1.92,0,0,1-.57,1.39,2,2,0,0,1-1.41.59,2,2,0,0,1-2-2,1.5,1.5,0,0,0-3,0,2,2,0,0,1-.58,1.4,1.93,1.93,0,0,1-1.4.59,2,2,0,0,1-2-2A1.53,1.53,0,0,0,159.5,135a1.52,1.52,0,0,0-1.5,1.51,2,2,0,1,1-3.38-1.38Z"/><path class="cls-1" d="M172.34,131.44a1.49,1.49,0,0,0,1.06.43h0a1.5,1.5,0,0,0,1.07-.44,1.54,1.54,0,0,0,.44-1.08v-2a1.51,1.51,0,0,0-.45-1.07,1.49,1.49,0,0,0-1.08-.43,1.46,1.46,0,0,0-1.06.44,1.5,1.5,0,0,0-.45,1.08v2A1.48,1.48,0,0,0,172.34,131.44Z"/><path class="cls-1" d="M178.2,131.19a1.52,1.52,0,0,0,1.27.68h0a1.54,1.54,0,0,0,.83-.26,1.48,1.48,0,0,0,.65-1,1.53,1.53,0,0,0-.22-1.14l-1.11-1.68a1.52,1.52,0,1,0-2.53,1.67Z"/><path class="cls-1" d="M184.05,132.64a1.53,1.53,0,0,0,1.07.43h0a1.5,1.5,0,0,0,1.52-1.52,1.52,1.52,0,0,0-.46-1.07l-1.43-1.42a1.5,1.5,0,0,0-1.07-.44h0a1.47,1.47,0,0,0-1.07.45,1.52,1.52,0,0,0,0,2.15Z"/><path class="cls-1" d="M166.52,131.68a1.48,1.48,0,0,0,.82.24h0a1.49,1.49,0,0,0,1.26-.69l1.1-1.69a1.51,1.51,0,0,0-.45-2.1,1.48,1.48,0,0,0-1.14-.21,1.54,1.54,0,0,0-1,.66l-1.09,1.69a1.52,1.52,0,0,0,.45,2.1Z"/><path class="cls-1" d="M161.7,133.19h0a1.51,1.51,0,0,0,1.07-.45l1.42-1.44a1.52,1.52,0,0,0-1.08-2.58h0a1.51,1.51,0,0,0-1.07.45l-1.42,1.43a1.52,1.52,0,0,0,1.08,2.59Z"/><path class="cls-1" d="M145.43,121.83l3.19,2.34a7.34,7.34,0,0,0,1.65,1,2.42,2.42,0,0,0,1.87,0,1.59,1.59,0,0,0,.83-1.08,1.1,1.1,0,0,0,0-.51,2.35,2.35,0,0,0-1-1.15c-1-.76-2-1.5-3-2.23-.73-.52-2.28-1.83-3.2-1.87a1.5,1.5,0,0,0-1.66,1.77A2.82,2.82,0,0,0,145.43,121.83Zm7.31,2.76h0Z"/><path class="cls-1" d="M163.15,117.94h0Z"/><path class="cls-1" d="M159.5,116.21a7.63,7.63,0,0,0,1.29,1.43,2.12,2.12,0,0,0,2.19.42,1.18,1.18,0,0,0,.49-.55,1.81,1.81,0,0,0,.14-.69,3.57,3.57,0,0,0-.89-2c-.58-.78-1.16-1.55-1.76-2.32-.77-1-1.61-2.61-3.06-2.62a1.46,1.46,0,0,0-1.57,1.18,3.16,3.16,0,0,0,.8,2Z"/><path class="cls-1" d="M171.86,114a1.69,1.69,0,0,0,2.51,1.5l0,0c.86-.51.67-1.91.66-2.74s0-1.89-.08-2.83.18-2.94-.35-3.69a1.61,1.61,0,0,0-2.54-.22,2.83,2.83,0,0,0-.55,2.13l.09,4C171.66,112.74,171.79,113.37,171.86,114Zm2,1.61h0Z"/><polygon class="cls-1" points="184.76 117.46 184.76 117.46 184.76 117.46 184.76 117.46"/><path class="cls-1" d="M185.24,117.58a1.15,1.15,0,0,0,1.08-.33,23.39,23.39,0,0,0,2.61-3,13.14,13.14,0,0,0,2-2.49c.43-.84.38-2.17-.55-2.53a2.26,2.26,0,0,0-2.66,1l-2.52,3.07c-.74.91-1.63,2.07-1.22,3.32A1.65,1.65,0,0,0,185.24,117.58Z"/><path class="cls-1" d="M184.61,117.41h0Z"/><path class="cls-1" d="M193.58,124.12h0Z"/><path class="cls-1" d="M194,124.48a1.26,1.26,0,0,0,.77.17,6.27,6.27,0,0,0,2.35-1.24c.89-.57,1.8-1.13,2.7-1.68a4.35,4.35,0,0,0,1.83-1.7c.45-.94.24-2.29-1-2.42a2.25,2.25,0,0,0-1.19.25,16.84,16.84,0,0,0-1.64,1l-2.07,1.33a8.45,8.45,0,0,0-1.83,1.36,2.46,2.46,0,0,0-.66,1.7A1.5,1.5,0,0,0,194,124.48Z"/></svg>