<svg id="Layer_1" data-name="Layer 1" xmlns="http://www.w3.org/2000/svg" viewBox="0 0 360 360"><defs><style>.cls-1{fill:#231f20;}</style></defs><title>Family Owned Texas</title><polygon class="cls-1" points="222.98 183.68 223.31 180.81 222.62 179.84 221.68 178.18 220.93 176.46 220.44 175.32 219.28 174.57 218.05 166.44 217.97 162.08 216.5 162.2 215.27 162.43 214.88 161.96 212 160.73 210.14 160.08 208.74 160.72 206.5 160.84 205.18 160.96 204.14 161.66 203.09 162.07 202.13 161.76 200.03 162.34 198.98 161.13 198.06 162.3 196.29 161.93 194.43 160.85 192.56 161.73 191.62 159.94 188.67 160.29 186.75 159.97 184.6 159.53 183.58 157.98 181.94 158.57 180.88 157.98 179.34 157.22 179.08 149.93 178.8 142.45 172.63 142.64 166.46 142.77 160.3 142.83 160.37 162.85 160.42 177.27 154.35 177.26 142.57 177.07 136.68 176.88 136.73 177.54 137.42 178.79 139.73 181.59 143.04 184.12 146.91 187.59 149.06 191.65 150.67 195.91 154.15 198.28 159.77 200.61 164 194.48 169.5 194.26 174.33 197.23 177.89 202.42 180.41 206.88 184.65 211.14 186.41 216.51 188.54 220.08 194.15 222.21 199.25 223.63 201.99 223.21 200.47 220.65 199.88 216.94 199.59 211.58 200.95 207.99 204.43 204.03 210.94 200.16 216.58 193.9 222.15 191.71 221.49 190.75 222.05 189.56 222.95 188.44 222.8 186.91 222.26 186.45 222.65 184.56 222.98 183.68"/><polygon class="cls-1" points="71.57 170.2 76.13 170.65 76.79 164.06 80.24 164.4 79.59 170.99 87.67 171.79 87.29 175.64 67.69 173.69 68.77 162.82 72.27 163.16 71.57 170.2"/><path class="cls-1" d="M80.73,141.36c-.62-.11-2.25-.52-2.25-.52s1.48.81,2,1.16,3.28,2.18,5,3.38l1.18-3c-2-.28-5.16-.83-6-1m11.5,8.56-1.38,3.62L74.2,141.91,76.07,137l20,2.87-1.4,3.65-4.83-.77-1.7,4.43Z"/><polygon class="cls-1" points="110.84 118.06 101.13 110.22 108.94 120.42 106.61 123.32 95.08 117.74 104.82 125.54 102.55 128.36 87.18 116 90.43 111.96 103.46 118.33 94.51 106.9 97.66 102.97 113.03 115.33 110.84 118.06"/><rect class="cls-1" x="117.97" y="86.96" width="3.92" height="19.72" transform="matrix(0.81, -0.59, 0.59, 0.81, -33.98, 88.63)"/><polygon class="cls-1" points="139.9 96.2 132.35 77.98 135.94 76.49 142.2 91.57 148.57 88.92 149.87 92.06 139.9 96.2"/><path class="cls-1" d="M167.26,81l1,7-3.85.56-1-7L156.3,69.8l4-.58s4.37,7.73,4.5,8.31c-.06-.59,2.28-9.3,2.28-9.3l3.87-.57Z"/><path class="cls-1" d="M214,89c.75-.63,1.88-3.29,2.48-5a18.13,18.13,0,0,0,1.16-5.22,2.35,2.35,0,0,0-1.79-2.12,2.24,2.24,0,0,0-2.7.59,19.07,19.07,0,0,0-2.33,4.83c-.6,1.72-1.3,4.49-1.12,5.5a2.27,2.27,0,0,0,1.74,1.87A2.35,2.35,0,0,0,214,89m7.57-10.43a20.54,20.54,0,0,1-1.37,6.57,18.32,18.32,0,0,1-3.25,6.27c-1.31,1.58-3.48,2.24-6.65,1.14-2.49-.86-4.38-2.44-4.53-5a20.26,20.26,0,0,1,1.35-6.91,17.24,17.24,0,0,1,3.15-6c1.38-1.44,3.48-2.26,6.65-1.16s4.48,2.9,4.65,5.08"/><path class="cls-1" d="M241.64,110.42,238,107.63S243.46,97.1,244.22,96c-.81,1-9.68,9-9.68,9L231,102.25l8.94-18,3.19,2.45s-6.42,12.18-7.17,13.16c.75-1,10.8-10.39,10.8-10.39l3.2,2.47s-6.39,12.19-7.15,13.17c.76-1,10.82-10.37,10.82-10.37l3,2.31Z"/><polygon class="cls-1" points="258.01 129.84 264.71 119.41 255.28 125.82 253.23 122.81 269.53 111.74 271.79 115.06 264.96 125.42 274.45 118.98 276.48 121.97 260.18 133.04 258.01 129.84"/><polygon class="cls-1" points="266.43 146.09 285.17 139.99 288.57 150.45 285.23 151.54 283.01 144.73 278.62 146.16 280.73 152.64 277.46 153.71 275.35 147.22 270.92 148.66 273.15 155.55 269.86 156.62 266.43 146.09"/><path class="cls-1" d="M282.92,179c1.42-.05,4.26-.31,4.94-.71a2.05,2.05,0,0,0,1.06-2.13l-.1-2.6-13.11.5.1,2.68a2,2,0,0,0,1.14,2c.81.34,4.46.3,6,.24m-10.31-1.54-.27-7.09,19.71-.76.25,6.72c.1,2.48-.52,4-1.79,4.93-1.43,1.05-4.07,1.31-7.45,1.43-4.14.16-6.75.09-8.17-.77s-2.19-2-2.28-4.46"/><path class="cls-1" d="M263.7,219c1.76-3.78,3.71-4.84,6.15-4.22a14.61,14.61,0,0,1,2.09.83l-1.61,3.44a10.69,10.69,0,0,0-1.5-.54c-1-.12-1.62.42-2.26,1.79-.73,1.56-.4,2.43.95,3a3.1,3.1,0,0,0,3.42-.68c.77-.6,1.7-1.31,2.48-1.93,2.27-1.79,4.15-2.49,6.76-1.28,2.77,1.29,3.64,4.11,1.91,7.81-1.63,3.51-3.9,4.37-6.28,3.78a14.42,14.42,0,0,1-1.95-.66l1.61-3.47a7.23,7.23,0,0,0,1.39.49c.9.17,1.66-.16,2.3-1.53s.48-2.38-.58-2.87-2.06-.33-3.83,1.11c-.66.54-1.75,1.35-2.55,2a5.6,5.6,0,0,1-6.37.78c-3-1.39-3.94-4-2.13-7.86"/><rect class="cls-1" x="257.95" y="234.22" width="3.92" height="19.72" transform="translate(-93.17 293.72) rotate(-51.2)"/><polygon class="cls-1" points="234.02 255.21 244.8 261.37 237.9 252.27 240.8 250.06 252.72 265.79 249.52 268.22 238.8 261.92 245.74 271.08 242.85 273.27 230.94 257.54 234.02 255.21"/><path class="cls-1" d="M207.81,271.92c.07-2.51,1.32-4.26,4.41-5.41,2.72-1,4.77-.7,6.26.59s2.87,3.91,3.84,6.49a16.9,16.9,0,0,1,1.38,6.87c-.25,2.24-1.59,3.89-4.5,5-3.35,1.26-5.72.43-7.14-1.67a13.69,13.69,0,0,1-1.59-3.11l3.6-1.35a8.42,8.42,0,0,0,1.44,2.51,2.19,2.19,0,0,0,2.56.39,2.51,2.51,0,0,0,1.75-2.06,16.19,16.19,0,0,0-1.25-5.15,15.86,15.86,0,0,0-2.56-4.94,2.4,2.4,0,0,0-2.65-.36,2.17,2.17,0,0,0-1.66,2.08,8.06,8.06,0,0,0,.5,2.69l-3.58,1.34a12.47,12.47,0,0,1-.81-3.88"/><polygon class="cls-1" points="192.6 271.82 194.16 291.47 183.19 292.34 182.91 288.84 190.06 288.27 189.69 283.67 182.89 284.21 182.62 280.78 189.41 280.23 189.05 275.59 181.83 276.16 181.55 272.7 192.6 271.82"/><path class="cls-1" d="M148,266.85l-5.4,14.32,3.39.8-1.05,2.78c-3-.8-4.16-.21-4.67.31l-2.74-1,7-18.5Z"/><path class="cls-1" d="M116.6,266.93a1.89,1.89,0,0,0,.73,2.63,1.78,1.78,0,0,0,2.36,0,18.16,18.16,0,0,0,2.3-3.23,1.75,1.75,0,0,0-.82-2.2,2.49,2.49,0,0,0-2.57-.26c-.53.8-1.73,2.59-2,3.1m10.45-11.28c2.62,1.83,3.25,3.88,2.37,6a14.67,14.67,0,0,1-1.07,1.83l-2.9-2c.11-.19.38-.55.57-.9.44-.84.06-1.59-.9-2.26a1.86,1.86,0,0,0-2.75.4c-.53.66-1.72,2.27-2.09,2.8a4.76,4.76,0,0,1,3.6,1c1.77,1.24,2.43,2.94,1.93,4.56a18.09,18.09,0,0,1-4,5.56c-1.72,1.21-3.92,1.28-6.34-.42-2.17-1.52-3.13-3.34-2.44-5.83a26.63,26.63,0,0,1,3.21-5.71,38,38,0,0,1,3.67-4.63c1.84-1.76,4.33-2.25,7.13-.29"/><path class="cls-1" d="M97.24,246.81l7.37-1.27-2.35-2.86Zm5.23-9,3.1-2.55,2.3,2.8-3.1,2.55,4.52,5.5-2.68,2.2-13.86,2.54-2.47-3,9.68-8-1.3-1.58,2.52-2.06Z"/><path class="cls-1" d="M86.85,218.6c-.56.38-.82,1.15-.34,2.24a2.47,2.47,0,0,0,2.3,1.59c.85-.41,2.47-1.18,3-1.48a2,2,0,0,0,.72-2.67c-.45-1-1.14-1.48-2.06-1.23a20,20,0,0,0-3.58,1.55m8.44-1.66c1.12,2.54,1.08,4.78-1,6.55a27.64,27.64,0,0,1-5.77,3.22,41.94,41.94,0,0,1-5.27,2c-2.38.68-5-.27-6.36-3.43s-.64-5.12,1-6.35a17.52,17.52,0,0,1,1.94-1l1.43,3.25a9.44,9.44,0,0,0-.84.43c-.79.48-1.12,1.16-.57,2.41s1.54,1.52,2.82,1c.72-.26,2.47-1,3.06-1.24a5.1,5.1,0,0,1-2.63-2.88c-.89-2-.75-3.63.8-5a19.09,19.09,0,0,1,6.06-2.61c2.31-.24,4,.81,5.24,3.63"/></svg>